<?xml version="1.0" encoding="utf-8"?><svg width="64" height="60" viewBox="0 0 64 60" xmlns="http://www.w3.org/2000/svg" xmlns:xlink="http://www.w3.org/1999/xlink"><svg id="error" viewBox="0 0 30 30" width="30" height="30" x="33.8" xmlns="http://www.w3.org/2000/svg"><style>.ast0{fill:#cc1f36;stroke:#fff;stroke-width:2;stroke-miterlimit:10}.ast1{fill:#fff}</style><path class="ast0" d="M15 1C7.3 1 1 7.3 1 15s6.3 14 14 14 14-6.3 14-14S22.7 1 15 1z"/><path class="ast1" d="M20.5 21.1c-.6.6-1.6.6-2.2 0L15 17.3l-3.4 3.8c-.6.6-1.6.6-2.2 0-.6-.6-.6-1.6 0-2.2l3.5-4-3.5-4c-.6-.6-.6-1.6 0-2.2s1.6-.6 2.2 0l3.4 3.8 3.4-3.8c.6-.6 1.6-.6 2.2 0 .6.6.6 1.6 0 2.2L17 15l3.5 4c.6.6.6 1.5 0 2.1z"/></svg><svg id="info" viewBox="0 0 30 30" width="30" height="30" y="30" xmlns="http://www.w3.org/2000/svg"><style>.bst0{fill:#3ea9df;stroke:#fff;stroke-width:2;stroke-miterlimit:10}.bst1{fill:#fff}</style><path class="bst0" d="M15 1C7.3 1 1 7.3 1 15s6.3 14 14 14 14-6.3 14-14S22.7 1 15 1z"/><path class="bst1" d="M16.5 6.1c1.3 0 1.8.8 1.8 1.7 0 1.1-.9 2.2-2.5 2.2-1.3 0-1.9-.6-1.9-1.7 0-.9.7-2.2 2.6-2.2zM12.9 23.6c-1 0-1.7-.6-1-3.1L13 16c.2-.7.2-1 0-1-.3 0-1.5.5-2.2 1l-.5-.8c2.3-1.9 4.9-3.1 6-3.1 1 0 1.1 1.1.6 2.9l-1.2 4.7c-.2.8-.1 1.1.1 1.1.3 0 1.2-.4 2.1-1l.5.7c-2.1 2.3-4.5 3.1-5.5 3.1z"/></svg><svg id="success" viewBox="0 0 30 30" width="30" height="30" x="30" y="30" xmlns="http://www.w3.org/2000/svg"><style>.cst0{fill:#1e9346;stroke:#fff;stroke-width:2;stroke-miterlimit:10}.cst1{fill:#fff}</style><path class="cst0" d="M15 1C7.3 1 1 7.3 1 15s6.3 14 14 14 14-6.3 14-14S22.7 1 15 1z"/><path class="cst1" d="M21.1 10.4L14.5 21c-.3.4-.6.6-1.1.6h-.1c-.4 0-.8-.2-1-.5L9 16.7c-.4-.6-.3-1.4.3-1.8.6-.4 1.4-.3 1.8.3l2.2 2.9 5.5-9c.4-.6 1.2-.8 1.8-.4.7.3.9 1.1.5 1.7z"/></svg><svg id="warning" viewBox="0 0 33.8 30" width="33.8" height="30" xmlns="http://www.w3.org/2000/svg"><style>.dst0,.dst1{fill:#f78f24;stroke:#fff;stroke-width:2;stroke-miterlimit:10}.dst1{fill:#fff;stroke-width:.25}</style><path class="dst0" d="M32.6 27.3L17.9 1.5c-.2-.3-.6-.6-1-.6s-.8.2-1 .6L1.2 27.3c-.2.3-.2.8 0 1.1.2.3.6.5 1 .5h29.3c.4 0 .8-.2 1-.5.3-.3.3-.8.1-1.1z"/><path class="dst1" d="M15.1 22.2h3.6v3.3h-3.6zM15.1 9.8h3.6v9.9h-3.6z"/></svg></svg>