<?xml version="1.0" encoding="utf-8"?><svg width="149" height="95" viewBox="0 0 149 95" xmlns="http://www.w3.org/2000/svg" xmlns:xlink="http://www.w3.org/1999/xlink"><svg id="error" viewBox="0 0 48 48" width="48" height="48" y="47" xmlns="http://www.w3.org/2000/svg"><style>.ast0{fill:#cc1f36;stroke:#fff;stroke-width:4;stroke-miterlimit:10}.ast1{fill:#fff}</style><path class="ast0" d="M24 2C11.9 2 2 11.9 2 24s9.9 22 22 22 22-9.9 22-22S36.1 2 24 2z"/><path class="ast1" d="M32.7 33.6c-.9.9-2.5.9-3.4 0l-5.3-6-5.3 6c-.9.9-2.5.9-3.4 0-.9-.9-.9-2.5 0-3.4l5.5-6.3-5.5-6.3c-.9-.9-.9-2.5 0-3.4.9-.9 2.5-.9 3.4 0l5.3 6 5.3-6c.9-.9 2.5-.9 3.4 0 .9.9.9 2.5 0 3.4L27.1 24l5.5 6.3c1 .9 1 2.4.1 3.3z"/></svg><svg id="info" viewBox="0 0 48 48" width="48" height="48" x="53" xmlns="http://www.w3.org/2000/svg"><style>.bst0{fill:#3ea9df;stroke:#fff;stroke-width:4;stroke-miterlimit:10}.bst1{fill:#fff}</style><path class="bst0" d="M24 2C11.9 2 2 11.9 2 24s9.9 22 22 22 22-9.9 22-22S36.1 2 24 2z"/><path class="bst1" d="M26.3 10c2.1 0 2.8 1.3 2.8 2.7 0 1.8-1.4 3.5-3.9 3.5-2.1 0-3-1-3-2.7 0-1.5 1.2-3.5 4.1-3.5zM20.7 37.5c-1.5 0-2.6-.9-1.5-4.8l1.7-7c.3-1.1.3-1.6 0-1.6-.4 0-2.4.8-3.5 1.5l-.8-1.2c3.6-3 7.7-4.8 9.5-4.8 1.5 0 1.7 1.8 1 4.5l-1.9 7.4c-.3 1.3-.2 1.8.1 1.8.4 0 1.9-.6 3.3-1.6l.8 1.1c-3.4 3.4-7.2 4.7-8.7 4.7z"/></svg><svg id="success" viewBox="0 0 48 48" width="48" height="48" x="101" xmlns="http://www.w3.org/2000/svg"><style>.cst0{fill:#1e9346;stroke:#fff;stroke-width:4;stroke-miterlimit:10}.cst1{fill:#fff}</style><path class="cst0" d="M24 2C11.9 2 2 11.9 2 24s9.9 22 22 22 22-9.9 22-22S36.1 2 24 2z"/><path class="cst1" d="M33.6 16.8L23.2 33.4c-.4.6-1 .9-1.7 1h-.1c-.6 0-1.3-.3-1.6-.8l-5.3-7c-.7-.9-.5-2.2.4-2.9.9-.7 2.2-.5 2.9.4l3.5 4.6L30 14.5c.6-.9 1.9-1.3 2.8-.7 1.1.7 1.4 2 .8 3z"/></svg><svg id="warning" viewBox="0 0 53 47" width="53" height="47" xmlns="http://www.w3.org/2000/svg"><style>.dst0,.dst1{fill:#f78f24;stroke:#fff;stroke-width:4;stroke-miterlimit:10}.dst1{fill:#fff;stroke-width:.25}</style><path class="dst0" d="M50.3 42.2L28 3.1c-.3-.5-.9-.9-1.5-.9s-1.2.3-1.5.9L2.7 42.2c-.3.5-.3 1.2 0 1.7s.9.8 1.5.8h44.5c.6 0 1.2-.3 1.5-.8.4-.5.4-1.2.1-1.7z"/><path class="dst1" d="M23.8 34.4h5.5v5h-5.5zM23.8 15.6h5.5v15h-5.5z"/></svg></svg>