<?xml version="1.0" encoding="utf-8"?><svg width="274" height="180" viewBox="0 0 274 180" xmlns="http://www.w3.org/2000/svg" xmlns:xlink="http://www.w3.org/1999/xlink"><svg id="faster" viewBox="0 0 137 90" width="137" height="90" xmlns="http://www.w3.org/2000/svg"><style>.ast0{opacity:.2}.ast1{fill:#394348}.st2{fill:none;stroke:#394348;stroke-width:2;stroke-linecap:round;stroke-miterlimit:10}.ast3{fill:#e9515a}</style><g class="ast0"><path class="ast1" d="M120.7 45.3h-20.4c-.5 0-.8-.4-.8-.8s.4-.8.8-.8h20.4c.5 0 .8.4.8.8s-.4.8-.8.8z"/></g><g class="ast0"><path class="ast1" d="M110.5 50.4H97.8c-.5 0-.8-.4-.8-.8s.4-.8.8-.8h12.7c.5 0 .8.4.8.8s-.3.8-.8.8z"/></g><g class="ast0"><path class="ast1" d="M130 50.4h-13.6c-.5 0-.8-.4-.8-.8s.4-.8.8-.8H130c.5 0 .8.4.8.8s-.3.8-.8.8z"/></g><g class="ast0"><path class="ast1" d="M19.7 61.4H7c-.5 0-.8-.4-.8-.8s.4-.8.8-.8h12.7c.5 0 .8.4.8.8s-.3.8-.8.8z"/></g><g class="ast0"><path class="ast1" d="M46 61.4H25.7c-.5 0-.8-.4-.8-.8s.4-.8.8-.8H46c.5 0 .8.4.8.8s-.3.8-.8.8z"/></g><g class="ast0"><path class="ast1" d="M33.3 56.3H17.2c-.5 0-.8-.4-.8-.8s.4-.8.8-.8h16.1c.5 0 .8.4.8.8s-.3.8-.8.8z"/></g><g id="aXMLID_9_" class="ast0"><path class="ast1" d="M60.7 30.3H44.3c-4.4 0-8-3.4-8-7.5 0-4.2 3.7-7.6 8.2-7.5.4-3.7 3.8-6.7 8-6.7 4.1 0 7.5 2.9 8 6.7h.2c4.4 0 8 3.4 8 7.5s-3.6 7.5-8 7.5zM44.3 17c-3.5 0-6.3 2.6-6.3 5.8s2.8 5.8 6.3 5.8h16.4c3.5 0 6.3-2.6 6.3-5.8S64.2 17 60.7 17c-.3 0-.6 0-.9.1l-1 .1v-1.1c0-3.2-2.8-5.8-6.3-5.8s-6.3 2.6-6.3 5.8v1l-1-.1h-.9z"/></g><path class="ast3" d="M71.9 89.4h-.3c-.5-.1-.9-.4-1.1-.7l-8.7-13.4c-4.6 1.2-9.7-.2-13.2-3.7s-4.9-8.6-3.7-13.2l-13.4-8.7c-.4-.3-.7-.7-.7-1.1-.1-.5 0-.9.3-1.3S39 36.9 52 37.3c3.5-4.1 22.3-24.5 47.9-18.2.6.2 1.1.6 1.2 1.2 6.3 25.6-14.1 44.4-18.2 47.9.4 13-9.6 20.6-10 20.9-.3.2-.7.3-1 .3zm-9.4-17.9c.6 0 1.1.3 1.4.8l8.3 12.8c2.6-2.5 7.8-8.8 7.2-17.6 0-.6.2-1.1.7-1.5.2-.2 23.4-18.4 17.9-44-25.6-5.6-43.8 17.6-44 17.9-.3.5-.9.7-1.5.7-8.9-.6-15.2 4.7-17.6 7.2l12.8 8.3c.7.4.9 1.3.7 2-1.4 3.7-.4 8 2.5 10.9 2.9 2.9 7.2 3.9 10.9 2.5.3.1.5 0 .7 0z" id="aXMLID_13_"/><path class="ast3" d="M36.1 85.5c-.5 0-.9-.1-1.2-.3-1.4-1.4 2.1-9.4 3.7-11 2-2 5.3-2 7.3 0s2 5.3 0 7.3c-1.2 1.2-7.1 4-9.8 4zm6.2-11.1c-.9 0-1.8.3-2.4 1-1.4 1.4-3.4 6.8-3.5 8.4 1.6-.1 7-2.2 8.4-3.6 1.3-1.3 1.3-3.5 0-4.9-.8-.6-1.7-.9-2.5-.9zm-6.4 9.4z" id="aXMLID_12_"/><path class="ast3" d="M83.2 45.1c-2.2 0-4.3-.9-5.8-2.4-1.6-1.6-2.4-3.6-2.4-5.8 0-2.2.9-4.3 2.4-5.8 1.6-1.6 3.6-2.4 5.8-2.4 2.2 0 4.3.9 5.8 2.4 1.6 1.6 2.4 3.6 2.4 5.8 0 2.2-.9 4.3-2.4 5.8-1.5 1.6-3.6 2.4-5.8 2.4zm0-14.8c-1.8 0-3.4.7-4.6 1.9-1.2 1.2-1.9 2.9-1.9 4.6 0 1.8.7 3.4 1.9 4.6 1.2 1.2 2.9 1.9 4.6 1.9 1.8 0 3.4-.7 4.6-1.9 1.2-1.2 1.9-2.9 1.9-4.6 0-1.8-.7-3.4-1.9-4.6-1.2-1.2-2.9-1.9-4.6-1.9z" id="aXMLID_11_"/><g class="ast0"><path class="ast1" d="M106.3 72.5H94.4c-.5 0-.8-.4-.8-.8 0-.5.4-.8.8-.8h11.9c.5 0 .8.4.8.8s-.4.8-.8.8z"/></g><g class="ast0"><path class="ast1" d="M106.5 5l1.8 1.1c.2.2.6.2.9 0 .2-.2.2-.6 0-.9L108 3.5l1.1-1.8c.2-.2.2-.6 0-.9-.2-.2-.6-.2-.9 0l-1.8 1-1.8-1c-.2-.2-.6-.2-.9 0-.1.1-.2.3-.2.4 0 .2.1.3.2.4l1.2 1.8-1.2 1.8c-.1.1-.2.3-.2.4 0 .2.1.3.2.4.2.2.6.2.9 0l1.9-1z"/></g><g class="ast0"><path class="ast1" d="M21.6 30.5l.5 2c0 .3.3.6.6.6s.6-.3.6-.6l.5-2 2-.5c.3 0 .6-.3.6-.6s-.3-.6-.6-.6l-2-.5-.5-2c0-.3-.3-.6-.6-.6-.2 0-.3.1-.4.2-.1.1-.2.3-.2.4l-.4 2.1-2.1.4c-.2 0-.3.1-.4.2-.2.1-.2.3-.2.5 0 .3.3.6.6.6l2 .4z"/></g><g class="ast0"><path class="ast1" d="M103.1 61.1l.3 1.4c0 .2.2.4.4.4s.4-.2.4-.4l.3-1.4 1.4-.3c.2 0 .4-.2.4-.4s-.2-.4-.4-.4l-1.4-.4-.4-1.4c0-.2-.2-.4-.4-.4-.1 0-.2 0-.3.1-.1.1-.1.2-.1.3l-.3 1.4-1.5.3c-.1 0-.2 0-.3.1s-.1.2-.1.3c0 .2.2.4.4.4l1.6.4z"/></g></svg><svg id="fibre" viewBox="0 0 137 90" width="137" height="90" x="137" xmlns="http://www.w3.org/2000/svg"><style>.bst0{fill:#d7d9da}.bst1{fill:#1e4e9b}</style><path class="bst0" d="M22.6 43.7h7M29.6 44.6h-7.1c-.5 0-.9-.4-.9-.9s.4-.9.9-.9h7.1c.5 0 .9.4.9.9s-.4.9-.9.9zM26.1 57.8H1.3M26.1 58.7H1.3c-.5 0-.9-.4-.9-.9s.4-.9.9-.9h24.8c.5 0 .9.4.9.9s-.4.9-.9.9zM128.7 45.5h-3.6M128.7 46.4h-3.5c-.5 0-.9-.4-.9-.9s.4-.9.9-.9h3.5c.5 0 .9.4.9.9s-.4.9-.9.9zM9.3 63.1h16.8M26.1 64H9.3c-.5 0-.9-.4-.9-.9s.4-.9.9-.9h16.8c.5 0 .9.4.9.9s-.4.9-.9.9zM120.7 45.5h-12.4M120.7 46.4h-12.4c-.5 0-.9-.4-.9-.9s.4-.9.9-.9h12.4c.5 0 .9.4.9.9s-.4.9-.9.9zM126.9 49.9h-14.1M126.9 50.8h-14.1c-.5 0-.9-.4-.9-.9s.4-.9.9-.9h14.1c.5 0 .9.4.9.9s-.4.9-.9.9z"/><path class="bst1" d="M91.5 76.7H45.8c-12 0-21.7-9.1-21.7-20.3 0-11.2 9.8-20.3 21.7-20.3H47c1-10.5 10.3-18.6 21.7-18.6 11.4 0 20.7 8.2 21.7 18.6h1.2c12 0 21.7 9.1 21.7 20.3 0 11.1-9.8 20.3-21.8 20.3zM45.8 39.5c-10 0-18.2 7.5-18.2 16.8s8.2 16.8 18.2 16.8h45.7c10 0 18.2-7.5 18.2-16.8s-8.2-16.8-18.2-16.8c-.8 0-1.6.1-2.7.2l-2 .3v-2-.2c0-9.2-8.2-16.8-18.2-16.8s-18.2 7.5-18.2 16.8V40.1l-2.1-.3c-.8-.2-1.7-.3-2.5-.3z" id="bXMLID_76_"/><path class="bst1" d="M81.7 48.3c-.5 0-.9-.2-1.3-.5-3.2-2.9-7.4-4.4-11.7-4.4-4.3 0-8.5 1.6-11.7 4.4-.8.7-2 .6-2.7-.2-.7-.8-.6-2 .2-2.7 3.9-3.5 9-5.4 14.2-5.4 5.2 0 10.3 1.9 14.2 5.4.8.7.9 1.9.2 2.7-.4.4-.9.7-1.4.7z" id="bXMLID_75_"/><path class="bst1" d="M76.1 56.4c-.5 0-.9-.2-1.3-.5-1.7-1.5-3.9-2.3-6.2-2.3s-4.5.8-6.2 2.3c-.8.7-2 .6-2.7-.2-.7-.8-.6-2 .2-2.7 2.4-2.1 5.5-3.3 8.7-3.3s6.3 1.2 8.7 3.3c.8.7.9 1.9.2 2.7-.3.5-.8.7-1.4.7z" id="bXMLID_74_"/><ellipse class="bst1" cx="68.7" cy="61.9" rx="2.9" ry="2.9" id="bXMLID_73_"/><path class="bst0" d="M26.3 27.1l1.4-.3c.2 0 .4-.2.4-.4s-.2-.4-.4-.4l-1.4-.3-.3-1.5c0-.2-.2-.4-.4-.4s-.4.2-.4.4l-.4 1.4-1.4.4c-.2 0-.4.2-.4.4 0 .1 0 .2.1.3.1.1.2.1.3.1l1.5.3.3 1.5c0 .1 0 .2.1.3.1.1.2.1.3.1.2 0 .4-.2.4-.4l.3-1.5z"/><g><path class="bst0" d="M124.5 72.5l1.2.8c.2.2.5.2.6 0 .2-.2.2-.5 0-.6l-.8-1.2.8-1.2c.2-.2.2-.5 0-.6-.2-.2-.5-.2-.6 0l-1.2.7-1.2-.7c-.2-.2-.5-.2-.6 0-.1.1-.1.2-.1.3 0 .1 0 .2.1.3l.9 1.2-.9 1.2c-.1.1-.1.2-.1.3 0 .1 0 .2.1.3.2.2.5.2.6 0l1.2-.8z"/></g><g><path class="bst0" d="M96.8 5.8l2.3-.5c.4 0 .7-.3.7-.7 0-.4-.3-.7-.7-.7l-2.3-.5-.5-2.2c0-.4-.3-.7-.7-.7-.4 0-.7.3-.7.7l-.6 2.2-2.2.6c-.4 0-.7.3-.7.7 0 .2.1.4.2.5.1.1.3.2.5.2l2.3.4.5 2.2c0 .2.1.4.2.5.1.1.3.2.5.2.4 0 .7-.3.7-.7l.5-2.2z"/></g><g><path class="bst0" d="M36.1 86.6l2.3-.5c.4 0 .7-.3.7-.7 0-.4-.3-.7-.7-.7l-2.3-.5-.5-2.2c0-.4-.3-.7-.7-.7-.4 0-.7.3-.7.7l-.6 2.2-2.2.6c-.4 0-.7.3-.7.7 0 .2.1.4.2.5s.3.2.5.2l2.3.4.4 2.3c0 .2.1.4.2.5.1.1.3.2.5.2.4 0 .7-.3.7-.7l.6-2.3z"/></g><g id="bXMLID_72_"><path class="bst0" d="M53.1 7.3c-.2 0-.3-.1-.5-.2-1.2-1-2.6-1.6-4.2-1.6-1.5 0-3 .6-4.2 1.6-.3.3-.7.2-1-.1-.3-.3-.2-.7.1-1 1.4-1.2 3.2-1.9 5.1-1.9s3.7.7 5.1 1.9c.3.3.3.7.1 1-.1.3-.3.3-.5.3z"/></g><g id="bXMLID_71_"><path class="bst0" d="M51.2 10.2c-.2 0-.3-.1-.5-.2-.6-.5-1.4-.8-2.2-.8s-1.6.3-2.2.8c-.3.3-.7.2-1-.1-.3-.3-.2-.7.1-1 .9-.8 2-1.2 3.1-1.2s2.3.4 3.1 1.2c.3.3.3.7.1 1-.2.3-.4.3-.5.3z"/></g><g id="bXMLID_70_"><ellipse class="bst0" cx="48.5" cy="12.2" rx="1" ry="1"/></g></svg><svg id="ufo" viewBox="0 0 137 90" width="137" height="90" y="90" xmlns="http://www.w3.org/2000/svg"><style>.cst0{opacity:.2}.cst1{fill:#394348}.st2{fill:none;stroke:#394348;stroke-width:2;stroke-linecap:round;stroke-miterlimit:10}.cst3{fill:#7e3b94}</style><g class="cst0"><path class="cst1" d="M120.7 49.7h-20.4c-.5 0-.8-.4-.8-.8 0-.5.4-.8.8-.8h20.4c.5 0 .8.4.8.8s-.4.8-.8.8z"/></g><g class="cst0"><path class="cst1" d="M130 54.8h-13.6c-.5 0-.8-.4-.8-.8s.4-.8.8-.8H130c.5 0 .8.4.8.8s-.3.8-.8.8z"/></g><g class="cst0"><path class="cst1" d="M19.7 65.8H7c-.5 0-.8-.4-.8-.8s.4-.8.8-.8h12.7c.5 0 .8.4.8.8s-.3.8-.8.8z"/></g><g class="cst0"><path class="cst1" d="M46 65.8H25.7c-.5 0-.8-.4-.8-.8s.4-.8.8-.8H46c.5 0 .8.4.8.8s-.3.8-.8.8z"/></g><g class="cst0"><path class="cst1" d="M28.6 60.7H12.5c-.5 0-.8-.4-.8-.8 0-.5.4-.8.8-.8h16.1c.5 0 .8.4.8.8.1.5-.3.8-.8.8z"/></g><g id="cXMLID_9_" class="cst0"><path class="cst1" d="M59.1 33.1H42.7c-4.4 0-8-3.4-8-7.5 0-4.2 3.7-7.6 8.2-7.5.4-3.7 3.8-6.7 8-6.7 4.1 0 7.5 2.9 8 6.7h.2c4.4 0 8 3.4 8 7.5s-3.6 7.5-8 7.5zM42.7 19.8c-3.5 0-6.3 2.6-6.3 5.8s2.8 5.8 6.3 5.8h16.4c3.5 0 6.3-2.6 6.3-5.8s-2.8-5.8-6.3-5.8c-.3 0-.6 0-.9.1l-1 .1v-1.1c0-3.2-2.8-5.8-6.3-5.8s-6.3 2.6-6.3 5.8v1l-1-.1h-.9z"/></g><g class="cst0"><path class="cst1" d="M106.3 81.9H94.4c-.5 0-.8-.4-.8-.8 0-.5.4-.8.8-.8h11.9c.5 0 .8.4.8.8s-.4.8-.8.8z"/></g><g class="cst0"><path class="cst1" d="M106.5 10.1l1.8 1.1c.2.2.6.2.9 0 .2-.2.2-.6 0-.9L108 8.6l1.1-1.8c.2-.2.2-.6 0-.9-.2-.2-.6-.2-.9 0l-1.8 1-1.8-1c-.2-.2-.6-.2-.9 0-.1.1-.2.3-.2.4 0 .2.1.3.2.4l1.2 1.8-1.2 1.8c-.1.1-.2.3-.2.4 0 .2.1.3.2.4.2.2.6.2.9 0l1.9-1z"/></g><g class="cst0"><path class="cst1" d="M21.6 38.7l.5 2c0 .3.3.6.6.6s.6-.3.6-.6l.5-2 2-.5c.3 0 .6-.3.6-.6s-.3-.6-.6-.6l-2-.5-.5-2c0-.3-.3-.6-.6-.6-.2 0-.3.1-.4.2-.1.1-.2.3-.2.4l-.4 2.1-2.1.4c-.2 0-.3.1-.4.2-.2.1-.2.2-.2.4 0 .3.3.6.6.6l2 .5z"/></g><g class="cst0"><path class="cst1" d="M103.1 71.7l.3 1.4c0 .2.2.4.4.4s.4-.2.4-.4l.3-1.4 1.4-.3c.2 0 .4-.2.4-.4s-.2-.4-.4-.4l-1.4-.4-.4-1.4c0-.2-.2-.4-.4-.4-.1 0-.2 0-.3.1-.1.1-.1.2-.1.3l-.3 1.4-1.5.3c-.1 0-.2 0-.3.1s-.1.2-.1.3c0 .2.2.4.4.4l1.6.4z"/></g><path class="cst3" d="M111.3 56c-4.2-7.1-12.8-13.3-23.6-16.9-.9-.9-1.7-1.8-2.6-2.7-3.7-4-7.9-8.6-16.6-8.6s-12.9 4.6-16.6 8.6c-.9 1-1.7 1.9-2.6 2.7-10.9 3.6-19.4 9.7-23.6 16.9-.7 1.2-.9 2.4-.6 3.5.6 1.7 2.2 2.6 3.4 3.2 2.1 1 6.8 2.7 14.7 4 .7.9 2.2 1.7 4 2 2.3.4 4.4.1 5.1-.9 3.1.3 6.5.5 10.3.6.7 1.4 3 2.5 5.8 2.5s5.1-1.1 5.8-2.5c3.8-.1 7.2-.3 10.3-.6.7.9 2.8 1.4 5.1.9 1.8-.4 3.3-1.2 4-2 8-1.3 12.6-3 14.7-4 1.2-.6 2.8-1.5 3.4-3.2.5-1.1.3-2.3-.4-3.5zm-42.8 8.5c-23.8 0-34.9-4-38-5.4 5.6.7 17.5 1.8 38 1.8s32.4-1.1 38-1.8c-3.1 1.4-14.2 5.4-38 5.4zm0-32.6c6.9 0 10 3.4 13.5 7.2.2.2.4.5.7.7C78 38.7 73.1 38 68.5 38s-9.5.7-14.2 1.8c.2-.2.4-.5.7-.7 3.6-3.8 6.6-7.2 13.5-7.2zM45.5 45c.1 0 .1 0 .1-.1.2-.1.3-.1.5-.2 7-2.9 15-4.6 22.4-4.6s15.4 1.7 22.4 4.6c.2.1.3.1.5.2.1 0 .1 0 .1.1 6.9 3.1 12.4 7.3 15.6 12-5.2.7-17.1 1.9-38.5 1.9S35.2 57.7 30 57c3.1-4.7 8.6-8.9 15.5-12z"/></svg></svg>