<?xml version="1.0" encoding="utf-8"?><svg width="396" height="295" viewBox="0 0 396 295" xmlns="http://www.w3.org/2000/svg" xmlns:xlink="http://www.w3.org/1999/xlink"><svg id="bills" viewBox="0 0 122 115" width="122" height="115" y="180" xmlns="http://www.w3.org/2000/svg"><style>.ast0{fill:#d7d9da}.ast1{fill:#1e4e9b}</style><path class="ast0" d="M19.4 72.6c0 .5.4.9.9.9h14.6c.5 0 .9-.4.9-.9s-.4-.9-.9-.9H20.3c-.5.1-.9.5-.9.9zM35.8 39.9c0-.5-.4-.9-.9-.9H20.3c-.5 0-.9.4-.9.9s.4.9.9.9h14.6c.5 0 .9-.4.9-.9zM27.2 45.1c-.5 0-.9.4-.9.9s.4.9.9.9h8.6c.5 0 .9-.4.9-.9s-.4-.9-.9-.9h-8.6zM97.7 74.4H83.1c-.5 0-.9.4-.9.9s.4.9.9.9h14.6c.5 0 .9-.4.9-.9s-.4-.9-.9-.9zM97.7 68.3H82.2c-.5 0-.9.4-.9.9s.4.9.9.9h15.5c.5 0 .9-.4.9-.9s-.4-.9-.9-.9zM104.4 68.3H101c-.5 0-.9.4-.9.9s.4.9.9.9h3.4c.5 0 .9-.4.9-.9s-.4-.9-.9-.9zM90.2 44.8c-.2-.2-.4-.2-.6 0s-.2.4 0 .6l.7 1.2-.7 1.2c-.2.2-.2.4 0 .6.1.1.2.1.3.1.1 0 .2 0 .3-.1l1.2-.8 1.2.8c.1.1.2.1.3.1.1 0 .2 0 .3-.1.2-.2.2-.4 0-.6l-.7-1.2.7-1.2c.2-.2.2-.4 0-.6-.2-.2-.4-.2-.6 0l-1.2.7-1.2-.7zM26.2 92.1l-2.2-.5-.5-2.2c0-.4-.3-.7-.7-.7-.4 0-.7.3-.7.7l-.6 2.1-2.1.6c-.4 0-.7.3-.7.7 0 .2.1.4.2.5s.3.2.5.2l2.3.4.4 2.3c0 .2.1.4.2.5s.3.2.5.2c.4 0 .7-.3.7-.7L24 94l2.2-.5c.4 0 .7-.3.7-.7-.1-.4-.4-.7-.7-.7zM27.4 10l1.4.3.3 1.4c0 .1 0 .2.1.3s.2.1.3.1c.2 0 .4-.2.4-.4l.3-1.4 1.4-.3c.2 0 .4-.2.4-.4s-.2-.4-.4-.4l-1.4-.3-.3-1.4c0-.2-.2-.4-.4-.4s-.4.2-.4.4l-.4 1.3-1.3.3c-.2 0-.4.2-.4.4 0 .1 0 .2.1.3.1.1.2.2.3.2zM84.9 16.8l2.3.4.4 2.3c0 .2.1.4.2.5s.3.2.5.2c.4 0 .7-.3.7-.7l.5-2.2 2.2-.5c.4 0 .7-.3.7-.7 0-.4-.3-.7-.7-.7l-2.2-.5-.5-2.2c0-.4-.3-.7-.7-.7s-.7.3-.7.7l-.6 2.1-2.1.6c-.4 0-.7.3-.7.7 0 .2.1.4.2.5.2.1.3.2.5.2z"/><path class="ast1" d="M68.8 22H42.6c-4.4 0-7.9 3.9-7.9 8.3v54c0 4.4 3.6 7.5 7.9 7.5H78c4.4 0 7.9-3.1 7.9-7.5V39.6L68.8 22zm12.5 62.3c0 1.8-1.5 2.9-3.3 2.9H42.6c-1.8 0-3.3-1.1-3.3-2.9v-54c0-1.8 1.5-3.7 3.3-3.7h25.8V32c0 7.6.9 7.4 7.8 7.4h5v44.9h.1z"/><path class="ast1" d="M73.9 66.9H46.8c-1 0-1.7 1-1.7 2.2s.8 2.2 1.7 2.2h27.1c1 0 1.7-1 1.7-2.2.1-1.3-.7-2.2-1.7-2.2zm0-10.4H46.8c-1 0-1.7 1-1.7 2.2s.8 2.2 1.7 2.2h27.1c1 0 1.7-1 1.7-2.2.1-1.2-.7-2.2-1.7-2.2zm0 20.7H46.8c-1 0-1.7 1-1.7 2.2s.8 2.2 1.7 2.2h27.1c1 0 1.7-1 1.7-2.2.1-1.2-.7-2.2-1.7-2.2zm0-31H46.8c-1 0-1.7 1-1.7 2.2s.8 2.2 1.7 2.2h27.1c1 0 1.7-1 1.7-2.2.1-1.2-.7-2.2-1.7-2.2z"/></svg><svg id="fast_small" viewBox="0 0 70 70" width="70" height="70" x="137" y="90" xmlns="http://www.w3.org/2000/svg"><style>.bst0{fill:#1e4f9d}</style><path class="bst0" d="M41.5 43.2c-.5 0-.7-.2-1.2-.5-1.4-1.4-3.3-2.1-5.4-2.1-2.1 0-4 .7-5.4 2.1-.7.7-1.6.5-2.3-.2-.7-.7-.5-1.6.2-2.3 2.1-1.9 4.7-2.8 7.5-2.8s5.4.9 7.5 2.8c.7.7.7 1.6.2 2.3-.2.5-.7.7-1.1.7zm-17.8-7c-.5 0-.9-.2-1.2-.5-.7-.7-.5-1.6.2-2.3 3.5-3 7.7-4.7 12.4-4.7 4.4 0 8.9 1.6 12.4 4.7.7.7.7 1.6.2 2.3-.7.7-1.6.7-2.3.2-2.8-2.6-6.3-3.7-10-3.7s-7.2 1.4-10 3.7c-1 .1-1.2.3-1.7.3zm13.8 11.9c0 1.4-1.2 2.6-2.6 2.6s-2.6-1.2-2.6-2.6c0-1.4 1.2-2.6 2.6-2.6s2.6 1.2 2.6 2.6m15.2 10.3H17.2C7.6 58.4-.1 51.2-.1 42.3s7.7-16.1 17.3-16.1h.7c.7-8.2 8.2-14.5 17-14.5S51.3 18 52 26.2h.7c9.6 0 17.3 7.2 17.3 16.1s-7.8 16.1-17.3 16.1zm-35.5-29c-7.7 0-14 5.8-14 12.8S9.5 55 17.2 55h35.7c7.7 0 14-5.8 14-12.8s-6.3-12.8-14-12.8c-.7 0-1.2 0-2.1.2l-1.9.2v-2.1c0-7-6.3-12.8-14-12.8s-14 5.8-14 12.8V29.9l-1.9-.2c-.6-.3-1.3-.3-1.8-.3z"/></svg><svg id="faster" viewBox="0 0 137 90" width="137" height="90" xmlns="http://www.w3.org/2000/svg"><style>.cst0{opacity:.2;fill:#394348;enable-background:new}.cst1{fill:#ea515a}</style><g id="cLayer_2_2_"><path class="cst0" d="M100.3 45.3h20.3c.5 0 .9-.4.9-.9s-.4-.9-.9-.9h-20.3c-.5 0-.9.4-.9.9s.5.9.9.9zM110.5 48.7H97.8c-.5 0-.9.4-.9.9s.4.9.9.9h12.7c.5 0 .9-.4.9-.9s-.4-.9-.9-.9zM130 48.7h-13.6c-.5 0-.9.4-.9.9s.4.9.9.9H130c.5 0 .9-.4.9-.9s-.4-.9-.9-.9zM19.9 59.7H7.2c-.5 0-.9.4-.9.9s.4.9.9.9h12.7c.5 0 .9-.4.9-.9s-.5-.9-.9-.9zM46.1 59.7H25.8c-.5 0-.9.4-.9.9s.4.9.9.9h20.3c.5 0 .9-.4.9-.9s-.4-.9-.9-.9zM17.3 56.3h16.1c.5 0 .9-.4.9-.9s-.4-.9-.9-.9H17.3c-.5 0-.9.4-.9.9.1.6.4.9.9.9zM60.8 15.4h-.2c-.4-3.8-3.8-6.7-7.9-6.7-4.1 0-7.5 2.9-7.9 6.7h-.2c-4.4 0-8 3.4-8 7.5s3.6 7.5 8 7.5H61c4.4 0 8-3.4 8-7.5s-3.8-7.5-8.2-7.5zm0 13.3H44.4c-3.5 0-6.3-2.6-6.3-5.8s2.8-5.8 6.3-5.8c.3 0 .6 0 .9.1h1v-1c0-3.2 2.8-5.8 6.3-5.8s6.3 2.6 6.3 5.8v1.1l1-.1c.3 0 .6-.1.9-.1 3.5 0 6.3 2.6 6.3 5.8s-2.9 5.8-6.3 5.8zM106.3 70.7H94.4c-.5 0-.9.4-.9.9s.4.9.9.9h11.9c.5 0 .9-.4.9-.9s-.5-.9-.9-.9zM105 3.5l-1.2 1.8c-.1.1-.2.3-.2.4s.1.3.2.4c.2.2.6.2.9 0l1.8-1.1 1.8 1.1c.2.2.6.2.9 0 .2-.2.2-.6 0-.9L108 3.5l1.1-1.8c.2-.2.2-.6 0-.9-.2-.2-.6-.2-.9 0l-1.8 1-1.8-1c-.2-.2-.6-.2-.9 0-.1.1-.2.3-.2.4 0 .2.1.3.2.4l1.3 1.9zM19.7 30.1l2.1.5.5 2c0 .3.3.6.6.6s.6-.3.6-.6l.4-2 2-.5c.3 0 .6-.3.6-.6s-.3-.6-.6-.6l-2-.5-.5-2c0-.3-.3-.6-.6-.6-.2 0-.3.1-.4.2-.1.1-.2.3-.2.4l-.4 2.1-2.1.4c-.2 0-.3.1-.4.2-.1.1-.2.3-.2.4 0 .4.3.6.6.6zM103.1 61.1l.3 1.4c0 .2.2.4.4.4s.4-.2.4-.4l.3-1.4 1.4-.3c.2 0 .4-.2.4-.4s-.2-.4-.4-.4l-1.3-.4-.4-1.3c0-.2-.2-.4-.4-.4-.1 0-.2 0-.3.1-.1.1-.1.2-.1.3l-.3 1.4-1.4.3c-.1 0-.2 0-.3.1-.1.1-.1.2-.1.3 0 .2.2.4.4.4l1.4.3z"/></g><g id="cLayer_1_2_"><path class="cst1" d="M101.1 20.3c-.1-.6-.6-1.1-1.3-1.3C74.2 12.7 55.5 33 52 37.1c-13-.4-20.6 9.6-20.9 10-.3.4-.4.9-.3 1.3.1.5.3.9.7 1.1l13.4 8.7c-1.2 4.6.2 9.7 3.7 13.2s8.6 4.9 13.2 3.7l8.7 13.4c.2.4.7.7 1.1.7h.3c.4 0 .7-.1 1-.3.4-.3 10.4-7.9 10-20.9 4.2-3.4 24.5-22.1 18.2-47.7zM80.2 66c-.4.3-.7.9-.7 1.4.6 8.9-4.7 15.1-7.2 17.6L64 72.3c-.3-.5-.9-.8-1.4-.8-.2 0-.4 0-.6.1-3.7 1.4-8 .4-10.9-2.5-2.9-2.9-3.9-7.2-2.5-10.9.3-.7 0-1.6-.7-2l-12.8-8.3c2.5-2.6 8.7-7.8 17.6-7.2.6 0 1.1-.2 1.4-.7.2-.2 18.3-23.4 43.9-17.8 5.6 25.5-17.6 43.6-17.8 43.8zM38.7 74.1c-1.5 1.5-5 9.6-3.7 10.9.2.2.6.3 1.2.3 2.7 0 8.6-2.8 9.8-4 2-2 2-5.3 0-7.3-2-1.9-5.3-1.9-7.3.1zm6.1 6.1c-1.4 1.4-6.8 3.4-8.4 3.6.2-1.7 2.2-7.1 3.5-8.4.7-.7 1.5-1 2.4-1 .9 0 1.8.3 2.4 1 1.4 1.3 1.4 3.5.1 4.8z"/><path class="cst1" d="M83.3 28.7c-2.2 0-4.3.9-5.8 2.4-1.6 1.5-2.4 3.6-2.4 5.8s.9 4.3 2.4 5.8 3.6 2.4 5.8 2.4 4.3-.9 5.8-2.4c3.2-3.2 3.2-8.4 0-11.6-1.6-1.6-3.7-2.4-5.8-2.4zm4.6 12.8c-1.2 1.2-2.9 1.9-4.6 1.9-1.7 0-3.4-.7-4.6-1.9-1.2-1.2-1.9-2.9-1.9-4.6 0-1.7.7-3.4 1.9-4.6 1.2-1.3 2.9-1.9 4.6-1.9 1.7 0 3.4.7 4.6 1.9 2.5 2.5 2.5 6.7 0 9.2z"/></g></svg><svg id="faster_small" viewBox="0 0 70 70" width="70" height="70" x="314" y="180" xmlns="http://www.w3.org/2000/svg"><style>.dst0{fill:#1e4f9d}</style><path class="dst0" d="M66.5 4.7c-.2-.5-.5-.9-1.2-1.2C42-2.1 25 16.3 21.7 20.1 9.8 19.6 3 28.7 2.6 29.2c0 .2-.2.7-.2 1.2s.2.7.7.9l12.1 7.9c-.9 4.2.2 8.9 3.5 12.1s7.7 4.4 11.9 3.5L38.5 67c.2.5.7.7.9.7h.2c.2 0 .7 0 .9-.2.5-.2 9.6-7.2 9.1-19.1C53.7 45 72.3 28 66.5 4.7zM47.4 46.4c-.5.2-.7.7-.7 1.4.5 8.2-4.2 13.8-6.5 16.1l-7.5-11.7c-.2-.5-.7-.7-1.4-.7h-.5c-3.3 1.2-7.2.2-10-2.3-2.6-2.6-3.5-6.5-2.3-10 .2-.7 0-1.4-.7-1.9L6.1 29.9c2.3-2.3 7.9-7.2 16.1-6.5.5 0 .9-.2 1.4-.7.2-.2 16.6-21.2 39.9-16.3 5.3 23.2-15.9 39.8-16.1 40zm-32.7 8.2c-1.9-1.9-4.9-1.9-6.5 0-1.4 1.4-4.7 8.6-3.3 10 .2.2.5.2 1.2.2 2.6 0 7.7-2.6 8.9-3.7.9-.9 1.4-2.1 1.4-3.3-.3-1.3-.8-2.5-1.7-3.2zM13.5 60c-1.2 1.2-6.1 3-7.7 3.3.2-1.6 1.9-6.5 3.3-7.7.7-.7 1.4-.9 2.3-.9.7 0 1.6.2 2.3.9.7.7.9 1.4.9 2.3-.1.7-.4 1.6-1.1 2.1zm31.3-45.5c-2.8 2.8-2.8 7.7 0 10.7 1.4 1.4 3.5 2.1 5.4 2.1s3.7-.7 5.4-2.1c2.8-2.8 2.8-7.7 0-10.7-3.1-2.8-7.8-2.8-10.8 0zm9.6 9.5c-2.3 2.3-6.1 2.3-8.4 0-2.3-2.3-2.3-6.1 0-8.4 1.2-1.2 2.8-1.6 4.2-1.6 1.6 0 3 .5 4.2 1.6 2.3 2.4 2.3 6.1 0 8.4z"/></svg><svg id="fibre" viewBox="0 0 137 90" width="137" height="90" y="90" xmlns="http://www.w3.org/2000/svg"><style>.est0{fill:#d7d9da}.est1{fill:#1e4e9b}</style><path class="est0" d="M22.6 43.7h7M29.6 44.6h-7.1c-.5 0-.9-.4-.9-.9s.4-.9.9-.9h7.1c.5 0 .9.4.9.9s-.4.9-.9.9zM26.1 57.8H1.3M26.1 58.7H1.3c-.5 0-.9-.4-.9-.9s.4-.9.9-.9h24.8c.5 0 .9.4.9.9s-.4.9-.9.9zM128.7 45.5h-3.6M128.7 46.4h-3.5c-.5 0-.9-.4-.9-.9s.4-.9.9-.9h3.5c.5 0 .9.4.9.9s-.4.9-.9.9zM9.3 63.1h16.8M26.1 64H9.3c-.5 0-.9-.4-.9-.9s.4-.9.9-.9h16.8c.5 0 .9.4.9.9s-.4.9-.9.9zM120.7 45.5h-12.4M120.7 46.4h-12.4c-.5 0-.9-.4-.9-.9s.4-.9.9-.9h12.4c.5 0 .9.4.9.9s-.4.9-.9.9zM126.9 49.9h-14.1M126.9 50.8h-14.1c-.5 0-.9-.4-.9-.9s.4-.9.9-.9h14.1c.5 0 .9.4.9.9s-.4.9-.9.9z"/><path class="est1" d="M91.5 76.7H45.8c-12 0-21.7-9.1-21.7-20.3 0-11.2 9.8-20.3 21.7-20.3H47c1-10.5 10.3-18.6 21.7-18.6 11.4 0 20.7 8.2 21.7 18.6h1.2c12 0 21.7 9.1 21.7 20.3 0 11.1-9.8 20.3-21.8 20.3zM45.8 39.5c-10 0-18.2 7.5-18.2 16.8s8.2 16.8 18.2 16.8h45.7c10 0 18.2-7.5 18.2-16.8s-8.2-16.8-18.2-16.8c-.8 0-1.6.1-2.7.2l-2 .3v-2-.2c0-9.2-8.2-16.8-18.2-16.8s-18.2 7.5-18.2 16.8V40.1l-2.1-.3c-.8-.2-1.7-.3-2.5-.3z" id="eXMLID_76_"/><path class="est1" d="M81.7 48.3c-.5 0-.9-.2-1.3-.5-3.2-2.9-7.4-4.4-11.7-4.4-4.3 0-8.5 1.6-11.7 4.4-.8.7-2 .6-2.7-.2-.7-.8-.6-2 .2-2.7 3.9-3.5 9-5.4 14.2-5.4 5.2 0 10.3 1.9 14.2 5.4.8.7.9 1.9.2 2.7-.4.4-.9.7-1.4.7z" id="eXMLID_75_"/><path class="est1" d="M76.1 56.4c-.5 0-.9-.2-1.3-.5-1.7-1.5-3.9-2.3-6.2-2.3s-4.5.8-6.2 2.3c-.8.7-2 .6-2.7-.2-.7-.8-.6-2 .2-2.7 2.4-2.1 5.5-3.3 8.7-3.3s6.3 1.2 8.7 3.3c.8.7.9 1.9.2 2.7-.3.5-.8.7-1.4.7z" id="eXMLID_74_"/><ellipse class="est1" cx="68.7" cy="61.9" rx="2.9" ry="2.9" id="eXMLID_73_"/><path class="est0" d="M26.3 27.1l1.4-.3c.2 0 .4-.2.4-.4s-.2-.4-.4-.4l-1.4-.3-.3-1.5c0-.2-.2-.4-.4-.4s-.4.2-.4.4l-.4 1.4-1.4.4c-.2 0-.4.2-.4.4 0 .1 0 .2.1.3.1.1.2.1.3.1l1.5.3.3 1.5c0 .1 0 .2.1.3.1.1.2.1.3.1.2 0 .4-.2.4-.4l.3-1.5z"/><g><path class="est0" d="M124.5 72.5l1.2.8c.2.2.5.2.6 0 .2-.2.2-.5 0-.6l-.8-1.2.8-1.2c.2-.2.2-.5 0-.6-.2-.2-.5-.2-.6 0l-1.2.7-1.2-.7c-.2-.2-.5-.2-.6 0-.1.1-.1.2-.1.3 0 .1 0 .2.1.3l.9 1.2-.9 1.2c-.1.1-.1.2-.1.3 0 .1 0 .2.1.3.2.2.5.2.6 0l1.2-.8z"/></g><g><path class="est0" d="M96.8 5.8l2.3-.5c.4 0 .7-.3.7-.7 0-.4-.3-.7-.7-.7l-2.3-.5-.5-2.2c0-.4-.3-.7-.7-.7-.4 0-.7.3-.7.7l-.6 2.2-2.2.6c-.4 0-.7.3-.7.7 0 .2.1.4.2.5.1.1.3.2.5.2l2.3.4.5 2.2c0 .2.1.4.2.5.1.1.3.2.5.2.4 0 .7-.3.7-.7l.5-2.2z"/></g><g><path class="est0" d="M36.1 86.6l2.3-.5c.4 0 .7-.3.7-.7 0-.4-.3-.7-.7-.7l-2.3-.5-.5-2.2c0-.4-.3-.7-.7-.7-.4 0-.7.3-.7.7l-.6 2.2-2.2.6c-.4 0-.7.3-.7.7 0 .2.1.4.2.5s.3.2.5.2l2.3.4.4 2.3c0 .2.1.4.2.5.1.1.3.2.5.2.4 0 .7-.3.7-.7l.6-2.3z"/></g><g id="eXMLID_72_"><path class="est0" d="M53.1 7.3c-.2 0-.3-.1-.5-.2-1.2-1-2.6-1.6-4.2-1.6-1.5 0-3 .6-4.2 1.6-.3.3-.7.2-1-.1-.3-.3-.2-.7.1-1 1.4-1.2 3.2-1.9 5.1-1.9s3.7.7 5.1 1.9c.3.3.3.7.1 1-.1.3-.3.3-.5.3z"/></g><g id="eXMLID_71_"><path class="est0" d="M51.2 10.2c-.2 0-.3-.1-.5-.2-.6-.5-1.4-.8-2.2-.8s-1.6.3-2.2.8c-.3.3-.7.2-1-.1-.3-.3-.2-.7.1-1 .9-.8 2-1.2 3.1-1.2s2.3.4 3.1 1.2c.3.3.3.7.1 1-.2.3-.4.3-.5.3z"/></g><g id="eXMLID_70_"><ellipse class="est0" cx="48.5" cy="12.2" rx="1" ry="1"/></g></svg><svg id="help_small" viewBox="0 0 30 30" width="30" height="30" x="304" y="115" xmlns="http://www.w3.org/2000/svg"><style>.fst0{fill:#1e4f9d}</style><path class="fst0" d="M17.1 25.3c0 1.7-.9 2.5-2.6 2.5h-.7c-1.7 0-2.5-.8-2.5-2.5v-.5c0-1.7.8-2.5 2.5-2.5h.7c1.8 0 2.6.8 2.6 2.5v.5zm-.7-6.3c-.2.7-1 1-2.2 1-1.4 0-2.4-.6-2.3-1.9.2-6.5 6.7-5.5 6.7-8.8 0-1.7-1.3-2.8-3.6-2.8-3.2 0-4.7 2.2-5 4.4 0 .1-3.7.2-3.7-2.7C6.3 5.5 9.2 2 15.1 2c5.5 0 8.7 2.8 8.7 6.9 0 6.5-7.1 5.7-7.4 10.1z"/></svg><svg id="mobile" viewBox="0 0 122 115" width="122" height="115" x="274" xmlns="http://www.w3.org/2000/svg"><style>.gst0{opacity:.2;fill:#394348;enable-background:new}.gst1{fill:#7e3b94}</style><path class="gst0" d="M91.8 46.2h19.7c.5 0 .8-.4.8-.8 0-.5-.4-.8-.8-.8H91.8c-.5 0-.8.4-.8.8 0 .5.4.8.8.8zM101.7 49.5H89.4c-.5 0-.8.4-.8.8 0 .5.4.8.8.8h12.3c.5 0 .8-.4.8-.8s-.3-.8-.8-.8zM120.6 49.5h-13.2c-.5 0-.8.4-.8.8 0 .5.4.8.8.8h13.2c.5 0 .8-.4.8-.8s-.3-.8-.8-.8zM13.7 60.2H1.4c-.5 0-.8.4-.8.8 0 .5.4.8.8.8h12.3c.5 0 .8-.4.8-.8s-.3-.8-.8-.8zM39.2 60.2H19.5c-.5 0-.8.4-.8.8 0 .5.4.8.8.8h19.7c.5 0 .8-.4.8-.8s-.3-.8-.8-.8zM11.2 56.9h15.6c.5 0 .8-.4.8-.8 0-.5-.4-.8-.8-.8H11.2c-.5 0-.8.4-.8.8 0 .5.4.8.8.8zM104.5 12.3h-.2c-.4-3.6-3.7-6.5-7.7-6.5s-7.3 2.8-7.7 6.5h-.2c-4.3 0-7.8 3.3-7.8 7.3s3.5 7.3 7.8 7.3h15.9c4.3 0 7.8-3.3 7.8-7.3s-3.6-7.3-7.9-7.3zm0 12.9H88.6c-3.4 0-6.1-2.5-6.1-5.6s2.7-5.6 6.1-5.6c.3 0 .5 0 .9.1h.9v-1c0-3.1 2.7-5.6 6.1-5.6s6.1 2.5 6.1 5.6v1l1-.1c.3 0 .6-.1.9-.1 3.4 0 6.1 2.5 6.1 5.6s-2.8 5.7-6.1 5.7zM97.6 70.9H86.1c-.5 0-.8.4-.8.8s.4.8.8.8h11.5c.5 0 .8-.4.8-.8s-.3-.8-.8-.8zM47.7 5.7l-1.2 1.7c-.1.1-.2.3-.2.4s.1.3.2.4c.2.2.6.2.9 0l1.7-1.1 1.7 1.1c.2.2.6.2.9 0 .2-.2.2-.6 0-.9l-1.1-1.7 1.1-1.7c.2-.2.2-.6 0-.9-.2-.2-.6-.2-.9 0l-1.7 1-1.7-1c-.2-.2-.6-.2-.9 0-.1.1-.2.3-.2.4 0 .2.1.3.2.4l1.2 1.9zM13.6 31.5l2 .5.5 2c0 .3.3.6.6.6s.6-.3.6-.6l.4-2 2-.5c.3 0 .6-.3.6-.6s-.3-.6-.6-.6l-1.9-.5-.5-1.9c0-.3-.3-.6-.6-.6-.2 0-.3.1-.4.2s-.2.3-.2.4l-.4 2-2 .4c-.2 0-.3.1-.4.2-.3 0-.3.2-.3.3 0 .4.3.7.6.7zM94.5 61.6l.3 1.4c0 .2.2.4.4.4s.4-.2.4-.4l.3-1.4 1.4-.3c.2 0 .4-.2.4-.4s-.2-.4-.4-.4l-1.3-.4-.4-1.3c0-.2-.2-.4-.4-.4-.1 0-.2 0-.3.1-.1.1-.1.2-.1.3l-.3 1.4-1.4.3c-.1 0-.2 0-.3.1-.1.1-.1.2-.1.3 0 .2.2.4.4.4l1.4.3z"/><g><path class="gst1" d="M79.4 16.4H42.9c-3.2 0-5.6 2.4-5.6 5.6v65.3c0 3.2 2.4 5.9 5.6 5.9h36.5c3.2 0 5.8-2.7 5.8-5.9V22c-.1-3.2-2.6-5.6-5.8-5.6zm1.8 70.9c0 1.1-.9 2-1.9 2H42.9c-1 0-1.7-1-1.7-2V22c0-1.1.7-1.7 1.7-1.7h36.5c1.1 0 1.9.7 1.9 1.7v65.3h-.1z"/><path class="gst1" d="M61.2 71.6c-3.2 0-5.8 2.6-5.8 5.8 0 3.2 2.6 5.8 5.8 5.8s5.8-2.6 5.8-5.8c.1-3.2-2.6-5.8-5.8-5.8zm0 9.6c-2.1 0-3.8-1.7-3.8-3.8 0-2.1 1.7-3.8 3.8-3.8s3.8 1.7 3.8 3.8-1.7 3.8-3.8 3.8zM76.1 23.4H46.3c-.6 0-1 .5-1 1v42.3c0 .6.5 1 1 1h29.8c.6 0 1-.5 1-1V24.5c0-.6-.4-1.1-1-1.1zm-1 42.4H47.4V25.5h27.7v40.3z"/></g></svg><svg id="mobile_small" viewBox="0 0 70 70" width="70" height="70" x="244" y="180" xmlns="http://www.w3.org/2000/svg"><style>.hst0{fill:#7e3b94}</style><path class="hst0" d="M49.2 4.8H20.7c-2.5 0-4.4 1.9-4.4 4.4v51.1c0 2.5 1.9 4.6 4.4 4.6h28.6c2.5 0 4.5-2.1 4.5-4.6V9.2c-.1-2.4-2.1-4.4-4.6-4.4zm1.5 55.6c0 .8-.7 1.6-1.5 1.6H20.7c-.8 0-1.3-.8-1.3-1.6V9.2c0-.8.5-1.4 1.3-1.4h28.6c.8 0 1.5.6 1.5 1.4v51.2z"/><path class="hst0" d="M35 48c-2.5 0-4.6 2.1-4.6 4.6 0 2.5 2.1 4.6 4.6 4.6 2.5 0 4.6-2.1 4.6-4.6 0-2.5-2.1-4.6-4.6-4.6zm0 7.5c-1.6 0-2.9-1.3-2.9-2.9 0-1.6 1.3-2.9 2.9-2.9 1.6 0 2.9 1.3 2.9 2.9 0 1.6-1.3 2.9-2.9 2.9zM46.7 10.4H23.3c-.4 0-.8.4-.8.8v33.1c0 .4.4.8.8.8h23.3c.4 0 .8-.4.8-.8V11.2c.1-.5-.3-.8-.7-.8zm-.9 33.1H24.2V12h21.7v31.5z"/></svg><svg id="payment_small" viewBox="0 0 30 30" width="30" height="30" x="274" y="115" xmlns="http://www.w3.org/2000/svg"><style>.ist0{fill:#1e4f9d}</style><g id="iXMLID_12_"><path id="iXMLID_7_" class="ist0" d="M3.3 18.4h5.4v3.5H3.3z"/><path id="iXMLID_6_" class="ist0" d="M17.7 20.1h9v1.7h-9z"/><path id="iXMLID_13_" class="ist0" d="M27.5 5.1h-25C1.1 5.1 0 6.3 0 7.6v14.7c0 1.4 1.1 2.5 2.5 2.5h25c1.4 0 2.5-1.1 2.5-2.5V7.6c0-1.3-1.1-2.5-2.5-2.5zm-25 1.1h25c.8 0 1.4.6 1.4 1.4v1.7H1.1V7.6c0-.7.6-1.4 1.4-1.4zm25 17.6h-25c-.8 0-1.4-.6-1.4-1.4v-8.5h27.8v8.5c0 .7-.6 1.4-1.4 1.4z"/></g></svg><svg id="payments" viewBox="0 0 122 115" width="122" height="115" x="122" y="180" xmlns="http://www.w3.org/2000/svg"><style>.jst0{fill:#d7d9da}.jst1{fill:#ea515a}</style><path class="jst0" d="M26.2 60.8h-11c-.5 0-.9.4-.9.9s.4.9.9.9h11c.5 0 .9-.4.9-.9s-.3-.9-.9-.9zM110.1 68.5H97.3c-.5 0-.9.4-.9.9s.4.9.9.9h12.8c.5 0 .9-.4.9-.9s-.4-.9-.9-.9zM110.1 60.8H96.2c-.5 0-.9.4-.9.9s.4.9.9.9h13.9c.5 0 .9-.4.9-.9s-.4-.9-.9-.9zM120 60.8h-4.4c-.5 0-.9.4-.9.9s.4.9.9.9h4.4c.5 0 .9-.4.9-.9s-.4-.9-.9-.9zM11.7 61.7c0-.5-.4-.9-.9-.9H2c-.5 0-.9.4-.9.9s.4.9.9.9h8.8c.5 0 .9-.4.9-.9zM26.2 67.4H11.9c-.5 0-.9.4-.9.9s.4.9.9.9h14.3c.5 0 .9-.4.9-.9.1-.5-.3-.9-.9-.9zM44.9 18.5l-2-.5-.5-1.9c0-.3-.3-.6-.6-.6-.2 0-.3.1-.4.2-.1.1-.2.3-.2.4l-.4 2.1-2.1.4c-.2 0-.3.1-.4.2s-.3.2-.3.4c0 .3.3.6.6.6l2 .4.4 2c0 .3.3.6.6.6s.6-.3.6-.6l.5-2 2-.5c.3 0 .6-.3.6-.6.2-.3-.1-.6-.4-.6zM12.6 38.7c.2.2.6.2.8 0l1.5-1 1.5 1c.2.2.6.2.8 0 .2-.2.2-.6 0-.8l-.9-1.5.9-1.5c.2-.2.2-.6 0-.8-.1-.1-.2-.2-.4-.2-.1 0-.3.1-.4.2l-1.5 1-1.5-1c-.1-.1-.2-.2-.4-.2-.1 0-.3.1-.4.2-.2.2-.2.6 0 .8l1 1.5-1 1.5c-.3.2-.3.6 0 .8zM101.3 52.5c.2.2.6.2.8 0l1.5-1 1.5 1c.2.2.6.2.8 0 .2-.2.2-.6 0-.8l-.9-1.5.9-1.5c.2-.2.2-.6 0-.8-.1-.1-.2-.2-.4-.2-.1 0-.3.1-.4.2l-1.5 1-1.5-1c-.1-.1-.2-.2-.4-.2-.1 0-.3.1-.4.2-.2.2-.2.6 0 .8l1 1.5-1 1.5c-.2.2-.2.5 0 .8z"/><g><path class="jst1" d="M33.2 61.5H46v8.2H33.2zM67.4 65.6h21.3v4.1H67.4z"/><path class="jst1" d="M90.6 28.3H31.4c-4.3 0-7.7 3.5-7.7 7.7v34.9c0 4.3 3.5 7.7 7.7 7.7h59.3c4.3 0 7.7-3.5 7.7-7.7V36c0-4.3-3.5-7.7-7.8-7.7zm3.3 42.6c0 1.8-1.5 3.3-3.3 3.3H31.4c-1.8 0-3.3-1.5-3.3-3.3V50.8H94l-.1 20.1zm.1-30.8H28V36c0-1.8 1.5-3.3 3.3-3.3h59.3c1.8 0 3.3 1.5 3.3 3.3l.1 4.1z"/></g></svg><svg id="search_small" viewBox="0 0 30 30" width="30" height="30" x="334" y="115" xmlns="http://www.w3.org/2000/svg"><style>.kst0{fill:#1e4f9d}</style><path id="kXMLID_10_" class="kst0" d="M24.7 5.3c-4.1-4.1-10.9-4.1-15 0-3.6 3.6-4.1 9.2-1.4 13.4l-5.6 5.6c-.8.8-.8 2.2 0 3s2.2.8 3 0l5.6-5.6c4.1 2.7 9.7 2.3 13.4-1.4 4.2-4.1 4.2-10.9 0-15zm-3 12c-2.5 2.5-6.5 2.5-9 0s-2.5-6.5 0-9 6.5-2.5 9 0 2.5 6.5 0 9z"/></svg><svg id="ufo" viewBox="0 0 137 90" width="137" height="90" x="137" xmlns="http://www.w3.org/2000/svg"><style>.lst0{opacity:.2}.lst1{fill:#394348}.st2{fill:none;stroke:#394348;stroke-width:2;stroke-linecap:round;stroke-miterlimit:10}.lst3{fill:#7e3b94}</style><g class="lst0"><path class="lst1" d="M120.7 49.7h-20.4c-.5 0-.8-.4-.8-.8 0-.5.4-.8.8-.8h20.4c.5 0 .8.4.8.8s-.4.8-.8.8z"/></g><g class="lst0"><path class="lst1" d="M130 54.8h-13.6c-.5 0-.8-.4-.8-.8s.4-.8.8-.8H130c.5 0 .8.4.8.8s-.3.8-.8.8z"/></g><g class="lst0"><path class="lst1" d="M19.7 65.8H7c-.5 0-.8-.4-.8-.8s.4-.8.8-.8h12.7c.5 0 .8.4.8.8s-.3.8-.8.8z"/></g><g class="lst0"><path class="lst1" d="M46 65.8H25.7c-.5 0-.8-.4-.8-.8s.4-.8.8-.8H46c.5 0 .8.4.8.8s-.3.8-.8.8z"/></g><g class="lst0"><path class="lst1" d="M28.6 60.7H12.5c-.5 0-.8-.4-.8-.8 0-.5.4-.8.8-.8h16.1c.5 0 .8.4.8.8.1.5-.3.8-.8.8z"/></g><g id="lXMLID_9_" class="lst0"><path class="lst1" d="M59.1 33.1H42.7c-4.4 0-8-3.4-8-7.5 0-4.2 3.7-7.6 8.2-7.5.4-3.7 3.8-6.7 8-6.7 4.1 0 7.5 2.9 8 6.7h.2c4.4 0 8 3.4 8 7.5s-3.6 7.5-8 7.5zM42.7 19.8c-3.5 0-6.3 2.6-6.3 5.8s2.8 5.8 6.3 5.8h16.4c3.5 0 6.3-2.6 6.3-5.8s-2.8-5.8-6.3-5.8c-.3 0-.6 0-.9.1l-1 .1v-1.1c0-3.2-2.8-5.8-6.3-5.8s-6.3 2.6-6.3 5.8v1l-1-.1h-.9z"/></g><g class="lst0"><path class="lst1" d="M106.3 81.9H94.4c-.5 0-.8-.4-.8-.8 0-.5.4-.8.8-.8h11.9c.5 0 .8.4.8.8s-.4.8-.8.8z"/></g><g class="lst0"><path class="lst1" d="M106.5 10.1l1.8 1.1c.2.2.6.2.9 0 .2-.2.2-.6 0-.9L108 8.6l1.1-1.8c.2-.2.2-.6 0-.9-.2-.2-.6-.2-.9 0l-1.8 1-1.8-1c-.2-.2-.6-.2-.9 0-.1.1-.2.3-.2.4 0 .2.1.3.2.4l1.2 1.8-1.2 1.8c-.1.1-.2.3-.2.4 0 .2.1.3.2.4.2.2.6.2.9 0l1.9-1z"/></g><g class="lst0"><path class="lst1" d="M21.6 38.7l.5 2c0 .3.3.6.6.6s.6-.3.6-.6l.5-2 2-.5c.3 0 .6-.3.6-.6s-.3-.6-.6-.6l-2-.5-.5-2c0-.3-.3-.6-.6-.6-.2 0-.3.1-.4.2-.1.1-.2.3-.2.4l-.4 2.1-2.1.4c-.2 0-.3.1-.4.2-.2.1-.2.2-.2.4 0 .3.3.6.6.6l2 .5z"/></g><g class="lst0"><path class="lst1" d="M103.1 71.7l.3 1.4c0 .2.2.4.4.4s.4-.2.4-.4l.3-1.4 1.4-.3c.2 0 .4-.2.4-.4s-.2-.4-.4-.4l-1.4-.4-.4-1.4c0-.2-.2-.4-.4-.4-.1 0-.2 0-.3.1-.1.1-.1.2-.1.3l-.3 1.4-1.5.3c-.1 0-.2 0-.3.1s-.1.2-.1.3c0 .2.2.4.4.4l1.6.4z"/></g><path class="lst3" d="M111.3 56c-4.2-7.1-12.8-13.3-23.6-16.9-.9-.9-1.7-1.8-2.6-2.7-3.7-4-7.9-8.6-16.6-8.6s-12.9 4.6-16.6 8.6c-.9 1-1.7 1.9-2.6 2.7-10.9 3.6-19.4 9.7-23.6 16.9-.7 1.2-.9 2.4-.6 3.5.6 1.7 2.2 2.6 3.4 3.2 2.1 1 6.8 2.7 14.7 4 .7.9 2.2 1.7 4 2 2.3.4 4.4.1 5.1-.9 3.1.3 6.5.5 10.3.6.7 1.4 3 2.5 5.8 2.5s5.1-1.1 5.8-2.5c3.8-.1 7.2-.3 10.3-.6.7.9 2.8 1.4 5.1.9 1.8-.4 3.3-1.2 4-2 8-1.3 12.6-3 14.7-4 1.2-.6 2.8-1.5 3.4-3.2.5-1.1.3-2.3-.4-3.5zm-42.8 8.5c-23.8 0-34.9-4-38-5.4 5.6.7 17.5 1.8 38 1.8s32.4-1.1 38-1.8c-3.1 1.4-14.2 5.4-38 5.4zm0-32.6c6.9 0 10 3.4 13.5 7.2.2.2.4.5.7.7C78 38.7 73.1 38 68.5 38s-9.5.7-14.2 1.8c.2-.2.4-.5.7-.7 3.6-3.8 6.6-7.2 13.5-7.2zM45.5 45c.1 0 .1 0 .1-.1.2-.1.3-.1.5-.2 7-2.9 15-4.6 22.4-4.6s15.4 1.7 22.4 4.6c.2.1.3.1.5.2.1 0 .1 0 .1.1 6.9 3.1 12.4 7.3 15.6 12-5.2.7-17.1 1.9-38.5 1.9S35.2 57.7 30 57c3.1-4.7 8.6-8.9 15.5-12z"/></svg><svg id="ufo_small" viewBox="0 0 30 30" width="30" height="30" x="364" y="115" xmlns="http://www.w3.org/2000/svg"><style>.mst0{fill:#1e4f9d}</style><path class="mst0" d="M29.7 16.8c-1.4-2.5-4.4-4.6-8.1-5.8l-.9-.9c-1.3-1.4-2.7-3-5.7-3s-4.4 1.6-5.7 3l-.9.9c-3.7 1.2-6.7 3.3-8.1 5.8-.2.4-.3.8-.2 1.2.2.6.8.9 1.2 1.1.7.3 2.3.9 5.1 1.4.2.3.7.6 1.4.7.8.2 1.5 0 1.8-.3 1.1.1 2.2.2 3.5.2.2.5 1 .9 2 .9s1.8-.4 2-.9c1.3 0 2.5-.1 3.5-.2.2.3 1 .5 1.8.3.6-.1 1.1-.4 1.4-.7 2.7-.5 4.3-1 5.1-1.4.4-.2 1-.5 1.2-1.1 0-.3-.1-.7-.4-1.2zm-14.7 3c-8.2 0-12-1.4-13.1-1.9 1.9.2 6 .6 13.1.6s11.2-.4 13.1-.6c-1.1.5-4.9 1.9-13.1 1.9zm0-11.3c2.4 0 3.4 1.2 4.7 2.5l.2.2c-1.6-.4-3.3-.6-4.9-.6s-3.3.2-4.9.6l.2-.2c1.3-1.3 2.3-2.5 4.7-2.5zm-7.9 4.6c0-.1 0-.1 0 0 .1-.1.1-.1.2-.1 2.4-1 5.2-1.6 7.7-1.6s5.3.6 7.7 1.6c.1 0 .1 0 .2.1 2.4 1.1 4.3 2.5 5.4 4.1-1.8.2-5.9.6-13.3.6s-11.5-.4-13.3-.6c1.1-1.6 3-3.1 5.4-4.1z"/></svg></svg>