<?xml version="1.0" encoding="utf-8"?><svg width="413" height="308" viewBox="0 0 413 308" xmlns="http://www.w3.org/2000/svg" xmlns:xlink="http://www.w3.org/1999/xlink"><svg id="ufo-circle-fill-calling-features-desktop" viewBox="0 0 82 82" width="82" height="82" x="156" y="184" xmlns="http://www.w3.org/2000/svg"><style>.ast0{fill:url(#aSVGID_1_)}.ast1{fill:#fff}</style><linearGradient id="aSVGID_1_" gradientUnits="userSpaceOnUse" x1="41" y1="1" x2="41" y2="81"><stop offset="0" stop-color="#2d0a3c"/><stop offset=".226" stop-color="#300c40"/><stop offset=".435" stop-color="#3b124b"/><stop offset=".637" stop-color="#4c1d5e"/><stop offset=".835" stop-color="#632b78"/><stop offset="1" stop-color="#7d3b94"/></linearGradient><circle class="ast0" cx="41" cy="41" r="40"/><path class="ast1" d="M63.8 53.6v-2.4l-5.3-5.3c.1-.2.1-.4.1-.6 0-.9-.7-1.6-1.6-1.6-.6 0-1.1.3-1.4.8h-3l-1.7 1.7-.2.2c-.2-.1-.4-.1-.6-.1-.5 0-.9.2-1.2.6l-1.1-.3-4.6-1.4c0-.8-.7-1.5-1.6-1.5-.2 0-.4 0-.6.1L39.2 42c.2-.3.3-.6.3-.9 0-.9-.7-1.6-1.6-1.6h-.2l-1.2-4.3c.5-.4.9-1 .9-1.7 0-.5-.2-.9-.4-1.3l1.6-1.7v-3c.5-.3.9-.8.9-1.4 0-.9-.7-1.6-1.6-1.6-.2 0-.4 0-.6.1l-5.4-5.4h-2.4c-.3-.4-.7-.6-1.2-.6-.9 0-1.6.7-1.6 1.6v.1L22.8 24c-.2-.1-.3-.1-.5-.1-.9 0-1.6.7-1.6 1.6 0 .5.2 1 .6 1.3l-.6 5.2c-.6.2-1.1.8-1.1 1.5 0 .9.7 1.6 1.6 1.6l3.9 9.5c-.4.4-.6.9-.6 1.5 0 1.2 1 2.1 2.1 2.1.3 0 .6-.1.9-.2l8.3 8.3c-.1.2-.1.4-.1.6 0 .9.7 1.6 1.6 1.6.5 0 1-.3 1.3-.7l9.9 4.1c.1.8.8 1.4 1.6 1.4.7 0 1.3-.5 1.5-1.1l4.2-.5c.4.6 1 1 1.8 1 1.2 0 2.1-1 2.1-2.1 0-.3-.1-.6-.2-.9l3.2-3.2h.2c.9 0 1.6-.7 1.6-1.6-.1-.6-.3-1-.7-1.3zm-10.7-7.8h2.4c.2.6.8 1 1.5 1 .2 0 .4 0 .6-.1l4.9 4.9v1.6c-.7.2-1.2.8-1.2 1.6 0 .3.1.6.3.9l-.8.8-9.2-8.5v-.1c0-.2 0-.4-.1-.5l1.6-1.6zM36.3 25.5c-.1.2-.1.4-.1.6 0 .7.4 1.2 1 1.5V30l-1.4 1.4c-.2-.1-.4-.1-.6-.1-.2 0-.4 0-.6.1l-8.4-8.7 1.1-1.1c.3.2.6.3.9.3.8 0 1.4-.5 1.6-1.3h1.6l4.9 4.9zm-13.8 9.1c.2-.3.4-.6.4-1 0-.6-.3-1.1-.8-1.4l.6-5c.7-.1 1.3-.8 1.3-1.6 0-.2 0-.4-.1-.6l1.4-1.4 8.3 8.6c-.3.4-.4.8-.4 1.2 0 1.2 1 2.1 2.1 2.1l1.3 4.6c-.2.3-.3.5-.3.9 0 .9.7 1.6 1.6 1.6l2.2 2.2c-.1.2-.1.3-.1.5 0 .9.7 1.6 1.6 1.6.4 0 .8-.2 1.1-.4l5.9 1.8c.1.8.8 1.3 1.6 1.3.3 0 .7-.1.9-.3l8.8 8.3-1.2 1.2c-.3-.2-.6-.3-1-.3-1.1 0-2.1.9-2.1 2l-4.1.5c-.3-.4-.8-.7-1.3-.7s-.9.2-1.2.5l-10.1-4.1c-.2-.7-.8-1.2-1.5-1.2-.2 0-.3 0-.5.1l-8.3-8.3c.2-.3.3-.7.3-1 0-1.2-1-2.1-2.1-2.1h-.3l-4-9.6z"/></svg><svg id="ufo-circle-fill-calling-features-mobile" viewBox="0 0 42 42" width="42" height="42" x="331" y="206" xmlns="http://www.w3.org/2000/svg"><style>.bst0{fill:url(#bSVGID_1_)}.bst1{fill:#fff}</style><linearGradient id="bSVGID_1_" gradientUnits="userSpaceOnUse" x1="21" y1="41" x2="21" y2="1" gradientTransform="matrix(1 0 0 -1 0 42)"><stop offset="0" stop-color="#2d0a3c"/><stop offset=".226" stop-color="#300c40"/><stop offset=".435" stop-color="#3b124b"/><stop offset=".637" stop-color="#4c1d5e"/><stop offset=".835" stop-color="#632b78"/><stop offset="1" stop-color="#7d3b94"/></linearGradient><circle class="bst0" cx="21" cy="21" r="20"/><path class="bst1" d="M32.4 27.3v-1.2l-2.7-2.7c0-.1.1-.2.1-.3 0-.4-.4-.8-.8-.8-.3 0-.6.2-.7.4h-1.5l-.9.9-.1.1c-.1 0-.2-.1-.3-.1-.2 0-.5.1-.6.3l-.6-.2L22 23c0-.4-.4-.8-.8-.8-.1 0-.2 0-.3.1l-.9-.8c.1-.1.2-.3.2-.5 0-.4-.4-.8-.8-.8h-.1l-.6-2.2c.3-.2.4-.5.4-.9 0-.2-.1-.5-.2-.6l.8-.8v-1.5c.3-.1.4-.4.4-.7 0-.4-.4-.8-.8-.8-.1 0-.2 0-.3.1l-2.7-2.7h-1.2c-.1-.2-.4-.3-.6-.3-.4 0-.8.4-.8.8l-1.9 1.9h-.3c-.4 0-.8.4-.8.8 0 .3.1.5.3.6l-.3 2.6c-.3.1-.5.4-.5.8s.4.8.8.8l2 4.8c-.2.2-.3.5-.3.8 0 .6.5 1.1 1.1 1.1.2 0 .3 0 .4-.1l4.1 4.1c0 .1-.1.2-.1.3 0 .4.4.8.8.8.3 0 .5-.1.6-.3l5 2c.1.4.4.7.8.7s.7-.2.8-.6l2.1-.3c.2.3.5.5.9.5.6 0 1.1-.5 1.1-1.1 0-.2 0-.3-.1-.5l1.6-1.6h.1c.4 0 .8-.4.8-.8 0-.2-.1-.5-.3-.6zm-5.3-3.9h1.2c.1.3.4.5.7.5.1 0 .2 0 .3-.1l2.5 2.5v.8c-.4.1-.6.4-.6.8 0 .2 0 .3.1.4l-.4.4-4.5-4.3c0-.1 0-.2-.1-.3l.8-.7zm-8.5-10.1c0 .1-.1.2-.1.3 0 .3.2.6.5.7v1.2l-.7.7c-.1 0-.2-.1-.3-.1-.1 0-.2 0-.3.1l-4.2-4.4.6-.6c.1.1.3.2.5.2.4 0 .7-.3.8-.6h.8l2.4 2.5zm-6.9 4.5c.1-.1.2-.3.2-.5 0-.3-.2-.6-.4-.7l.3-2.5c.4-.1.6-.4.6-.8 0-.1 0-.2-.1-.3l.7-.7 4.1 4.3c0 .1-.1.4-.1.6 0 .6.5 1.1 1.1 1.1l.6 2.3c-.1.1-.1.3-.1.4 0 .4.4.8.8.8l1.1 1.1v.2c0 .4.4.8.8.8.2 0 .4-.1.6-.2l2.9.9c.1.4.4.7.8.7.2 0 .3-.1.5-.1l4.4 4.1-.6.6c-.1-.1-.3-.1-.5-.1-.6 0-1 .4-1.1 1l-2 .2c-.1-.2-.4-.4-.7-.4-.2 0-.5.1-.6.3l-5-2.1c-.1-.3-.4-.6-.8-.6H19l-4.1-4.1c.1-.2.1-.3.1-.5 0-.6-.5-1.1-1.1-1.1h-.1l-2.1-4.7z"/></svg><svg id="ufo-circle-fill-online-security-desktop" viewBox="0 0 82 82" width="82" height="82" x="249" y="82" xmlns="http://www.w3.org/2000/svg"><style>.cst0{fill:url(#cSVGID_1_)}.cst1{fill:#fff}</style><linearGradient id="cSVGID_1_" gradientUnits="userSpaceOnUse" x1="41" y1="1" x2="41" y2="81"><stop offset="0" stop-color="#2d0a3c"/><stop offset=".226" stop-color="#300c40"/><stop offset=".435" stop-color="#3b124b"/><stop offset=".637" stop-color="#4c1d5e"/><stop offset=".835" stop-color="#632b78"/><stop offset="1" stop-color="#7d3b94"/></linearGradient><circle class="cst0" cx="41" cy="41" r="40"/><g><path class="cst1" d="M45.6 44.7l-1.9-3.4h-4l-2 3.4 1.6 2.8-2.5 7.5h9.7L44 47.5l1.6-2.8zm-1 8.9h-6l2.1-6.3-1.5-2.6 1.2-2.1h2.4l1.2 2.1-1.6 2.7 2.2 6.2z"/><path class="cst1" d="M59.3 56.3v-18c.5-.2.9-.8.9-1.4 0-.8-.7-1.5-1.5-1.5-.2 0-.4 0-.5.1L55.6 33c.1-.2.2-.4.2-.7 0-.8-.7-1.5-1.5-1.5-.5 0-.9.2-1.2.6h-1.4v-9c.5-.2.9-.8.9-1.4 0-.8-.7-1.5-1.5-1.5-.2 0-.4 0-.6.1l-.9-.9v-.2c0-.8-.7-1.5-1.5-1.5-.6 0-1 .3-1.3.8H36.2c-.2-.5-.7-.8-1.3-.8-.8 0-1.5.7-1.5 1.5v.4l-.8.8c-.2-.1-.5-.2-.7-.2-.8 0-1.5.7-1.5 1.5 0 .6.4 1.2.9 1.4v9h-.9c-.3-.3-.7-.6-1.2-.6-.8 0-1.5.7-1.5 1.5v.4L25 35.4c-.2-.1-.4-.1-.7-.1-1.1 0-2 .9-2 2 0 .8.5 1.5 1.1 1.8v16.6c-.6.2-.9.8-.9 1.4 0 .8.7 1.5 1.5 1.5.1 0 .3 0 .4-.1l3.4 3.4c-.1.2-.1.3-.1.5 0 .8.7 1.5 1.5 1.5.6 0 1.1-.3 1.3-.8h21c.3.7 1 1.1 1.8 1.1 1.1 0 2-.9 2-2 0-.2 0-.3-.1-.5l2.8-2.8c.2.1.3.1.5.1.8 0 1.5-.7 1.5-1.5.1-.4-.2-.9-.7-1.2zm-5.9 4c-1 0-1.8.7-2 1.6H30.7c-.2-.5-.8-.9-1.4-.9-.2 0-.3 0-.5.1l-3.4-3.4c.1-.2.1-.4.1-.6 0-.6-.3-1-.7-1.3V39.3c.9-.2 1.6-1 1.6-2 0-.4-.1-.7-.3-1l2.5-2.5c.2.1.4.1.6.1.7 0 1.3-.5 1.5-1.1h22.1c.2.7.8 1.1 1.5 1.1h.3l2.6 2.6c0 .1-.1.3-.1.4 0 .6.3 1.1.8 1.3v18.1c-.5.3-.8.8-.8 1.3 0 .2 0 .3.1.4l-2.6 2.6c-.3-.1-.8-.3-1.2-.3zm-20.8-38c.5-.3.8-.7.8-1.3v-.2l.9-.9c.2.1.4.1.6.1.6 0 1.2-.4 1.4-.9h10.3c.2.6.8.9 1.4.9.3 0 .5-.1.7-.2l.8.8c0 .1-.1.2-.1.4 0 .6.3 1.1.8 1.3v9H32.6v-9z"/></g></svg><svg id="ufo-circle-fill-online-security-mobile" viewBox="0 0 42 42" width="42" height="42" x="126" y="266" xmlns="http://www.w3.org/2000/svg"><style>.dst0{fill:url(#dSVGID_1_)}.dst1{fill:#fff}</style><linearGradient id="dSVGID_1_" gradientUnits="userSpaceOnUse" x1="21" y1="1" x2="21" y2="41"><stop offset="0" stop-color="#2d0a3c"/><stop offset=".226" stop-color="#300c40"/><stop offset=".435" stop-color="#3b124b"/><stop offset=".637" stop-color="#4c1d5e"/><stop offset=".835" stop-color="#632b78"/><stop offset="1" stop-color="#7d3b94"/></linearGradient><circle class="dst0" cx="21" cy="21" r="20"/><g><path class="dst1" d="M23.3 22.9l-1-1.7h-2l-1 1.7.8 1.4-1.2 3.7h4.8l-1.2-3.7.8-1.4zm-.5 4.4h-3l1.1-3.2-.7-1.3.6-1H22l.6 1.1-.8 1.3 1 3.1z"/><path class="dst1" d="M30.1 28.7v-9c.3-.1.4-.4.4-.7 0-.4-.3-.8-.8-.8-.1 0-.2 0-.3.1L28.3 17c0-.1.1-.2.1-.3 0-.4-.3-.8-.8-.8-.2 0-.4.1-.6.3h-.7v-4.5c.3-.1.5-.4.5-.7 0-.4-.3-.8-.8-.8-.1 0-.2 0-.3.1l-.5-.5v-.1c0-.4-.3-.8-.8-.8-.3 0-.5.2-.7.4h-5.3c.1-.1-.2-.3-.4-.3-.4 0-.8.3-.8.8v.2l-.4.4c-.1-.1-.2-.1-.4-.1-.4 0-.8.3-.8.8 0 .3.2.6.5.7v4.5h-.5c-.1-.2-.3-.3-.6-.3-.4 0-.8.3-.8.8v.2L13 18.2c-.1 0-.2-.1-.3-.1-.6 0-1 .5-1 1 0 .4.2.7.6.9v8.3c-.3.1-.5.4-.5.7 0 .4.3.8.8.8h.2l1.7 1.7v.2c0 .4.3.8.8.8.3 0 .5-.2.7-.4h10.5c.2.3.5.6.9.6.6 0 1-.5 1-1v-.2l1.4-1.4h.3c.4 0 .8-.3.8-.8-.3-.3-.5-.5-.8-.6zm-2.9 2c-.5 0-.9.3-1 .8H15.8c-.1-.3-.4-.4-.7-.4h-.2l-1.7-1.7c0-.1.1-.2.1-.3 0-.3-.2-.5-.4-.6v-8.3c.5-.1.8-.5.8-1 0-.2-.1-.4-.1-.5l1.3-1.3c.1 0 .2.1.3.1.4 0 .6-.2.7-.6H27c.1.3.4.6.7.6h.1l1.3 1.3v.2c0 .3.2.5.4.7v9.1c-.2.1-.4.4-.4.7v.2L27.8 31c-.2-.3-.4-.3-.6-.3zm-10.4-19c.2-.1.4-.4.4-.7v-.1l.5-.5c.1 0 .2.1.3.1.3 0 .6-.2.7-.5h5.2c.1.3.4.5.7.5.1 0 .3 0 .4-.1l.4.4v.2c0 .3.2.5.4.7v4.5H17v-4.5z"/></g></svg><svg id="ufo-circle-fill-tick-desktop" viewBox="0 0 82 82" width="82" height="82" x="331" xmlns="http://www.w3.org/2000/svg"><style>.est0{fill:url(#eSVGID_1_)}.est1{fill:#fff}</style><linearGradient id="eSVGID_1_" gradientUnits="userSpaceOnUse" x1="41" y1="1" x2="41" y2="81"><stop offset="0" stop-color="#2d0a3c"/><stop offset=".226" stop-color="#300c40"/><stop offset=".435" stop-color="#3b124b"/><stop offset=".637" stop-color="#4c1d5e"/><stop offset=".835" stop-color="#632b78"/><stop offset="1" stop-color="#7d3b94"/></linearGradient><circle class="est0" cx="41" cy="41" r="40"/><path class="est1" d="M59.7 26.4c-1.2 0-2.1 1-2.1 2.1 0 .4.1.7.2 1L32 53.4c-.3-.2-.7-.3-1.1-.3-.3 0-.7.1-.9.2L23.2 46c.1-.2.2-.5.2-.8 0-.9-.7-1.6-1.6-1.6-.9 0-1.6.7-1.6 1.6 0 .9.7 1.6 1.6 1.6h.3l6.9 7.4c-.1.3-.2.6-.2 1 0 1.2 1 2.1 2.1 2.1 1.2 0 2.1-1 2.1-2.1 0-.3-.1-.6-.2-.8l25.9-23.9c.3.1.6.2.9.2 1.2 0 2.1-1 2.1-2.1s-.9-2.2-2-2.2z"/></svg><svg id="ufo-circle-fill-tick-mobile" viewBox="0 0 42 42" width="42" height="42" x="84" y="266" xmlns="http://www.w3.org/2000/svg"><style>.fst0{fill:url(#fSVGID_1_)}.fst1{fill:#fff}</style><linearGradient id="fSVGID_1_" gradientUnits="userSpaceOnUse" x1="21" y1="1" x2="21" y2="41"><stop offset="0" stop-color="#2d0a3c"/><stop offset=".226" stop-color="#300c40"/><stop offset=".435" stop-color="#3b124b"/><stop offset=".637" stop-color="#4c1d5e"/><stop offset=".835" stop-color="#632b78"/><stop offset="1" stop-color="#7d3b94"/></linearGradient><circle class="fst0" cx="21" cy="21" r="20"/><path class="fst1" d="M30.3 13.7c-.6 0-1.1.5-1.1 1.1 0 .2 0 .3.1.5L16.5 27.2c-.2-.1-.3-.2-.5-.2s-.3 0-.5.1l-3.4-3.6c.1-.1.1-.3.1-.4 0-.4-.4-.8-.8-.8s-.8.4-.8.8.4.8.8.8h.1l3.5 3.7c-.1.1-.1.3-.1.5 0 .6.5 1.1 1.1 1.1.6 0 1.1-.5 1.1-1.1 0-.1 0-.3-.1-.4l12.9-12c.1.1.3.1.5.1.6 0 1.1-.5 1.1-1.1s-.6-1-1.2-1z"/></svg><svg id="ufo-circle-fill-tv-desktop" viewBox="0 0 82 82" width="82" height="82" x="249" xmlns="http://www.w3.org/2000/svg"><style>.gst0{fill:url(#gSVGID_1_)}.gst1{fill:#fff}</style><linearGradient id="gSVGID_1_" gradientUnits="userSpaceOnUse" x1="41" y1="1" x2="41" y2="81"><stop offset="0" stop-color="#2d0a3c"/><stop offset=".226" stop-color="#300c40"/><stop offset=".435" stop-color="#3b124b"/><stop offset=".637" stop-color="#4c1d5e"/><stop offset=".835" stop-color="#632b78"/><stop offset="1" stop-color="#7d3b94"/></linearGradient><circle class="gst0" cx="41" cy="41" r="40"/><path class="gst1" d="M63.4 49.5v-20c.6-.2 1-.8 1-1.5 0-.9-.7-1.6-1.6-1.6-.6 0-1.2.4-1.4.9H22.2c-.3-.8-1.1-1.4-2-1.4-1.2 0-2.1 1-2.1 2.1 0 .8.5 1.5 1.2 1.9v20.4c-.4.3-.7.8-.7 1.3 0 .9.7 1.6 1.6 1.6.6 0 1.1-.3 1.4-.8h19c.1.4.5.8.9 1v2.3H28.6c-.3-.5-.8-.9-1.5-.9-.9 0-1.6.7-1.6 1.6 0 .9.7 1.6 1.6 1.6.6 0 1.2-.4 1.5-.9H56c.3.5.8.9 1.5.9.9 0 1.6-.7 1.6-1.6 0-.9-.7-1.6-1.6-1.6-.6 0-1.2.4-1.5.9H42.7v-2.4c.4-.2.7-.5.8-1H61c.3.7 1.1 1.2 1.9 1.2 1.2 0 2.1-1 2.1-2.1 0-.9-.6-1.7-1.6-1.9zm-2.6 1.6H43.4c-.3-.4-.8-.7-1.3-.7-.6 0-1.1.3-1.3.7h-19c-.2-.5-.6-.9-1.1-1v-20c.8-.1 1.5-.7 1.7-1.5h39.1c.1.4.4.6.7.8v20.1c-.8.3-1.2.9-1.4 1.6z"/></svg><svg id="ufo-circle-fill-tv-mobile" viewBox="0 0 42 42" width="42" height="42" x="42" y="266" xmlns="http://www.w3.org/2000/svg"><style>.hst0{fill:url(#hSVGID_1_)}.hst1{fill:#fff}</style><linearGradient id="hSVGID_1_" gradientUnits="userSpaceOnUse" x1="21" y1="1" x2="21" y2="41"><stop offset="0" stop-color="#2d0a3c"/><stop offset=".226" stop-color="#300c40"/><stop offset=".435" stop-color="#3b124b"/><stop offset=".637" stop-color="#4c1d5e"/><stop offset=".835" stop-color="#632b78"/><stop offset="1" stop-color="#7d3b94"/></linearGradient><circle class="hst0" cx="21" cy="21" r="20"/><path class="hst1" d="M32.2 25.2v-10c.3-.1.5-.4.5-.7 0-.4-.4-.8-.8-.8-.3 0-.6.2-.7.4H11.6c-.2-.4-.5-.7-1-.7-.6 0-1.1.5-1.1 1.1 0 .4.2.8.6.9v10.2c-.2.1-.3.4-.3.7 0 .4.4.8.8.8.3 0 .6-.2.7-.4h9.5c.1.2.2.4.4.5v1.2h-6.4c-.1-.3-.4-.5-.7-.5-.4 0-.8.4-.8.8s.4.8.8.8c.3 0 .6-.2.7-.5h13.7c.1.3.4.5.7.5.4 0 .8-.4.8-.8s-.4-.8-.8-.8c-.3 0-.6.2-.7.5h-6.6v-1.2c.2-.1.4-.3.4-.5H31c.2.4.5.6 1 .6.6 0 1.1-.5 1.1-1.1-.1-.4-.4-.9-.9-1zm-1.3.9h-8.7c-.1-.2-.4-.4-.7-.4-.3 0-.5.1-.7.4h-9.5c-.1-.2-.3-.4-.5-.5v-10c.4-.1.7-.4.8-.8h19.5c.1.2.2.3.4.4v10.1c-.3.1-.5.4-.6.8z"/></svg><svg id="ufo-circle-fill-unlimited-desktop" viewBox="0 0 82 82" width="82" height="82" y="184" xmlns="http://www.w3.org/2000/svg"><style>.ist0{fill:url(#iSVGID_1_)}.ist1{fill:#fff}</style><linearGradient id="iSVGID_1_" gradientUnits="userSpaceOnUse" x1="41" y1="1" x2="41" y2="81"><stop offset="0" stop-color="#2d0a3c"/><stop offset=".226" stop-color="#300c40"/><stop offset=".435" stop-color="#3b124b"/><stop offset=".637" stop-color="#4c1d5e"/><stop offset=".835" stop-color="#632b78"/><stop offset="1" stop-color="#7d3b94"/></linearGradient><circle class="ist0" cx="41" cy="41" r="40"/><path class="ist1" d="M68.8 40.9c0-.8-.5-1.4-1.3-1.6-.3-3.5-1.5-5.8-3.8-6.9-.3-.2-.7-.3-1.1-.4-.1-1.1-1-1.9-2.1-1.9-1 0-1.9.7-2.1 1.7-7.1.9-16 7.1-17.7 8.3-1.3-.9-6.7-4.7-12.3-6.9v-.1c0-1.2-1-2.1-2.1-2.1-.8 0-1.5.4-1.8 1.1-2.5-.5-4.8-.5-6.6.4-2.2 1.1-3.5 3.5-3.8 6.9-.7.2-1.2.8-1.2 1.5s.5 1.4 1.2 1.5c.3 3 1.5 5.1 3.5 6.1.7.4 1.4.6 2.2.7.2 1 1.1 1.7 2.1 1.7 1.1 0 2-.8 2.1-1.9 6.9-1.2 15.2-6.5 16.7-7.6 1.3.9 7.3 4.7 13.3 6.7.1 1.1 1 1.9 2.1 1.9.7 0 1.4-.4 1.8-.9.8.1 1.5.2 2.2.2 1.4 0 2.7-.2 3.8-.8 2-1.1 3.2-3.1 3.5-6.1.9-.1 1.4-.8 1.4-1.5zm-37.1 4.2c-3 1.4-5.6 2.3-7.8 2.7-.4-.6-1.1-1.1-1.9-1.1-.8 0-1.6.5-1.9 1.2-.7-.1-1.3-.3-1.8-.6-1.6-.9-2.6-2.6-2.8-5.2.4-.3.7-.8.7-1.3 0-.6-.3-1-.7-1.3.2-3 1.2-5 3-5.9.8-.4 1.8-.6 3-.6.8 0 1.8.1 2.8.3.1 1.1 1 1.9 2.1 1.9.6 0 1.2-.3 1.6-.8 1.2.5 2.5 1 3.8 1.7 3.4 1.7 6.4 3.7 7.7 4.6-1.3 1-4.3 2.8-7.8 4.4zm31.7 2.2c-1.3.7-3 .8-5.1.5 0-1.1-1-2-2.1-2-.8 0-1.5.4-1.8 1.1-1.3-.5-2.8-1-4.3-1.8-3.5-1.6-6.5-3.5-7.9-4.4 1.4-.9 4.3-2.9 7.7-4.6 3.4-1.7 6.4-2.8 8.8-3.1.3.7 1.1 1.2 1.9 1.2.8 0 1.4-.4 1.8-1 .3.1.5.2.8.3 1.8.9 2.8 2.9 3 6-.4.3-.6.7-.6 1.3 0 .5.2.9.6 1.2-.2 2.7-1.1 4.5-2.8 5.3z"/></svg><svg id="ufo-circle-fill-unlimited-mobile" viewBox="0 0 42 42" width="42" height="42" y="266" xmlns="http://www.w3.org/2000/svg"><style>.jst0{fill:url(#jSVGID_1_)}.jst1{fill:#fff}</style><linearGradient id="jSVGID_1_" gradientUnits="userSpaceOnUse" x1="21" y1="1" x2="21" y2="41"><stop offset="0" stop-color="#2d0a3c"/><stop offset=".226" stop-color="#300c40"/><stop offset=".435" stop-color="#3b124b"/><stop offset=".637" stop-color="#4c1d5e"/><stop offset=".835" stop-color="#632b78"/><stop offset="1" stop-color="#7d3b94"/></linearGradient><circle class="jst0" cx="21" cy="21" r="20"/><path class="jst1" d="M34.9 20.9c0-.4-.3-.7-.6-.8-.1-1.7-.8-2.9-1.9-3.4-.2-.1-.4-.2-.5-.2-.1-.5-.5-1-1.1-1-.5 0-.9.4-1 .9-3.5.5-8 3.5-8.8 4.2-.6-.5-3.4-2.3-6.2-3.4v-.1c0-.6-.5-1.1-1.1-1.1-.4 0-.7.2-.9.5-1.2-.3-2.4-.3-3.3.2-1.1.6-1.7 1.7-1.9 3.5-.3.1-.6.4-.6.7 0 .4.3.7.6.8.1 1.5.7 2.5 1.8 3.1.3.2.7.3 1.1.4.1.5.5.9 1 .9s1-.4 1.1-.9c3.5-.6 7.6-3.3 8.4-3.8.7.4 3.6 2.4 6.6 3.4.1.5.5.9 1.1.9.4 0 .7-.2.9-.5.4.1.8.1 1.1.1.7 0 1.4-.1 1.9-.4 1-.5 1.6-1.6 1.8-3.1.2-.2.5-.5.5-.9zm-18.5 2.2c-1.5.7-2.8 1.1-3.9 1.3-.2-.3-.5-.5-.9-.5s-.8.2-1 .6c-.3-.1-.6-.1-.9-.3-.8-.4-1.3-1.3-1.4-2.6.2-.1.3-.4.3-.7 0-.3-.1-.5-.4-.7.1-1.5.6-2.5 1.5-3 .4-.2.9-.3 1.5-.3.4 0 .9.1 1.4.2.1.5.5.9 1.1.9.3 0 .6-.1.8-.4.6.2 1.2.5 1.9.8 1.7.9 3.2 1.8 3.9 2.3-.7.6-2.2 1.6-3.9 2.4zm15.8 1.1c-.6.3-1.5.4-2.5.3 0-.6-.5-1-1.1-1-.4 0-.7.2-.9.5-.7-.2-1.4-.5-2.2-.9-1.7-.8-3.2-1.7-3.9-2.2.7-.5 2.2-1.5 3.9-2.3 1.7-.9 3.2-1.4 4.4-1.5.2.4.5.6 1 .6.4 0 .7-.2.9-.5.1 0 .3.1.4.2.9.5 1.4 1.5 1.5 3-.2.1-.3.4-.3.6 0 .3.1.5.3.6-.2 1.3-.7 2.1-1.5 2.6z"/></svg><svg id="ufo-circle-fill-wifi-desktop" viewBox="0 0 82 82" width="82" height="82" x="83" y="92" xmlns="http://www.w3.org/2000/svg"><style>.kst0{fill:url(#kSVGID_1_)}.kst1{fill:#fff}</style><linearGradient id="kSVGID_1_" gradientUnits="userSpaceOnUse" x1="41" y1="1" x2="41" y2="81"><stop offset="0" stop-color="#2d0a3c"/><stop offset=".226" stop-color="#300c40"/><stop offset=".435" stop-color="#3b124b"/><stop offset=".637" stop-color="#4c1d5e"/><stop offset=".835" stop-color="#632b78"/><stop offset="1" stop-color="#7d3b94"/></linearGradient><circle class="kst0" cx="41" cy="41" r="40"/><g><circle class="kst1" cx="41.7" cy="58.3" r="2.1"/><path class="kst1" d="M55.6 41.4c-.3 0-.6.1-.8.2-13.3-10.8-24.3-3.2-27.8-.1-.2-.1-.3-.1-.5-.1-.9 0-1.6.7-1.6 1.6 0 .9.7 1.6 1.6 1.6.9 0 1.6-.7 1.6-1.6 0-.2 0-.4-.1-.6 3.3-2.9 13.5-10 26.1.3v.3c0 .9.7 1.6 1.6 1.6.9 0 1.6-.7 1.6-1.6-.1-.9-.8-1.6-1.7-1.6z"/><path class="kst1" d="M63.1 31.7c-.4 0-.8.1-1.2.3-7.7-5.6-18.7-10.3-31.3-6.2-5 1.6-8.8 4.2-11.1 6.1-.3-.2-.7-.3-1.1-.3-1.2 0-2.1 1-2.1 2.1 0 1.2 1 2.1 2.1 2.1 1.2 0 2.1-1 2.1-2.1 0-.3-.1-.6-.2-.8 2.3-1.8 6-4.3 10.7-5.9 10-3.3 20.1-1.3 30 5.9-.1.2-.1.5-.1.8 0 1.2 1 2.1 2.1 2.1 1.2 0 2.1-1 2.1-2.1.1-1.1-.8-2-2-2zM49.5 49.8c-.2 0-.3 0-.4.1-6.4-5-11.8-2.2-14.2-.4-.2-.1-.4-.1-.7-.1-.9 0-1.6.7-1.6 1.6 0 .9.7 1.6 1.6 1.6s1.6-.7 1.6-1.6c0-.2 0-.3-.1-.5 2.1-1.6 6.7-3.9 12.3.3-.1.2-.1.4-.1.6 0 .9.7 1.6 1.6 1.6s1.6-.7 1.6-1.6-.7-1.6-1.6-1.6z"/></g></svg><svg id="ufo-circle-fill-wifi-mobile" viewBox="0 0 42 42" width="42" height="42" x="331" y="164" xmlns="http://www.w3.org/2000/svg"><style>.lst0{fill:url(#lSVGID_1_)}.lst1{fill:#fff}</style><linearGradient id="lSVGID_1_" gradientUnits="userSpaceOnUse" x1="21" y1="1" x2="21" y2="41"><stop offset="0" stop-color="#2d0a3c"/><stop offset=".226" stop-color="#300c40"/><stop offset=".435" stop-color="#3b124b"/><stop offset=".637" stop-color="#4c1d5e"/><stop offset=".835" stop-color="#632b78"/><stop offset="1" stop-color="#7d3b94"/></linearGradient><circle class="lst0" cx="21" cy="21" r="20"/><g><circle class="lst1" cx="21.4" cy="29.6" r="1.1"/><path class="lst1" d="M28.3 21.2c-.1 0-.3 0-.4.1-6.6-5.4-12.2-1.6-13.9-.1h-.3c-.4 0-.8.4-.8.8s.4.8.8.8.8-.4.8-.8c0-.1 0-.2-.1-.3 1.7-1.5 6.8-5 13.1.2v.1c0 .4.4.8.8.8s.8-.4.8-.8-.4-.8-.8-.8z"/><path class="lst1" d="M32 16.3c-.2 0-.4.1-.6.2-3.9-2.8-9.4-5.2-15.6-3.1-2.5.8-4.4 2.1-5.6 3.1-.2-.1-.3-.1-.5-.1-.6 0-1.1.5-1.1 1.1 0 .6.5 1.1 1.1 1.1.6 0 1.1-.5 1.1-1.1 0-.1 0-.3-.1-.4 1.2-.9 3-2.2 5.4-2.9 5-1.6 10-.6 15 3 0 .1-.1.2-.1.4 0 .6.5 1.1 1.1 1.1.6 0 1.1-.5 1.1-1.1-.1-.8-.6-1.3-1.2-1.3zM25.2 25.4H25c-3.2-2.5-5.9-1.1-7.1-.2-.1 0-.2-.1-.3-.1-.4 0-.8.4-.8.8s.4.8.8.8.8-.4.8-.8v-.2c1.1-.8 3.4-1.9 6.2.2 0 .1-.1.2-.1.3 0 .4.4.8.8.8s.8-.4.8-.8-.4-.8-.9-.8z"/></g></svg><svg id="ufo-hexagon-futureproof-desktop" viewBox="0 0 83 92" width="83" height="92" y="92" xmlns="http://www.w3.org/2000/svg"><style>.mst0{clip-path:url(#mSVGID_2_);fill:url(#mSVGID_3_)}.mst1{clip-path:url(#mSVGID_5_)}.mst2{fill:#fff}</style><defs><path id="mSVGID_1_" d="M36.8 2.5L6.1 20.2c-2.9 1.7-4.6 4.7-4.6 8v35.5c0 3.3 1.8 6.4 4.6 8l30.8 17.8c2.9 1.7 6.4 1.7 9.2 0l30.8-17.8c2.9-1.7 4.6-4.7 4.6-8V28.2c0-3.3-1.8-6.4-4.6-8L46.1 2.5c-1.4-.8-3-1.2-4.6-1.2-1.6-.1-3.2.3-4.7 1.2"/></defs><clipPath id="mSVGID_2_"><use xlink:href="#mSVGID_1_" overflow="visible"/></clipPath><linearGradient id="mSVGID_3_" gradientUnits="userSpaceOnUse" x1="-376.906" y1="-256.93" x2="-376.367" y2="-256.93" gradientTransform="rotate(90 -52607.387 9982.902) scale(166.0601)"><stop offset="0" stop-color="#2d0a3c"/><stop offset=".226" stop-color="#300c40"/><stop offset=".435" stop-color="#3b124b"/><stop offset=".637" stop-color="#4c1d5e"/><stop offset=".835" stop-color="#632b78"/><stop offset="1" stop-color="#7d3b94"/></linearGradient><path class="mst0" d="M1.4 1.2h80v89.9h-80z"/><g><defs><path id="mSVGID_4_" d="M-2.5 1.2h90.8V92H-2.5z"/></defs><clipPath id="mSVGID_5_"><use xlink:href="#mSVGID_4_" overflow="visible"/></clipPath><g class="mst1"><path class="mst2" d="M64.4 37.5c-.2 0-.3 0-.5.1l-2.5-13.2c.7-.1 1.2-.6 1.2-1.4 0-.8-.6-1.4-1.4-1.4s-1.4.6-1.4 1.4c0 .1 0 .3.1.4l-2.7.6.3 1.4-30.6 5.9c-.1-.6-.7-1.1-1.4-1.1-.8 0-1.4.6-1.4 1.4s.6 1.4 1.4 1.4h.2l.3 1.1-11.2 2.1.2 1.2-3 .6c-.1-.4-.5-.7-.9-.7-.5 0-.9.4-.9.9s.4.9.9.9h.2l.8 4c-.3.2-.4.4-.4.8 0 .5.4.9.9.9s.8-.3.9-.8l2.8-.6.2 1.2 11.2-2.1.3 1.4c-.5.1-.9.5-.9 1 0 .6.5 1.1 1.1 1.1s1.1-.5 1.1-1.1v-.2l10.7-2L31.6 72h-.1c-.8 0-1.4.6-1.4 1.4 0 .8.6 1.4 1.4 1.4s1.4-.6 1.4-1.4c0-.5-.3-1-.7-1.2l8.3-29.8 1.7-.3c.2.3.5.5.9.5l8 29.5c-.4.2-.7.7-.7 1.2 0 .8.6 1.4 1.4 1.4.8 0 1.4-.6 1.4-1.4 0-.8-.6-1.4-1.4-1.4l-8-29.6c.2-.2.4-.4.5-.7l15.9-3.1.3 1.4 2.6-.5c.2.7.8 1.2 1.5 1.2.9 0 1.5-.7 1.5-1.5-.1-.9-.8-1.6-1.7-1.6zm-51.1 5.7c-.1-.2-.4-.4-.6-.4l-.9-4.2 3.3-.7 1 4.7-2.8.6zm14.2-1.5l-10.6 2-.1-.5-1.1-5.6-.2-1 10.5-2 .7 3.5.8 3.6zm32.4-3.8l-16 3.1c-.2-.3-.5-.5-.9-.5-.5 0-1 .4-1 .9L28.7 44l-.1-.1-.3-1.6-.8-4.2-1.1-5.4c.2-.2.4-.4.4-.6l30.7-6 1.4 7 1 4.8zm.7.5L59 29.9l-1.1-5.4 2.4-.5c.1.1.2.2.4.2l2.6 13.7c-.3.3-.5.6-.5 1l-2.1.4-.1-.9z"/><path class="mst2" d="M54.5 27c-.5 0-1 .4-1 .9l-23.1 4.5.1.7 23.1-4.5c.2.3.5.5.9.5.6 0 1.1-.5 1.1-1.1-.2-.6-.7-1-1.1-1z"/></g></g></svg><svg id="ufo-hexagon-futureproof-mobile" viewBox="0 0 74 82" width="74" height="82" x="238" y="184" xmlns="http://www.w3.org/2000/svg"><style>.nst0{clip-path:url(#nSVGID_2_);fill:url(#nSVGID_3_)}.nst1{clip-path:url(#nSVGID_5_)}.nst2{fill:#fff}</style><defs><path id="nSVGID_1_" d="M32.8 3.1L6 18.7c-2.5 1.4-4 4.1-4 7v31.1c0 2.9 1.5 5.6 4 7l26.9 15.5c2.5 1.4 5.6 1.4 8.1 0l26.9-15.5c2.5-1.4 4-4.1 4-7V25.7c0-2.9-1.5-5.6-4-7L41 3.1C39.8 2.4 38.3 2 37 2c-1.5 0-2.9.4-4.2 1.1"/></defs><clipPath id="nSVGID_2_"><use xlink:href="#nSVGID_1_" overflow="visible"/></clipPath><linearGradient id="nSVGID_3_" gradientUnits="userSpaceOnUse" x1="-390.878" y1="-245.738" x2="-390.406" y2="-245.738" gradientTransform="rotate(90 -52840.822 12070.416) scale(166.0601)"><stop offset="0" stop-color="#2d0a3c"/><stop offset=".226" stop-color="#300c40"/><stop offset=".435" stop-color="#3b124b"/><stop offset=".637" stop-color="#4c1d5e"/><stop offset=".835" stop-color="#632b78"/><stop offset="1" stop-color="#7d3b94"/></linearGradient><path class="nst0" d="M1.9 2h70v78.7h-70z"/><g><defs><path id="nSVGID_4_" d="M-.4 2.4h78.3v78.3H-.4z"/></defs><clipPath id="nSVGID_5_"><use xlink:href="#nSVGID_4_" overflow="visible"/></clipPath><g class="nst1"><path class="nst2" d="M57.3 33.7c-.1 0-.3 0-.4.1l-2.2-11.4c.6 0 1.1-.5 1.1-1.2s-.5-1.2-1.2-1.2c-.6 0-1.2.5-1.2 1.2v.3l-2.4.6.2 1.3-26.4 5.2c-.1-.5-.6-1-1.1-1-.6 0-1.2.5-1.2 1.2 0 .6.5 1.2 1.2 1.2h.2l.2 1-9.6 1.9.2 1-2.7.3c-.1-.3-.4-.6-.8-.6s-.8.3-.8.8.3.8.8.8h.2l.7 3.5c-.2.1-.4.4-.4.6 0 .4.3.8.8.8.4 0 .7-.3.8-.6l2.4-.5.2 1 9.6-1.9.2 1.3c-.4 0-.7.4-.7.9s.4.9.9.9.9-.4.9-.9v-.2L36 38l-7.2 25.5c-.7 0-1.2.5-1.2 1.2s.5 1.2 1.2 1.2 1.2-.5 1.2-1.2c0-.4-.2-.8-.6-1l7.2-25.8 1.5-.3c.1.2.4.4.7.4l7 25.6c-.4.2-.6.6-.6 1 0 .7.5 1.2 1.2 1.2s1.2-.5 1.2-1.2-.5-1.2-1.2-1.2l-6.9-25.5c.2-.1.3-.3.4-.6l13.7-2.6.2 1.3 2.3-.4c.1.6.7 1 1.3 1 .8 0 1.3-.6 1.3-1.3 0-.9-.6-1.6-1.4-1.6zm-44.1 5c-.1-.2-.3-.3-.5-.3l-.7-3.7 2.8-.5.8 4.1-2.4.4zm12.3-1.3l-9.1 1.8-.1-.4-.9-4.8-.1-.8 9.1-1.8.6 3 .5 3zm27.9-3.3l-13.7 2.6c-.1-.3-.4-.4-.8-.4s-.8.3-.9.8l-11.6 2.3h-.1L26 38l-.7-3.7-.9-4.7c.1-.1.3-.3.4-.5l26.5-5.2 1.2 6.1.9 4.1zm.6.4l-1.4-7.4-.9-4.7 2.1-.4c.1.1.2.1.3.2L56.4 34c-.2.2-.4.5-.4.8l-1.8.3-.2-.6z"/><path class="nst2" d="M48.7 24.7c-.4 0-.8.3-.9.8L28 29.4l.1.5L48 26c.1.2.4.4.8.4.5 0 .9-.4.9-.9-.1-.4-.5-.8-1-.8z"/></g></g></svg><svg id="ufo-hexagon-install-desktop" viewBox="0 0 83 92" width="83" height="92" x="166" xmlns="http://www.w3.org/2000/svg"><style>.ost0{clip-path:url(#oSVGID_2_);fill:url(#oSVGID_3_)}.ost1{fill:#fff}</style><defs><path id="oSVGID_1_" d="M36.6 2.9L5.9 20.6c-2.9 1.7-4.6 4.7-4.6 8v35.5c0 3.3 1.8 6.4 4.6 8l30.8 17.8c2.9 1.7 6.4 1.7 9.2 0l30.8-17.8c2.9-1.7 4.6-4.7 4.6-8V28.6c0-3.3-1.8-6.4-4.6-8L45.9 2.9c-1.4-.8-3-1.2-4.6-1.2-1.7-.1-3.3.3-4.7 1.2"/></defs><clipPath id="oSVGID_2_"><use xlink:href="#oSVGID_1_" overflow="visible"/></clipPath><linearGradient id="oSVGID_3_" gradientUnits="userSpaceOnUse" x1="-376.931" y1="341.368" x2="-376.392" y2="341.368" gradientTransform="scale(166.0601) rotate(90 -359.03 17.91)"><stop offset="0" stop-color="#2d0a3c"/><stop offset=".226" stop-color="#300c40"/><stop offset=".435" stop-color="#3b124b"/><stop offset=".637" stop-color="#4c1d5e"/><stop offset=".835" stop-color="#632b78"/><stop offset="1" stop-color="#7d3b94"/></linearGradient><path class="ost0" d="M1.2 1.6h80v89.9h-80z"/><g><path class="ost1" d="M17.2 52.7l-2.9 4.6 2.5 4.8 5.4.2 2.9-4.6-2.5-4.7-5.4-.3zm4.6 9l-4.7-.2-2.1-4.2 2.5-3.9 4.7.2 2.2 4.2-2.6 3.9z"/><path class="ost1" d="M72.4 33.2c-.6 0-1.1.5-1.1 1.1 0 .1 0 .3.1.4l-4.6 2.7c-.2-.2-.5-.4-.8-.4-.2 0-.4.1-.6.2l-3.6-6.8 5.6-2.8c.2.2.4.3.7.3.6 0 1.1-.5 1.1-1.1 0-.6-.5-1.1-1.1-1.1-.5 0-.9.4-1.1.8L61.6 25c0-.3-.1-.6-.2-.9-.4-.6-1.3-.7-1.9-.3-.5.3-.6.9-.5 1.4l-4.3 2.2-1.8 5.9c-.3 0-.6 0-.9.2-.5.3-.7.9-.5 1.5L25.1 48.9l-8.3-.5c0-.2-.1-.4-.2-.6-.4-.6-1.3-.7-1.9-.3-.6.4-.7 1.3-.3 1.9 0 .1.1.1.1.2l-4.2 6.3c-.6 0-1 .5-1 1.1 0 .6.5 1.1 1.1 1.1h.1l3 6.5c-.3.3-.4.7-.4 1.1 0 .9.7 1.6 1.6 1.6.7 0 1.2-.4 1.5-1l7.3.4c.2.3.5.6.9.6.6 0 1.1-.5 1.1-1.1 0-.3-.2-.6-.4-.8l4.1-7.3 26.7-13.9c.2.3.5.5.9.5.5 0 .9-.4 1.1-.8l5.4 1.6c0 .4.1.8.4 1.1.5.5 1.4.5 1.9 0 .3-.3.5-.8.4-1.2l3.8-1.7 2.5-8h.2c.6 0 1.1-.5 1.1-1.1-.1-.9-.6-1.4-1.2-1.4zM69.2 43l-3.5 1.6c0-.1-.1-.1-.1-.2-.5-.5-1.4-.5-1.9 0-.1.1-.2.2-.2.3l-5.6-1.6c-.1-.4-.5-.7-1-.7-.6 0-1.1.5-1.1 1.1v.1l-26.9 14-4.2 7.5h-.2c-.6 0-1 .5-1.1 1l-7-.4v-.1c0-.9-.7-1.6-1.6-1.6-.3 0-.5.1-.8.2l-3-6.3c.3-.2.5-.5.5-.9s-.2-.8-.6-.9l4.1-6.2c.4.2.9.1 1.3-.2.3-.2.4-.5.5-.7l8.5.5 26.4-14c.4.5 1.2.7 1.8.2.6-.4.7-1.3.3-1.9-.1-.2-.3-.3-.4-.4l1.7-5.6 4.1-2.1c.4.6 1.3.7 1.8.3.2-.1.3-.3.4-.5l5.6 1.6-6.1 3 4 7.5c-.1.1-.1.3-.1.5 0 .6.5 1.1 1.1 1.1s1.1-.5 1.1-1.1v-.2l4.7-2.7-2.5 7.8z"/></g></svg><svg id="ufo-hexagon-install-mobile" viewBox="0 0 74 82" width="74" height="82" x="82" y="184" xmlns="http://www.w3.org/2000/svg"><style>.pst0{clip-path:url(#pSVGID_2_);fill:url(#pSVGID_3_)}.pst1{fill:#fff}</style><defs><path id="pSVGID_1_" d="M33.2 3.3L6.3 18.8c-2.5 1.4-4 4.1-4 7v31.1c0 2.9 1.5 5.6 4 7l26.9 15.5c2.5 1.4 5.6 1.4 8.1 0l26.9-15.5c2.5-1.4 4-4.1 4-7V25.8c0-2.9-1.5-5.6-4-7L41.3 3.3c-1.3-.7-2.6-1.1-4-1.1-1.5 0-2.9.4-4.1 1.1"/></defs><clipPath id="pSVGID_2_"><use xlink:href="#pSVGID_1_" overflow="visible"/></clipPath><linearGradient id="pSVGID_3_" gradientUnits="userSpaceOnUse" x1="-380.897" y1="336.368" x2="-380.425" y2="336.368" gradientTransform="matrix(0 166.0601 166.0601 0 -55820.078 63254.04)"><stop offset="0" stop-color="#2d0a3c"/><stop offset=".226" stop-color="#300c40"/><stop offset=".435" stop-color="#3b124b"/><stop offset=".637" stop-color="#4c1d5e"/><stop offset=".835" stop-color="#632b78"/><stop offset="1" stop-color="#7d3b94"/></linearGradient><path class="pst0" d="M2.2 2.2h70v78.7h-70z"/><g><path class="pst1" d="M16.2 46.9l-2.6 4 2.2 4.2 4.8.2 2.6-4-2.2-4.2-4.8-.2zm4.1 7.9l-4.1-.2-1.9-3.6 2.2-3.5 4.1.2 1.9 3.6-2.2 3.5z"/><path class="pst1" d="M64.5 29.9c-.5 0-.9.4-.9.9 0 .1 0 .2.1.3l-4.1 2.4c-.2-.2-.4-.3-.7-.3-.2 0-.4.1-.5.2l-3.2-5.9 4.9-2.5c.2.2.4.2.6.2.5 0 .9-.4.9-.9s-.4-.9-.9-.9-.8.3-.9.7L55 22.7c0-.3 0-.5-.2-.8-.4-.5-1.1-.6-1.6-.3-.4.3-.6.8-.4 1.3L49 24.8l-1.6 5.1c-.3 0-.6 0-.8.2-.4.3-.6.8-.4 1.3l-23 12.2-7.3-.4c0-.2-.1-.4-.2-.5-.4-.5-1.1-.6-1.6-.3-.5.4-.6 1.1-.3 1.6l.1.1-3.7 5.5c-.5 0-.9.4-.9.9s.4.9.9.9h.1l2.7 5.7c-.2.3-.4.6-.4.9 0 .8.6 1.4 1.4 1.4.6 0 1.1-.4 1.3-.9l6.4.4c.2.3.5.5.8.5.5 0 .9-.4.9-.9 0-.3-.1-.6-.4-.7l3.6-6.4 23.4-12c.2.2.4.4.8.4.5 0 .8-.3.9-.7l4.7 1.4c0 .3.1.7.3.9.5.5 1.2.5 1.7 0 .3-.3.4-.7.3-1.1l3.3-1.5 2.2-7h.2c.5 0 .9-.4.9-.9.1-.6-.3-1-.8-1zm-2.8 8.5l-3.1 1.4c0-.1-.1-.1-.1-.2-.5-.5-1.2-.5-1.7 0-.1.1-.2.2-.2.3l-4.9-1.4c-.1-.4-.5-.6-.9-.6-.5 0-.9.4-.9.9v.1L26.3 51.2l-3.7 6.6h-.1c-.5 0-.9.4-.9.9l-6.1-.3v-.1c0-.8-.6-1.4-1.4-1.4-.2 0-.5.1-.7.2l-2.6-5.5c.3-.2.4-.5.4-.8 0-.4-.2-.7-.5-.8l3.6-5.4c.4.1.8.1 1.1-.1.2-.2.4-.4.4-.7l7.4.4L46.3 32c.4.5 1.1.6 1.6.2.5-.4.6-1.1.3-1.6-.1-.1-.2-.3-.4-.3l1.5-4.9 3.6-1.8c.4.5 1.1.6 1.6.2.2-.1.3-.3.3-.4l4.9 1.4-5.3 2.7 3.5 6.5c-.1.1-.1.3-.1.4 0 .5.4.9.9.9s.9-.4.9-.9v-.2l4.1-2.4-2 6.6z"/></g></svg><svg id="ufo-hexagon-reliable-desktop" viewBox="0 0 83 92" width="83" height="92" x="83" xmlns="http://www.w3.org/2000/svg"><style>.qst0{clip-path:url(#qSVGID_2_);fill:url(#qSVGID_3_)}.qst1{fill:#fff}</style><defs><path id="qSVGID_1_" d="M37.3 2.9L6.6 20.6c-2.9 1.7-4.6 4.7-4.6 8v35.5c0 3.3 1.8 6.4 4.6 8l30.8 17.8c2.9 1.7 6.4 1.7 9.2 0l30.8-17.8c2.9-1.7 4.6-4.7 4.6-8V28.6c0-3.3-1.8-6.4-4.6-8L46.6 2.9c-1.4-.8-3-1.2-4.6-1.2-1.6-.1-3.2.3-4.7 1.2"/></defs><clipPath id="qSVGID_2_"><use xlink:href="#qSVGID_1_" overflow="visible"/></clipPath><linearGradient id="qSVGID_3_" gradientUnits="userSpaceOnUse" x1="-376.425" y1="343.94" x2="-375.886" y2="343.94" gradientTransform="scale(166.0601) rotate(90 -360.06 16.374)"><stop offset="0" stop-color="#2d0a3c"/><stop offset=".226" stop-color="#300c40"/><stop offset=".435" stop-color="#3b124b"/><stop offset=".637" stop-color="#4c1d5e"/><stop offset=".835" stop-color="#632b78"/><stop offset="1" stop-color="#7d3b94"/></linearGradient><path class="qst0" d="M2 1.6h80v89.9H2z"/><path class="qst1" d="M72.4 35.2c-.8 0-1.5.6-1.6 1.4l-16.6-2.3c-.1-1-1-1.7-2-1.7-.5 0-.9.2-1.2.4l-8.3-16c.4-.3.6-.7.6-1.2 0-.9-.7-1.6-1.6-1.6-.9 0-1.6.7-1.6 1.6 0 .6.4 1.2.9 1.4l-7.8 16.2h-.1c-.5 0-1 .4-1 .9L14.3 37c-.2-.9-1-1.6-2-1.6-1.1 0-2 .9-2 2s.9 2 2 2c.5 0 .9-.2 1.3-.5l13.1 12.4c.1.1.2.2.2.3.2.3.3.6.2 1l-2.8 17.7c-.8.1-1.5.8-1.5 1.6 0 .9.7 1.6 1.6 1.6s1.6-.7 1.6-1.6c0-.2 0-.3-.1-.5l15.3-8.2c.4.6 1 1 1.7 1 .6 0 1.1-.2 1.4-.6L59 71v.4c0 .9.7 1.6 1.6 1.6.9 0 1.6-.7 1.6-1.6 0-.8-.5-1.4-1.3-1.6l-3.3-17.4c-.1-.5.1-1 .4-1.3L71.3 38c.3.3.7.5 1.1.5.9 0 1.6-.7 1.6-1.6 0-1-.7-1.7-1.6-1.7zM41.6 17.4h.1c.2 0 .3 0 .5-.1l8.4 16.2c-.2.3-.3.7-.3 1.1 0 .5.2.9.5 1.3l-7.1 11.5c-.1 0-.2-.1-.3-.1h-.3l-9.3-12.2c.2-.2.4-.5.4-.8 0-.3-.1-.6-.3-.7l7.7-16.2zM14 38.4c.1-.2.2-.5.3-.8l17.8-2.7c.2.3.5.5.9.5h.1l9.4 12.3c-.2.2-.3.4-.3.7L27.3 51l-.1-.1L14 38.4zm11.7 32.4c-.2-.2-.4-.4-.7-.5l2.8-17.7c.1-.4 0-.8-.2-1.2L42.4 49c.1.2.2.3.4.4v10.8c-1 .1-1.8 1-1.8 2 0 .2 0 .3.1.5l-15.4 8.1zm34.6-1.1c-.4.1-.8.3-1 .6L44.8 63c.1-.3.2-.6.2-.9 0-1-.7-1.8-1.7-2V49.5c.3 0 .6-.2.7-.4l13 2.4c-.1.3-.1.7-.1 1l3.4 17.2zm-2.7-19.1c-.1.1-.2.2-.3.4l-13-2.4v-.1c0-.3-.1-.5-.3-.7l7-11.4c.3.2.7.4 1.2.4 1 0 1.8-.7 2-1.6l16.7 2.3v.1l-13.3 13z"/></svg><svg id="ufo-hexagon-reliable-mobile" viewBox="0 0 74 82" width="74" height="82" x="165" y="92" xmlns="http://www.w3.org/2000/svg"><style>.rst0{clip-path:url(#rSVGID_2_);fill:url(#rSVGID_3_)}.rst1{fill:#fff}</style><defs><path id="rSVGID_1_" d="M32.6 2.3L5.7 17.8c-2.5 1.4-4.1 4.1-4.1 7v31.1c0 2.9 1.5 5.6 4 7l26.9 15.5c2.5 1.4 5.6 1.4 8.1 0l26.9-15.5c2.5-1.4 4-4.1 4-7V24.8c0-2.9-1.5-5.6-4-7L40.6 2.3c-1.2-.7-2.7-1.1-4-1.1-1.4 0-2.8.4-4 1.1"/></defs><clipPath id="rSVGID_2_"><use xlink:href="#rSVGID_1_" overflow="visible"/></clipPath><linearGradient id="rSVGID_3_" gradientUnits="userSpaceOnUse" x1="-388.849" y1="-245.983" x2="-388.378" y2="-245.983" gradientTransform="rotate(90 -52692.43 11881.09) scale(166.0601)"><stop offset="0" stop-color="#2d0a3c"/><stop offset=".226" stop-color="#300c40"/><stop offset=".435" stop-color="#3b124b"/><stop offset=".637" stop-color="#4c1d5e"/><stop offset=".835" stop-color="#632b78"/><stop offset="1" stop-color="#7d3b94"/></linearGradient><path class="rst0" d="M1.6 1.2h70v78.7h-70z"/><path class="rst1" d="M63.9 30.3c-.8 0-1.4.6-1.4 1.3l-15-2c-.1-.9-.9-1.6-1.8-1.6-.4 0-.8.2-1.1.4L37.2 14c.3-.3.5-.7.5-1.1 0-.8-.7-1.5-1.5-1.5s-1.5.7-1.5 1.5c0 .6.3 1 .8 1.3l-6.9 14.6h-.1c-.5 0-.9.4-.9.8L11.7 32c-.2-.9-.9-1.5-1.8-1.5-1 0-1.8.8-1.8 1.8s.8 1.8 1.8 1.8c.5 0 .9-.2 1.2-.5l11.8 11.2c.1.1.2.2.2.3.2.3.3.6.2.9l-2.5 15.9c-.8.1-1.4.7-1.4 1.5s.7 1.5 1.5 1.5 1.5-.7 1.5-1.5c0-.2-.1-.3-.1-.5L36 55.5c.3.5.9.9 1.5.9.5 0 1-.2 1.3-.6l13.1 6.6c0 .1-.1.2-.1.4 0 .8.7 1.5 1.5 1.5s1.5-.7 1.5-1.5c0-.7-.5-1.3-1.1-1.4l-3.1-15.7c-.1-.4.1-.9.4-1.2l11.9-11.8c.3.3.6.4 1 .4.8 0 1.5-.7 1.5-1.5-.1-.7-.8-1.3-1.5-1.3zm-27.8-16h.1c.2 0 .3-.1.4-.1l7.5 14.6c-.2.3-.3.6-.3 1 0 .5.2.8.4 1.2l-6.3 10.3c-.1-.1-.2-.1-.3-.1-.1 0-.2 0-.3.1l-8.4-11c.2-.2.4-.5.4-.7s-.1-.5-.3-.6l7.1-14.7zM11.3 33.2c.1-.2.2-.5.3-.7l16-2.4c.2.3.5.5.8.5h.1L37 41.5c-.2.2-.3.4-.3.7v.1l-13.4 2.2-.1-.1-11.9-11.2zm10.5 29.2c-.2-.2-.4-.4-.7-.5L23.7 46c.1-.4 0-.8-.2-1.1l13.3-2.2c.1.2.2.3.4.3v9.7c-.9.1-1.6.9-1.6 1.8 0 .2 0 .3.1.4l-13.9 7.5zm31.1-1c-.4.1-.7.3-.9.6l-13-6.6c.1-.3.2-.5.2-.8 0-.9-.7-1.7-1.5-1.8v-9.6c.3 0 .5-.2.7-.4L50.1 45c-.1.3-.1.6-.1.9l2.9 15.5zm-2.4-17.2c-.1.1-.2.2-.3.4l-11.7-2.2v-.1c0-.3-.1-.5-.3-.6l6.3-10.2c.3.2.7.3 1 .3.9 0 1.6-.6 1.8-1.5l15.1 2c0 .1 0 .1.1.1l-12 11.8z"/></svg><svg id="ufo-hexagon-ultrafast-desktop" viewBox="0 0 83 92" width="83" height="92" xmlns="http://www.w3.org/2000/svg"><style>.sst0{clip-path:url(#sSVGID_2_);fill:url(#sSVGID_3_)}.sst1{fill:#fff}</style><defs><path id="sSVGID_1_" d="M36.6 2.5L5.9 20.2c-2.9 1.7-4.6 4.7-4.6 8v35.5c0 3.3 1.8 6.4 4.6 8l30.8 17.8c2.9 1.7 6.4 1.7 9.2 0l30.8-17.8c2.9-1.7 4.6-4.7 4.6-8V28.2c0-3.3-1.8-6.4-4.6-8L45.9 2.5c-1.4-.8-3-1.2-4.6-1.2-1.7-.1-3.3.3-4.7 1.2"/></defs><clipPath id="sSVGID_2_"><use xlink:href="#sSVGID_1_" overflow="visible"/></clipPath><linearGradient id="sSVGID_3_" gradientUnits="userSpaceOnUse" x1="-377.876" y1="342.365" x2="-377.337" y2="342.365" gradientTransform="scale(166.0601) rotate(90 -360 17.883)"><stop offset="0" stop-color="#2d0a3c"/><stop offset=".226" stop-color="#300c40"/><stop offset=".435" stop-color="#3b124b"/><stop offset=".637" stop-color="#4c1d5e"/><stop offset=".835" stop-color="#632b78"/><stop offset="1" stop-color="#7d3b94"/></linearGradient><path class="sst0" d="M1.2 1.2h80v89.9h-80z"/><g><defs><path id="sSVGID_4_" d="M-43.5-39.7H128v171.5H-43.5z"/></defs><clipPath id="sSVGID_5_"><use xlink:href="#sSVGID_4_" overflow="visible"/></clipPath></g><g><defs><path id="sSVGID_6_" d="M-43.5-39.7H128v171.5H-43.5z"/></defs><clipPath id="sSVGID_7_"><use xlink:href="#sSVGID_6_" overflow="visible"/></clipPath></g><path class="sst1" d="M56.7 40.2c-1 0-1.7.8-1.8 1.7H43.1l-.1-.1 9.3-25.4h.3c.7 0 1.2-.5 1.2-1.2s-.5-1.2-1.2-1.2-1.2.5-1.2 1.2c0 .5.2.8.6 1.1L26.4 48.9c-.2-.1-.4-.1-.6-.1-.7 0-1.2.5-1.2 1.2s.5 1.2 1.2 1.2S27 50.7 27 50v-.1l12.3-.2-9.8 25.5h-.2c-.5 0-.9.4-.9.9s.4.9.9.9.9-.4.9-.9c0-.3-.2-.6-.4-.7l25.8-31.9c.3.2.6.3 1 .3 1 0 1.8-.8 1.8-1.8s-.7-1.8-1.7-1.8zM39.9 50c.2.1.4.1.6.1.7 0 1.2-.5 1.2-1.2s-.5-1.2-1.2-1.2-1.2.5-1.2 1.2v.1l-12.3.2 24-30.5-8.4 22.7c-.1 0-.2-.1-.3-.1-.7 0-1.2.5-1.2 1.2s.5 1.2 1.2 1.2 1.2-.5 1.2-1.2v-.1H55c.1.2.1.3.2.5l-24 29.7L39.9 50z"/></svg><svg id="ufo-hexagon-ultrafast-mobile" viewBox="0 0 74 82" width="74" height="82" x="331" y="82" xmlns="http://www.w3.org/2000/svg"><style>.tst0{clip-path:url(#tSVGID_2_);fill:url(#tSVGID_3_)}.tst1{fill:#fff}</style><defs><path id="tSVGID_1_" d="M33.2 2.9l-27 15.5c-2.5 1.4-4 4.1-4 7v31.1c0 2.9 1.5 5.6 4 7l27 15.5c2.5 1.4 5.6 1.4 8.1 0l26.9-15.5c2.5-1.4 4-4.1 4-7V25.4c0-2.9-1.5-5.6-4-7l-27-15.5c-1.2-.7-2.7-1.1-4-1.1-1.4 0-2.8.4-4 1.1"/></defs><clipPath id="tSVGID_2_"><use xlink:href="#tSVGID_1_" overflow="visible"/></clipPath><linearGradient id="tSVGID_3_" gradientUnits="userSpaceOnUse" x1="-391.295" y1="-244.422" x2="-390.823" y2="-244.422" gradientTransform="rotate(90 -52765.867 12214.316) scale(166.0601)"><stop offset="0" stop-color="#2d0a3c"/><stop offset=".226" stop-color="#300c40"/><stop offset=".435" stop-color="#3b124b"/><stop offset=".637" stop-color="#4c1d5e"/><stop offset=".835" stop-color="#632b78"/><stop offset="1" stop-color="#7d3b94"/></linearGradient><path class="tst0" d="M2.2 1.8h70v78.7h-70z"/><path class="tst1" d="M50.5 36.1c-.8 0-1.5.7-1.6 1.5H38.4s0-.1-.1-.1L46.6 15h.2c.6 0 1.1-.5 1.1-1.1 0-.6-.5-1.1-1.1-1.1s-1.1.5-1.1 1.1c0 .4.2.7.5.9l-22.6 29c-.1-.1-.3-.1-.5-.1-.6 0-1.1.5-1.1 1.1s.5 1.1 1.1 1.1c.6 0 1.1-.5 1.1-1.1v-.1l10.9-.1-8.7 22.6h-.2c-.4 0-.8.3-.8.8 0 .4.3.8.8.8.4 0 .8-.3.8-.8 0-.3-.1-.5-.3-.6l22.9-28.2c.2.2.6.3.9.3.9 0 1.6-.7 1.6-1.6-.1-1.1-.8-1.8-1.6-1.8zm-14.9 8.7c.1.1.3.1.5.1.6 0 1-.5 1-1 0-.6-.5-1-1-1-.6 0-1 .5-1 1l-10.9.1 21.2-27L38 37.2h-.3c-.6 0-1 .5-1 1 0 .6.5 1 1 1 .6 0 1-.5 1-1H49c0 .1.1.3.2.4L27.8 64.9l7.8-20.1z"/></svg></svg>