<?xml version="1.0" encoding="utf-8"?><svg width="405" height="308" viewBox="0 0 405 308" xmlns="http://www.w3.org/2000/svg" xmlns:xlink="http://www.w3.org/1999/xlink"><svg viewBox="0 0 82 82" style="enable-background:new 0 0 82 82" xml:space="preserve" width="82" height="82" id="circle-fill-calling-features-desktop" x="83" y="92" xmlns="http://www.w3.org/2000/svg"><linearGradient id="aa" gradientUnits="userSpaceOnUse" x1="41" y1="1" x2="41" y2="81"><stop offset="0" style="stop-color:#2d0a3c"/><stop offset=".226" style="stop-color:#300c40"/><stop offset=".435" style="stop-color:#3b124b"/><stop offset=".637" style="stop-color:#4c1d5e"/><stop offset=".835" style="stop-color:#632b78"/><stop offset="1" style="stop-color:#7d3b94"/></linearGradient><circle cx="41" cy="41" r="40" style="fill:url(#aa)"/><path d="M63.8 53.6v-2.4l-5.3-5.3c.1-.2.1-.4.1-.6 0-.9-.7-1.6-1.6-1.6-.6 0-1.1.3-1.4.8h-3l-1.7 1.7-.2.2c-.2-.1-.4-.1-.6-.1-.5 0-.9.2-1.2.6l-1.1-.3-4.6-1.4c0-.8-.7-1.5-1.6-1.5-.2 0-.4 0-.6.1L39.2 42c.2-.3.3-.6.3-.9 0-.9-.7-1.6-1.6-1.6h-.2l-1.2-4.3c.5-.4.9-1 .9-1.7 0-.5-.2-.9-.4-1.3l1.6-1.7v-3c.5-.3.9-.8.9-1.4 0-.9-.7-1.6-1.6-1.6-.2 0-.4 0-.6.1l-5.4-5.4h-2.4c-.3-.4-.7-.6-1.2-.6-.9 0-1.6.7-1.6 1.6v.1L22.8 24c-.2-.1-.3-.1-.5-.1-.9 0-1.6.7-1.6 1.6 0 .5.2 1 .6 1.3l-.6 5.2c-.6.2-1.1.8-1.1 1.5 0 .9.7 1.6 1.6 1.6l3.9 9.5c-.4.4-.6.9-.6 1.5 0 1.2 1 2.1 2.1 2.1.3 0 .6-.1.9-.2l8.3 8.3c-.1.2-.1.4-.1.6 0 .9.7 1.6 1.6 1.6.5 0 1-.3 1.3-.7l9.9 4.1c.1.8.8 1.4 1.6 1.4.7 0 1.3-.5 1.5-1.1l4.2-.5c.4.6 1 1 1.8 1 1.2 0 2.1-1 2.1-2.1 0-.3-.1-.6-.2-.9l3.2-3.2h.2c.9 0 1.6-.7 1.6-1.6-.1-.6-.3-1-.7-1.3zm-10.7-7.8h2.4c.2.6.8 1 1.5 1 .2 0 .4 0 .6-.1l4.9 4.9v1.6c-.7.2-1.2.8-1.2 1.6 0 .3.1.6.3.9l-.8.8-9.2-8.5v-.1c0-.2 0-.4-.1-.5l1.6-1.6zM36.3 25.5c-.1.2-.1.4-.1.6 0 .7.4 1.2 1 1.5V30l-1.4 1.4c-.2-.1-.4-.1-.6-.1-.2 0-.4 0-.6.1l-8.4-8.7 1.1-1.1c.3.2.6.3.9.3.8 0 1.4-.5 1.6-1.3h1.6l4.9 4.9zm-13.8 9.1c.2-.3.4-.6.4-1 0-.6-.3-1.1-.8-1.4l.6-5c.7-.1 1.3-.8 1.3-1.6 0-.2 0-.4-.1-.6l1.4-1.4 8.3 8.6c-.3.4-.4.8-.4 1.2 0 1.2 1 2.1 2.1 2.1l1.3 4.6c-.2.3-.3.5-.3.9 0 .9.7 1.6 1.6 1.6l2.2 2.2c-.1.2-.1.3-.1.5 0 .9.7 1.6 1.6 1.6.4 0 .8-.2 1.1-.4l5.9 1.8c.1.8.8 1.3 1.6 1.3.3 0 .7-.1.9-.3l8.8 8.3-1.2 1.2c-.3-.2-.6-.3-1-.3-1.1 0-2.1.9-2.1 2l-4.1.5c-.3-.4-.8-.7-1.3-.7s-.9.2-1.2.5l-10.1-4.1c-.2-.7-.8-1.2-1.5-1.2-.2 0-.3 0-.5.1l-8.3-8.3c.2-.3.3-.7.3-1 0-1.2-1-2.1-2.1-2.1h-.3l-4-9.6z" style="fill:#fff"/></svg><svg viewBox="0 0 42 42" style="enable-background:new 0 0 42 42" xml:space="preserve" width="42" height="42" id="circle-fill-calling-features-mobile" x="331" y="164" xmlns="http://www.w3.org/2000/svg"><linearGradient id="ba" gradientUnits="userSpaceOnUse" x1="21" y1="41" x2="21" y2="1" gradientTransform="matrix(1 0 0 -1 0 42)"><stop offset="0" style="stop-color:#2d0a3c"/><stop offset=".226" style="stop-color:#300c40"/><stop offset=".435" style="stop-color:#3b124b"/><stop offset=".637" style="stop-color:#4c1d5e"/><stop offset=".835" style="stop-color:#632b78"/><stop offset="1" style="stop-color:#7d3b94"/></linearGradient><circle cx="21" cy="21" r="20" style="fill:url(#ba)"/><path d="M32.4 27.3v-1.2l-2.7-2.7c0-.1.1-.2.1-.3 0-.4-.4-.8-.8-.8-.3 0-.6.2-.7.4h-1.5l-.9.9-.1.1c-.1 0-.2-.1-.3-.1-.2 0-.5.1-.6.3l-.6-.2L22 23c0-.4-.4-.8-.8-.8-.1 0-.2 0-.3.1l-.9-.8c.1-.1.2-.3.2-.5 0-.4-.4-.8-.8-.8h-.1l-.6-2.2c.3-.2.4-.5.4-.9 0-.2-.1-.5-.2-.6l.8-.8v-1.5c.3-.1.4-.4.4-.7 0-.4-.4-.8-.8-.8-.1 0-.2 0-.3.1l-2.7-2.7h-1.2c-.1-.2-.4-.3-.6-.3-.4 0-.8.4-.8.8l-1.9 1.9h-.3c-.4 0-.8.4-.8.8 0 .3.1.5.3.6l-.3 2.6c-.3.1-.5.4-.5.8s.4.8.8.8l2 4.8c-.2.2-.3.5-.3.8 0 .6.5 1.1 1.1 1.1.2 0 .3 0 .4-.1l4.1 4.1c0 .1-.1.2-.1.3 0 .4.4.8.8.8.3 0 .5-.1.6-.3l5 2c.1.4.4.7.8.7s.7-.2.8-.6l2.1-.3c.2.3.5.5.9.5.6 0 1.1-.5 1.1-1.1 0-.2 0-.3-.1-.5l1.6-1.6h.1c.4 0 .8-.4.8-.8 0-.2-.1-.5-.3-.6zm-5.3-3.9h1.2c.1.3.4.5.7.5.1 0 .2 0 .3-.1l2.5 2.5v.8c-.4.1-.6.4-.6.8 0 .2 0 .3.1.4l-.4.4-4.5-4.3c0-.1 0-.2-.1-.3l.8-.7zm-8.5-10.1c0 .1-.1.2-.1.3 0 .3.2.6.5.7v1.2l-.7.7c-.1 0-.2-.1-.3-.1-.1 0-.2 0-.3.1l-4.2-4.4.6-.6c.1.1.3.2.5.2.4 0 .7-.3.8-.6h.8l2.4 2.5zm-6.9 4.5c.1-.1.2-.3.2-.5 0-.3-.2-.6-.4-.7l.3-2.5c.4-.1.6-.4.6-.8 0-.1 0-.2-.1-.3l.7-.7 4.1 4.3c0 .1-.1.4-.1.6 0 .6.5 1.1 1.1 1.1l.6 2.3c-.1.1-.1.3-.1.4 0 .4.4.8.8.8l1.1 1.1v.2c0 .4.4.8.8.8.2 0 .4-.1.6-.2l2.9.9c.1.4.4.7.8.7.2 0 .3-.1.5-.1l4.4 4.1-.6.6c-.1-.1-.3-.1-.5-.1-.6 0-1 .4-1.1 1l-2 .2c-.1-.2-.4-.4-.7-.4-.2 0-.5.1-.6.3l-5-2.1c-.1-.3-.4-.6-.8-.6H19l-4.1-4.1c.1-.2.1-.3.1-.5 0-.6-.5-1.1-1.1-1.1h-.1l-2.1-4.7z" style="fill:#fff"/></svg><svg version="1.1" id="circle-fill-online-security-desktop" x="165" y="92" viewBox="0 0 82 82" style="enable-background:new 0 0 82 82" xml:space="preserve" width="82" height="82" xmlns="http://www.w3.org/2000/svg"><style>.cst1{fill:#fff}</style><linearGradient id="cSVGID_1_" gradientUnits="userSpaceOnUse" x1="41" y1="1" x2="41" y2="81"><stop offset="0" style="stop-color:#2d0a3c"/><stop offset=".226" style="stop-color:#300c40"/><stop offset=".435" style="stop-color:#3b124b"/><stop offset=".637" style="stop-color:#4c1d5e"/><stop offset=".835" style="stop-color:#632b78"/><stop offset="1" style="stop-color:#7d3b94"/></linearGradient><circle cx="41" cy="41" r="40" style="fill:url(#cSVGID_1_)"/><path class="cst1" d="m45.6 44.7-1.9-3.4h-4l-2 3.4 1.6 2.8-2.5 7.5h9.7L44 47.5l1.6-2.8zm-1 8.9h-6l2.1-6.3-1.5-2.6 1.2-2.1h2.4l1.2 2.1-1.6 2.7 2.2 6.2z"/><path class="cst1" d="M59.3 56.3v-18c.5-.2.9-.8.9-1.4 0-.8-.7-1.5-1.5-1.5-.2 0-.4 0-.5.1L55.6 33c.1-.2.2-.4.2-.7 0-.8-.7-1.5-1.5-1.5-.5 0-.9.2-1.2.6h-1.4v-9c.5-.2.9-.8.9-1.4 0-.8-.7-1.5-1.5-1.5-.2 0-.4 0-.6.1l-.9-.9v-.2c0-.8-.7-1.5-1.5-1.5-.6 0-1 .3-1.3.8H36.2c-.2-.5-.7-.8-1.3-.8-.8 0-1.5.7-1.5 1.5v.4l-.8.8c-.2-.1-.5-.2-.7-.2-.8 0-1.5.7-1.5 1.5 0 .6.4 1.2.9 1.4v9h-.9c-.3-.3-.7-.6-1.2-.6-.8 0-1.5.7-1.5 1.5v.4L25 35.4c-.2-.1-.4-.1-.7-.1-1.1 0-2 .9-2 2 0 .8.5 1.5 1.1 1.8v16.6c-.6.2-.9.8-.9 1.4 0 .8.7 1.5 1.5 1.5.1 0 .3 0 .4-.1l3.4 3.4c-.1.2-.1.3-.1.5 0 .8.7 1.5 1.5 1.5.6 0 1.1-.3 1.3-.8h21c.3.7 1 1.1 1.8 1.1 1.1 0 2-.9 2-2 0-.2 0-.3-.1-.5l2.8-2.8c.2.1.3.1.5.1.8 0 1.5-.7 1.5-1.5.1-.4-.2-.9-.7-1.2zm-5.9 4c-1 0-1.8.7-2 1.6H30.7c-.2-.5-.8-.9-1.4-.9-.2 0-.3 0-.5.1l-3.4-3.4c.1-.2.1-.4.1-.6 0-.6-.3-1-.7-1.3V39.3c.9-.2 1.6-1 1.6-2 0-.4-.1-.7-.3-1l2.5-2.5c.2.1.4.1.6.1.7 0 1.3-.5 1.5-1.1h22.1c.2.7.8 1.1 1.5 1.1h.3l2.6 2.6c0 .1-.1.3-.1.4 0 .6.3 1.1.8 1.3v18.1c-.5.3-.8.8-.8 1.3 0 .2 0 .3.1.4l-2.6 2.6c-.3-.1-.8-.3-1.2-.3zm-20.8-38c.5-.3.8-.7.8-1.3v-.2l.9-.9c.2.1.4.1.6.1.6 0 1.2-.4 1.4-.9h10.3c.2.6.8.9 1.4.9.3 0 .5-.1.7-.2l.8.8c0 .1-.1.2-.1.4 0 .6.3 1.1.8 1.3v9H32.6v-9z"/></svg><svg version="1.1" id="circle-fill-online-security-mobile" x="331" y="206" viewBox="0 0 42 42" style="enable-background:new 0 0 42 42" xml:space="preserve" width="42" height="42" xmlns="http://www.w3.org/2000/svg"><style>.dst1{fill:#fff}</style><linearGradient id="dSVGID_1_" gradientUnits="userSpaceOnUse" x1="21" y1="1" x2="21" y2="41"><stop offset="0" style="stop-color:#2d0a3c"/><stop offset=".226" style="stop-color:#300c40"/><stop offset=".435" style="stop-color:#3b124b"/><stop offset=".637" style="stop-color:#4c1d5e"/><stop offset=".835" style="stop-color:#632b78"/><stop offset="1" style="stop-color:#7d3b94"/></linearGradient><circle cx="21" cy="21" r="20" style="fill:url(#dSVGID_1_)"/><path class="dst1" d="m23.3 22.9-1-1.7h-2l-1 1.7.8 1.4-1.2 3.7h4.8l-1.2-3.7.8-1.4zm-.5 4.4h-3l1.1-3.2-.7-1.3.6-1H22l.6 1.1-.8 1.3 1 3.1z"/><path class="dst1" d="M30.1 28.7v-9c.3-.1.4-.4.4-.7 0-.4-.3-.8-.8-.8-.1 0-.2 0-.3.1L28.3 17c0-.1.1-.2.1-.3 0-.4-.3-.8-.8-.8-.2 0-.4.1-.6.3h-.7v-4.5c.3-.1.5-.4.5-.7 0-.4-.3-.8-.8-.8-.1 0-.2 0-.3.1l-.5-.5v-.1c0-.4-.3-.8-.8-.8-.3 0-.5.2-.7.4h-5.3c.1-.1-.2-.3-.4-.3-.4 0-.8.3-.8.8v.2l-.4.4c-.1-.1-.2-.1-.4-.1-.4 0-.8.3-.8.8 0 .3.2.6.5.7v4.5h-.5c-.1-.2-.3-.3-.6-.3-.4 0-.8.3-.8.8v.2L13 18.2c-.1 0-.2-.1-.3-.1-.6 0-1 .5-1 1 0 .4.2.7.6.9v8.3c-.3.1-.5.4-.5.7 0 .4.3.8.8.8h.2l1.7 1.7v.2c0 .4.3.8.8.8.3 0 .5-.2.7-.4h10.5c.2.3.5.6.9.6.6 0 1-.5 1-1v-.2l1.4-1.4h.3c.4 0 .8-.3.8-.8-.3-.3-.5-.5-.8-.6zm-2.9 2c-.5 0-.9.3-1 .8H15.8c-.1-.3-.4-.4-.7-.4h-.2l-1.7-1.7c0-.1.1-.2.1-.3 0-.3-.2-.5-.4-.6v-8.3c.5-.1.8-.5.8-1 0-.2-.1-.4-.1-.5l1.3-1.3c.1 0 .2.1.3.1.4 0 .6-.2.7-.6H27c.1.3.4.6.7.6h.1l1.3 1.3v.2c0 .3.2.5.4.7v9.1c-.2.1-.4.4-.4.7v.2L27.8 31c-.2-.3-.4-.3-.6-.3zm-10.4-19c.2-.1.4-.4.4-.7v-.1l.5-.5c.1 0 .2.1.3.1.3 0 .6-.2.7-.5h5.2c.1.3.4.5.7.5.1 0 .3 0 .4-.1l.4.4v.2c0 .3.2.5.4.7v4.5H17v-4.5z"/></svg><svg viewBox="0 0 82 82" style="enable-background:new 0 0 82 82" xml:space="preserve" width="82" height="82" id="circle-fill-tick-desktop" x="249" xmlns="http://www.w3.org/2000/svg"><linearGradient id="ea" gradientUnits="userSpaceOnUse" x1="41" y1="1" x2="41" y2="81"><stop offset="0" style="stop-color:#2d0a3c"/><stop offset=".226" style="stop-color:#300c40"/><stop offset=".435" style="stop-color:#3b124b"/><stop offset=".637" style="stop-color:#4c1d5e"/><stop offset=".835" style="stop-color:#632b78"/><stop offset="1" style="stop-color:#7d3b94"/></linearGradient><circle cx="41" cy="41" r="40" style="fill:url(#ea)"/><path d="M59.7 26.4c-1.2 0-2.1 1-2.1 2.1 0 .4.1.7.2 1L32 53.4c-.3-.2-.7-.3-1.1-.3-.3 0-.7.1-.9.2L23.2 46c.1-.2.2-.5.2-.8 0-.9-.7-1.6-1.6-1.6-.9 0-1.6.7-1.6 1.6 0 .9.7 1.6 1.6 1.6h.3l6.9 7.4c-.1.3-.2.6-.2 1 0 1.2 1 2.1 2.1 2.1 1.2 0 2.1-1 2.1-2.1 0-.3-.1-.6-.2-.8l25.9-23.9c.3.1.6.2.9.2 1.2 0 2.1-1 2.1-2.1s-.9-2.2-2-2.2z" style="fill:#fff"/></svg><svg viewBox="0 0 42 42" style="enable-background:new 0 0 42 42" xml:space="preserve" width="42" height="42" id="circle-fill-tick-mobile" y="266" xmlns="http://www.w3.org/2000/svg"><linearGradient id="fa" gradientUnits="userSpaceOnUse" x1="21" y1="1" x2="21" y2="41"><stop offset="0" style="stop-color:#2d0a3c"/><stop offset=".226" style="stop-color:#300c40"/><stop offset=".435" style="stop-color:#3b124b"/><stop offset=".637" style="stop-color:#4c1d5e"/><stop offset=".835" style="stop-color:#632b78"/><stop offset="1" style="stop-color:#7d3b94"/></linearGradient><circle cx="21" cy="21" r="20" style="fill:url(#fa)"/><path d="M30.3 13.7c-.6 0-1.1.5-1.1 1.1 0 .2 0 .3.1.5L16.5 27.2c-.2-.1-.3-.2-.5-.2s-.3 0-.5.1l-3.4-3.6c.1-.1.1-.3.1-.4 0-.4-.4-.8-.8-.8s-.8.4-.8.8.4.8.8.8h.1l3.5 3.7c-.1.1-.1.3-.1.5 0 .6.5 1.1 1.1 1.1.6 0 1.1-.5 1.1-1.1 0-.1 0-.3-.1-.4l12.9-12c.1.1.3.1.5.1.6 0 1.1-.5 1.1-1.1s-.6-1-1.2-1z" style="fill:#fff"/></svg><svg viewBox="0 0 82 82" style="enable-background:new 0 0 82 82" xml:space="preserve" width="82" height="82" id="circle-fill-tv-desktop" x="249" y="82" xmlns="http://www.w3.org/2000/svg"><linearGradient id="ga" gradientUnits="userSpaceOnUse" x1="41" y1="1" x2="41" y2="81"><stop offset="0" style="stop-color:#2d0a3c"/><stop offset=".226" style="stop-color:#300c40"/><stop offset=".435" style="stop-color:#3b124b"/><stop offset=".637" style="stop-color:#4c1d5e"/><stop offset=".835" style="stop-color:#632b78"/><stop offset="1" style="stop-color:#7d3b94"/></linearGradient><circle cx="41" cy="41" r="40" style="fill:url(#ga)"/><path d="M63.4 49.5v-20c.6-.2 1-.8 1-1.5 0-.9-.7-1.6-1.6-1.6-.6 0-1.2.4-1.4.9H22.2c-.3-.8-1.1-1.4-2-1.4-1.2 0-2.1 1-2.1 2.1 0 .8.5 1.5 1.2 1.9v20.4c-.4.3-.7.8-.7 1.3 0 .9.7 1.6 1.6 1.6.6 0 1.1-.3 1.4-.8h19c.1.4.5.8.9 1v2.3H28.6c-.3-.5-.8-.9-1.5-.9-.9 0-1.6.7-1.6 1.6 0 .9.7 1.6 1.6 1.6.6 0 1.2-.4 1.5-.9H56c.3.5.8.9 1.5.9.9 0 1.6-.7 1.6-1.6 0-.9-.7-1.6-1.6-1.6-.6 0-1.2.4-1.5.9H42.7v-2.4c.4-.2.7-.5.8-1H61c.3.7 1.1 1.2 1.9 1.2 1.2 0 2.1-1 2.1-2.1 0-.9-.6-1.7-1.6-1.9zm-2.6 1.6H43.4c-.3-.4-.8-.7-1.3-.7-.6 0-1.1.3-1.3.7h-19c-.2-.5-.6-.9-1.1-1v-20c.8-.1 1.5-.7 1.7-1.5h39.1c.1.4.4.6.7.8v20.1c-.8.3-1.2.9-1.4 1.6z" style="fill:#fff"/></svg><svg viewBox="0 0 42 42" style="enable-background:new 0 0 42 42" xml:space="preserve" width="42" height="42" id="circle-fill-tv-mobile" x="42" y="266" xmlns="http://www.w3.org/2000/svg"><linearGradient id="ha" gradientUnits="userSpaceOnUse" x1="21" y1="1" x2="21" y2="41"><stop offset="0" style="stop-color:#2d0a3c"/><stop offset=".226" style="stop-color:#300c40"/><stop offset=".435" style="stop-color:#3b124b"/><stop offset=".637" style="stop-color:#4c1d5e"/><stop offset=".835" style="stop-color:#632b78"/><stop offset="1" style="stop-color:#7d3b94"/></linearGradient><circle cx="21" cy="21" r="20" style="fill:url(#ha)"/><path d="M32.2 25.2v-10c.3-.1.5-.4.5-.7 0-.4-.4-.8-.8-.8-.3 0-.6.2-.7.4H11.6c-.2-.4-.5-.7-1-.7-.6 0-1.1.5-1.1 1.1 0 .4.2.8.6.9v10.2c-.2.1-.3.4-.3.7 0 .4.4.8.8.8.3 0 .6-.2.7-.4h9.5c.1.2.2.4.4.5v1.2h-6.4c-.1-.3-.4-.5-.7-.5-.4 0-.8.4-.8.8s.4.8.8.8c.3 0 .6-.2.7-.5h13.7c.1.3.4.5.7.5.4 0 .8-.4.8-.8s-.4-.8-.8-.8c-.3 0-.6.2-.7.5h-6.6v-1.2c.2-.1.4-.3.4-.5H31c.2.4.5.6 1 .6.6 0 1.1-.5 1.1-1.1-.1-.4-.4-.9-.9-1zm-1.3.9h-8.7c-.1-.2-.4-.4-.7-.4-.3 0-.5.1-.7.4h-9.5c-.1-.2-.3-.4-.5-.5v-10c.4-.1.7-.4.8-.8h19.5c.1.2.2.3.4.4v10.1c-.3.1-.5.4-.6.8z" style="fill:#fff"/></svg><svg viewBox="0 0 82 82" style="enable-background:new 0 0 82 82" xml:space="preserve" width="82" height="82" id="circle-fill-unlimited-desktop" y="184" xmlns="http://www.w3.org/2000/svg"><linearGradient id="ia" gradientUnits="userSpaceOnUse" x1="41" y1="1" x2="41" y2="81"><stop offset="0" style="stop-color:#2d0a3c"/><stop offset=".226" style="stop-color:#300c40"/><stop offset=".435" style="stop-color:#3b124b"/><stop offset=".637" style="stop-color:#4c1d5e"/><stop offset=".835" style="stop-color:#632b78"/><stop offset="1" style="stop-color:#7d3b94"/></linearGradient><circle cx="41" cy="41" r="40" style="fill:url(#ia)"/><path d="M68.8 40.9c0-.8-.5-1.4-1.3-1.6-.3-3.5-1.5-5.8-3.8-6.9-.3-.2-.7-.3-1.1-.4-.1-1.1-1-1.9-2.1-1.9-1 0-1.9.7-2.1 1.7-7.1.9-16 7.1-17.7 8.3-1.3-.9-6.7-4.7-12.3-6.9v-.1c0-1.2-1-2.1-2.1-2.1-.8 0-1.5.4-1.8 1.1-2.5-.5-4.8-.5-6.6.4-2.2 1.1-3.5 3.5-3.8 6.9-.7.2-1.2.8-1.2 1.5s.5 1.4 1.2 1.5c.3 3 1.5 5.1 3.5 6.1.7.4 1.4.6 2.2.7.2 1 1.1 1.7 2.1 1.7 1.1 0 2-.8 2.1-1.9 6.9-1.2 15.2-6.5 16.7-7.6 1.3.9 7.3 4.7 13.3 6.7.1 1.1 1 1.9 2.1 1.9.7 0 1.4-.4 1.8-.9.8.1 1.5.2 2.2.2 1.4 0 2.7-.2 3.8-.8 2-1.1 3.2-3.1 3.5-6.1.9-.1 1.4-.8 1.4-1.5zm-37.1 4.2c-3 1.4-5.6 2.3-7.8 2.7-.4-.6-1.1-1.1-1.9-1.1-.8 0-1.6.5-1.9 1.2-.7-.1-1.3-.3-1.8-.6-1.6-.9-2.6-2.6-2.8-5.2.4-.3.7-.8.7-1.3 0-.6-.3-1-.7-1.3.2-3 1.2-5 3-5.9.8-.4 1.8-.6 3-.6.8 0 1.8.1 2.8.3.1 1.1 1 1.9 2.1 1.9.6 0 1.2-.3 1.6-.8 1.2.5 2.5 1 3.8 1.7 3.4 1.7 6.4 3.7 7.7 4.6-1.3 1-4.3 2.8-7.8 4.4zm31.7 2.2c-1.3.7-3 .8-5.1.5 0-1.1-1-2-2.1-2-.8 0-1.5.4-1.8 1.1-1.3-.5-2.8-1-4.3-1.8-3.5-1.6-6.5-3.5-7.9-4.4 1.4-.9 4.3-2.9 7.7-4.6 3.4-1.7 6.4-2.8 8.8-3.1.3.7 1.1 1.2 1.9 1.2.8 0 1.4-.4 1.8-1 .3.1.5.2.8.3 1.8.9 2.8 2.9 3 6-.4.3-.6.7-.6 1.3 0 .5.2.9.6 1.2-.2 2.7-1.1 4.5-2.8 5.3z" style="fill:#fff"/></svg><svg viewBox="0 0 42 42" style="enable-background:new 0 0 42 42" xml:space="preserve" width="42" height="42" id="circle-fill-unlimited-mobile" x="84" y="266" xmlns="http://www.w3.org/2000/svg"><linearGradient id="ja" gradientUnits="userSpaceOnUse" x1="21" y1="1" x2="21" y2="41"><stop offset="0" style="stop-color:#2d0a3c"/><stop offset=".226" style="stop-color:#300c40"/><stop offset=".435" style="stop-color:#3b124b"/><stop offset=".637" style="stop-color:#4c1d5e"/><stop offset=".835" style="stop-color:#632b78"/><stop offset="1" style="stop-color:#7d3b94"/></linearGradient><circle cx="21" cy="21" r="20" style="fill:url(#ja)"/><path d="M34.9 20.9c0-.4-.3-.7-.6-.8-.1-1.7-.8-2.9-1.9-3.4-.2-.1-.4-.2-.5-.2-.1-.5-.5-1-1.1-1-.5 0-.9.4-1 .9-3.5.5-8 3.5-8.8 4.2-.6-.5-3.4-2.3-6.2-3.4v-.1c0-.6-.5-1.1-1.1-1.1-.4 0-.7.2-.9.5-1.2-.3-2.4-.3-3.3.2-1.1.6-1.7 1.7-1.9 3.5-.3.1-.6.4-.6.7 0 .4.3.7.6.8.1 1.5.7 2.5 1.8 3.1.3.2.7.3 1.1.4.1.5.5.9 1 .9s1-.4 1.1-.9c3.5-.6 7.6-3.3 8.4-3.8.7.4 3.6 2.4 6.6 3.4.1.5.5.9 1.1.9.4 0 .7-.2.9-.5.4.1.8.1 1.1.1.7 0 1.4-.1 1.9-.4 1-.5 1.6-1.6 1.8-3.1.2-.2.5-.5.5-.9zm-18.5 2.2c-1.5.7-2.8 1.1-3.9 1.3-.2-.3-.5-.5-.9-.5s-.8.2-1 .6c-.3-.1-.6-.1-.9-.3-.8-.4-1.3-1.3-1.4-2.6.2-.1.3-.4.3-.7 0-.3-.1-.5-.4-.7.1-1.5.6-2.5 1.5-3 .4-.2.9-.3 1.5-.3.4 0 .9.1 1.4.2.1.5.5.9 1.1.9.3 0 .6-.1.8-.4.6.2 1.2.5 1.9.8 1.7.9 3.2 1.8 3.9 2.3-.7.6-2.2 1.6-3.9 2.4zm15.8 1.1c-.6.3-1.5.4-2.5.3 0-.6-.5-1-1.1-1-.4 0-.7.2-.9.5-.7-.2-1.4-.5-2.2-.9-1.7-.8-3.2-1.7-3.9-2.2.7-.5 2.2-1.5 3.9-2.3 1.7-.9 3.2-1.4 4.4-1.5.2.4.5.6 1 .6.4 0 .7-.2.9-.5.1 0 .3.1.4.2.9.5 1.4 1.5 1.5 3-.2.1-.3.4-.3.6 0 .3.1.5.3.6-.2 1.3-.7 2.1-1.5 2.6z" style="fill:#fff"/></svg><svg version="1.1" id="circle-fill-wifi-desktop" x="82" y="184" viewBox="0 0 82 82" style="enable-background:new 0 0 82 82" xml:space="preserve" width="82" height="82" xmlns="http://www.w3.org/2000/svg"><style>.kst1{fill:#fff}</style><linearGradient id="kSVGID_1_" gradientUnits="userSpaceOnUse" x1="41" y1="1" x2="41" y2="81"><stop offset="0" style="stop-color:#2d0a3c"/><stop offset=".226" style="stop-color:#300c40"/><stop offset=".435" style="stop-color:#3b124b"/><stop offset=".637" style="stop-color:#4c1d5e"/><stop offset=".835" style="stop-color:#632b78"/><stop offset="1" style="stop-color:#7d3b94"/></linearGradient><circle cx="41" cy="41" r="40" style="fill:url(#kSVGID_1_)"/><circle class="kst1" cx="41.7" cy="58.3" r="2.1"/><path class="kst1" d="M55.6 41.4c-.3 0-.6.1-.8.2-13.3-10.8-24.3-3.2-27.8-.1-.2-.1-.3-.1-.5-.1-.9 0-1.6.7-1.6 1.6 0 .9.7 1.6 1.6 1.6.9 0 1.6-.7 1.6-1.6 0-.2 0-.4-.1-.6 3.3-2.9 13.5-10 26.1.3v.3c0 .9.7 1.6 1.6 1.6.9 0 1.6-.7 1.6-1.6-.1-.9-.8-1.6-1.7-1.6z"/><path class="kst1" d="M63.1 31.7c-.4 0-.8.1-1.2.3-7.7-5.6-18.7-10.3-31.3-6.2-5 1.6-8.8 4.2-11.1 6.1-.3-.2-.7-.3-1.1-.3-1.2 0-2.1 1-2.1 2.1 0 1.2 1 2.1 2.1 2.1 1.2 0 2.1-1 2.1-2.1 0-.3-.1-.6-.2-.8 2.3-1.8 6-4.3 10.7-5.9 10-3.3 20.1-1.3 30 5.9-.1.2-.1.5-.1.8 0 1.2 1 2.1 2.1 2.1 1.2 0 2.1-1 2.1-2.1.1-1.1-.8-2-2-2zM49.5 49.8c-.2 0-.3 0-.4.1-6.4-5-11.8-2.2-14.2-.4-.2-.1-.4-.1-.7-.1-.9 0-1.6.7-1.6 1.6 0 .9.7 1.6 1.6 1.6s1.6-.7 1.6-1.6c0-.2 0-.3-.1-.5 2.1-1.6 6.7-3.9 12.3.3-.1.2-.1.4-.1.6 0 .9.7 1.6 1.6 1.6s1.6-.7 1.6-1.6-.7-1.6-1.6-1.6z"/></svg><svg version="1.1" id="circle-fill-wifi-mobile" x="126" y="266" viewBox="0 0 42 42" style="enable-background:new 0 0 42 42" xml:space="preserve" width="42" height="42" xmlns="http://www.w3.org/2000/svg"><style>.lst1{fill:#fff}</style><linearGradient id="lSVGID_1_" gradientUnits="userSpaceOnUse" x1="21" y1="1" x2="21" y2="41"><stop offset="0" style="stop-color:#2d0a3c"/><stop offset=".226" style="stop-color:#300c40"/><stop offset=".435" style="stop-color:#3b124b"/><stop offset=".637" style="stop-color:#4c1d5e"/><stop offset=".835" style="stop-color:#632b78"/><stop offset="1" style="stop-color:#7d3b94"/></linearGradient><circle cx="21" cy="21" r="20" style="fill:url(#lSVGID_1_)"/><circle class="lst1" cx="21.4" cy="29.6" r="1.1"/><path class="lst1" d="M28.3 21.2c-.1 0-.3 0-.4.1-6.6-5.4-12.2-1.6-13.9-.1h-.3c-.4 0-.8.4-.8.8s.4.8.8.8.8-.4.8-.8c0-.1 0-.2-.1-.3 1.7-1.5 6.8-5 13.1.2v.1c0 .4.4.8.8.8s.8-.4.8-.8-.4-.8-.8-.8z"/><path class="lst1" d="M32 16.3c-.2 0-.4.1-.6.2-3.9-2.8-9.4-5.2-15.6-3.1-2.5.8-4.4 2.1-5.6 3.1-.2-.1-.3-.1-.5-.1-.6 0-1.1.5-1.1 1.1 0 .6.5 1.1 1.1 1.1.6 0 1.1-.5 1.1-1.1 0-.1 0-.3-.1-.4 1.2-.9 3-2.2 5.4-2.9 5-1.6 10-.6 15 3 0 .1-.1.2-.1.4 0 .6.5 1.1 1.1 1.1.6 0 1.1-.5 1.1-1.1-.1-.8-.6-1.3-1.2-1.3zM25.2 25.4H25c-3.2-2.5-5.9-1.1-7.1-.2-.1 0-.2-.1-.3-.1-.4 0-.8.4-.8.8s.4.8.8.8.8-.4.8-.8v-.2c1.1-.8 3.4-1.9 6.2.2 0 .1-.1.2-.1.3 0 .4.4.8.8.8s.8-.4.8-.8-.4-.8-.9-.8z"/></svg><svg version="1.1" id="hexagon-futureproof-desktop" viewBox="0 0 83 92" style="enable-background:new 0 0 83 92" xml:space="preserve" width="83" height="92" xmlns="http://www.w3.org/2000/svg"><style>.mst1{fill:#fff}</style><defs><path id="mSVGID_1_" d="M36.8 2.5 6.1 20.2c-2.9 1.7-4.6 4.7-4.6 8v35.5c0 3.3 1.8 6.4 4.6 8l30.8 17.8c2.9 1.7 6.4 1.7 9.2 0l30.8-17.8c2.9-1.7 4.6-4.7 4.6-8V28.2c0-3.3-1.8-6.4-4.6-8L46.1 2.5c-1.4-.8-3-1.2-4.6-1.2-1.6-.1-3.2.3-4.7 1.2"/></defs><clipPath id="mSVGID_2_"><use xlink:href="#mSVGID_1_" style="overflow:visible"/></clipPath><linearGradient id="mSVGID_3_" gradientUnits="userSpaceOnUse" x1="-375.936" y1="343.924" x2="-375.397" y2="343.924" gradientTransform="matrix(0 166.0601 166.0601 0 -57070.715 62429.23)"><stop offset="0" style="stop-color:#2d0a3c"/><stop offset=".226" style="stop-color:#300c40"/><stop offset=".435" style="stop-color:#3b124b"/><stop offset=".637" style="stop-color:#4c1d5e"/><stop offset=".835" style="stop-color:#632b78"/><stop offset="1" style="stop-color:#7d3b94"/></linearGradient><path style="clip-path:url(#mSVGID_2_);fill:url(#mSVGID_3_)" d="M1.4 1.2h80v89.9h-80z"/><path class="mst1" d="M64.9 36.6h-.3l-2.4-12.5c.6-.2 1.1-.8 1.1-1.5 0-.9-.7-1.6-1.6-1.6-.9 0-1.6.7-1.6 1.6v.1l-2.9.6.3 1.5-29.7 5.8c-.3-.5-.8-.9-1.4-.9-.9 0-1.6.7-1.6 1.6 0 .7.4 1.2 1 1.5l.1.7-11.2 2.2.2 1.1-1.7.3c-.3-.5-.8-.9-1.4-.9-.9 0-1.6.7-1.6 1.6 0 .7.4 1.3 1.1 1.5l.6 2.9c-.4.3-.7.8-.7 1.3 0 .9.7 1.6 1.6 1.6.8 0 1.4-.5 1.5-1.2l1.9-.4.2 1.1 11.2-2.2.2.9c-.3.3-.5.7-.5 1.2 0 .9.7 1.6 1.6 1.6.9 0 1.6-.7 1.6-1.6v-.1l9.2-1.8-8.2 29c-.8.1-1.3.8-1.3 1.6 0 .9.7 1.6 1.6 1.6.9 0 1.6-.7 1.6-1.6 0-.5-.2-.9-.6-1.2l8.3-29.7 1.1-.2c.2.3.6.6 1 .6L51.1 72c-.3.3-.6.7-.6 1.2 0 .9.7 1.6 1.6 1.6s1.6-.7 1.6-1.6c0-.8-.6-1.4-1.3-1.6l-7.9-29.2c.3-.2.4-.5.5-.8l15.2-2.9.3 1.5 2.5-.5c.3.7 1.1 1.3 1.9 1.3 1.2 0 2.1-1 2.1-2.1 0-1.3-.9-2.3-2.1-2.3zM14 42.5c-.2-.3-.5-.5-.9-.6l-.5-2.7c.3-.2.5-.4.7-.8l1.9-.4.8 4.1-2 .4zm13.4-1.4L17.5 43l-1.2-6.4 9.9-1.9.6 3.2.6 3.2zm32.5-3.8-15.2 2.9c-.3-.4-.8-.7-1.3-.7-.8 0-1.4.5-1.5 1.2L29.8 43c-.2-.1-.4-.2-.7-.3L29 42l-1-4.3-1-5c.3-.2.6-.4.7-.8l29.9-5.8 1.5 7.5.8 3.7zm1.6 1.1-1.6-8.2-1.1-5.8 2.1-.4 2.6 13.3c-.3.3-.5.6-.6 1.1l-1.3.3-.1-.3z"/><path class="mst1" d="M54.3 27.6c-.8 0-1.4.6-1.6 1.3l-22.1 4.4.3 1.3 22.2-4.4c.3.3.7.6 1.2.6.9 0 1.6-.7 1.6-1.6 0-.9-.7-1.6-1.6-1.6z"/></svg><svg version="1.1" id="hexagon-futureproof-mobile" x="164" y="184" viewBox="0 0 74 82" style="enable-background:new 0 0 74 82" xml:space="preserve" width="74" height="82" xmlns="http://www.w3.org/2000/svg"><style>.nst1{fill:#fff}</style><defs><path id="nSVGID_1_" d="M32.8 3.1 6 18.7c-2.5 1.4-4 4.1-4 7v31.1c0 2.9 1.5 5.6 4 7l26.9 15.5c2.5 1.4 5.6 1.4 8.1 0l26.9-15.5c2.5-1.4 4-4.1 4-7V25.7c0-2.9-1.5-5.6-4-7L41 3.1C39.8 2.4 38.3 2 37 2c-1.5 0-2.9.4-4.2 1.1"/></defs><clipPath id="nSVGID_2_"><use xlink:href="#nSVGID_1_" style="overflow:visible"/></clipPath><linearGradient id="nSVGID_3_" gradientUnits="userSpaceOnUse" x1="-393.878" y1="327.756" x2="-393.406" y2="327.756" gradientTransform="matrix(0 166.0601 166.0601 0 -54390.336 65409.418)"><stop offset="0" style="stop-color:#2d0a3c"/><stop offset=".226" style="stop-color:#300c40"/><stop offset=".435" style="stop-color:#3b124b"/><stop offset=".637" style="stop-color:#4c1d5e"/><stop offset=".835" style="stop-color:#632b78"/><stop offset="1" style="stop-color:#7d3b94"/></linearGradient><path style="clip-path:url(#nSVGID_2_);fill:url(#nSVGID_3_)" d="M1.9 2h70v78.7h-70z"/><path class="nst1" d="M57.3 33.3h-.2L55 22.6c.5-.2.9-.7.9-1.3 0-.8-.6-1.4-1.4-1.4-.8 0-1.4.6-1.4 1.4v.1l-2.5.5.2 1.3-25.6 4.9c-.2-.4-.7-.8-1.2-.8-.8 0-1.4.6-1.4 1.4 0 .6.3 1.1.8 1.3l.1.6-9.7 1.9.2 1-1.4.3c-.2-.4-.7-.7-1.2-.7-.8 0-1.4.6-1.4 1.4 0 .6.4 1.1.9 1.3l.5 2.5c-.3.2-.6.7-.6 1.1 0 .8.6 1.4 1.4 1.4.6 0 1.2-.4 1.3-1l1.6-.3.2 1 9.7-1.9.1.7c-.3.3-.5.6-.5 1 0 .8.6 1.4 1.4 1.4.8 0 1.4-.6 1.4-1.4v-.1l7.9-1.5-7 25c-.7.1-1.2.7-1.2 1.4 0 .8.6 1.4 1.4 1.4.8 0 1.4-.6 1.4-1.4 0-.4-.2-.8-.5-1l7.2-25.5.9-.2c.2.3.5.5.9.6l6.8 25.1c-.3.3-.5.6-.5 1 0 .8.6 1.4 1.4 1.4.8 0 1.4-.6 1.4-1.4 0-.7-.5-1.2-1.1-1.4l-6.8-25.1c.2-.2.4-.4.5-.7L53.3 35l.2 1.3 2.2-.4c.3.6.9 1.1 1.7 1.1 1 0 1.8-.8 1.8-1.8 0-1.1-.9-1.9-1.9-1.9zm-43.7 5.1c-.2-.3-.5-.5-.8-.5l-.5-2.4c.3-.2.5-.4.6-.7l1.6-.3.7 3.5-1.6.4zM25 37.2l-8.5 1.7-1.1-5.5 8.5-1.7.5 2.8.6 2.7zm28-3.3-13 2.5c-.2-.3-.7-.6-1.1-.6-.6 0-1.2.4-1.3 1l-10.4 2c-.2-.1-.4-.2-.6-.2l-.1-.6-.8-3.9-.8-4.3c.3-.1.5-.4.6-.7l25.7-5 1.3 6.5.5 3.3zm1.4.9-1.4-7-1-5 1.8-.3L56 33.8c-.2.2-.4.6-.5.9l-1.1.3v-.2z"/><path class="nst1" d="M48.2 25.6c-.7 0-1.2.5-1.4 1.1l-19 3.8.2 1.1 19.1-3.8c.3.3.6.5 1 .5.8 0 1.4-.6 1.4-1.4.1-.7-.5-1.3-1.3-1.3z"/></svg><svg version="1.1" id="hexagon-install-desktop" x="83" viewBox="0 0 83 92" style="enable-background:new 0 0 83 92" xml:space="preserve" width="83" height="92" xmlns="http://www.w3.org/2000/svg"><style>.ost1{fill:#fff}</style><defs><path id="oSVGID_1_" d="M36.6 2.9 5.9 20.6c-2.9 1.7-4.6 4.7-4.6 8v35.5c0 3.3 1.8 6.4 4.6 8l30.8 17.8c2.9 1.7 6.4 1.7 9.2 0l30.8-17.8c2.9-1.7 4.6-4.7 4.6-8V28.6c0-3.3-1.8-6.4-4.6-8L45.9 2.9c-1.4-.8-3-1.2-4.6-1.2-1.7-.1-3.3.3-4.7 1.2"/></defs><clipPath id="oSVGID_2_"><use xlink:href="#oSVGID_1_" style="overflow:visible"/></clipPath><linearGradient id="oSVGID_3_" gradientUnits="userSpaceOnUse" x1="-375.961" y1="-254.362" x2="-375.422" y2="-254.362" gradientTransform="rotate(90 -52315.943 10117.795) scale(166.0601)"><stop offset="0" style="stop-color:#2d0a3c"/><stop offset=".226" style="stop-color:#300c40"/><stop offset=".435" style="stop-color:#3b124b"/><stop offset=".637" style="stop-color:#4c1d5e"/><stop offset=".835" style="stop-color:#632b78"/><stop offset="1" style="stop-color:#7d3b94"/></linearGradient><path style="clip-path:url(#oSVGID_2_);fill:url(#oSVGID_3_)" d="M1.2 1.6h80v89.9h-80z"/><path class="ost1" d="m17.8 52.6-3.1 4.8 2.6 5 5.7.3 3.1-4.8-2.6-5-5.7-.3zm4.5 8.7-4.2-.2-1.9-3.7 2.2-3.5 4.2.2 1.9 3.7-2.2 3.5z"/><path class="ost1" d="M73.5 34.3c-.4-.8-1.4-1.1-2.1-.6-.6.3-.9 1.1-.8 1.7l-4.7 2.5c-.3-.2-.7-.3-1-.3l-3.2-6 5.4-2.9c.5.6 1.3.8 2 .4.8-.4 1.1-1.4.6-2.1-.4-.8-1.4-1.1-2.1-.6-.3.1-.5.4-.6.6l-5.1-1.4c0-.4-.1-.7-.2-1-.5-1-1.8-1.4-2.8-.9-.9.5-1.3 1.5-1 2.4l-3.3 1.8-2.1 5.9c-.2 0-.4.1-.6.2-.6.3-.9.9-.8 1.5L25.4 49l-7.7-.4c0-.1 0-.1-.1-.2-.4-.8-1.4-1.1-2.1-.6-.8.4-1 1.3-.7 2.1l-3.7 5.7c-.3 0-.7 0-1 .2-.8.4-1.1 1.4-.6 2.1.3.6.9.9 1.5.8l2.7 5.3c-.6.6-.8 1.6-.4 2.4.5 1 1.8 1.4 2.8.9.4-.2.8-.6.9-1l6.1.3c0 .1.1.2.1.3.4.8 1.4 1.1 2.1.6.8-.4 1.1-1.4.6-2.1 0-.1-.1-.1-.1-.2l4.2-6.7 25.7-13.7c.5.4 1.2.5 1.7.2.2-.1.3-.2.4-.3l4.3 1.3c0 .3.1.7.2 1 .5 1 1.8 1.4 2.8.9.9-.5 1.3-1.5 1-2.4l2.8-1.5 2.7-7.5c.3 0 .7 0 1-.2 1-.3 1.3-1.3.9-2zm-5.4 8.8-2.5 1.3c-.6-.5-1.5-.6-2.3-.2-.3.1-.5.3-.7.6l-4.3-1.3c0-.2-.1-.4-.2-.6-.4-.8-1.4-1.1-2.1-.6-.5.3-.8.9-.8 1.4l-26 13.9-4.5 7c-.3 0-.6 0-.8.2-.2.1-.4.3-.6.5l-6.2-.3c0-.2-.1-.3-.2-.5-.4-.8-1.3-1.2-2.2-1.1L12 58.1c.4-.5.5-1.1.2-1.7 0 0 0-.1-.1-.1l3.6-5.6c.4.1.7.1 1.1-.1.3-.1.5-.4.6-.6l8.1.4 25.8-13.7c.5.4 1.1.4 1.7.1.8-.4 1.1-1.4.6-2.1-.1-.2-.2-.3-.3-.4l1.9-5.5 3-1.6c.6.5 1.5.6 2.3.2.3-.1.5-.3.7-.6l4.3 1.1-5.7 3 3.8 7.2c-.4.5-.4 1.1-.1 1.7.4.8 1.4 1.1 2.1.6.6-.3.9-.9.8-1.5l3.8-2-2.1 6.2z"/></svg><svg version="1.1" id="hexagon-install-mobile" x="238" y="184" viewBox="0 0 74 82" style="enable-background:new 0 0 74 82" xml:space="preserve" width="74" height="82" xmlns="http://www.w3.org/2000/svg"><style>.pst1{fill:#fff}</style><defs><path id="pSVGID_1_" d="M33.2 3.3 6.3 18.8c-2.5 1.4-4 4.1-4 7v31.1c0 2.9 1.5 5.6 4 7l26.9 15.5c2.5 1.4 5.6 1.4 8.1 0l26.9-15.5c2.5-1.4 4-4.1 4-7V25.8c0-2.9-1.5-5.6-4-7L41.3 3.3c-1.3-.7-2.6-1.1-4-1.1-1.5 0-2.9.4-4.1 1.1"/></defs><clipPath id="pSVGID_2_"><use xlink:href="#pSVGID_1_" style="overflow:visible"/></clipPath><linearGradient id="pSVGID_3_" gradientUnits="userSpaceOnUse" x1="-383.897" y1="-254.386" x2="-383.426" y2="-254.386" gradientTransform="rotate(90 -52979.184 10773.035) scale(166.0601)"><stop offset="0" style="stop-color:#2d0a3c"/><stop offset=".226" style="stop-color:#300c40"/><stop offset=".435" style="stop-color:#3b124b"/><stop offset=".637" style="stop-color:#4c1d5e"/><stop offset=".835" style="stop-color:#632b78"/><stop offset="1" style="stop-color:#7d3b94"/></linearGradient><path style="clip-path:url(#pSVGID_2_);fill:url(#pSVGID_3_)" d="M2.2 2.2h70v78.7h-70z"/><path class="pst1" d="M16.1 46.8 13.4 51l2.3 4.4 5 .2 2.7-4.2-2.3-4.4-5-.2zm4 7.7-3.7-.2-1.6-3.3 2-3.1 3.7.2 1.7 3.3-2.1 3.1z"/><path class="pst1" d="M65.3 30.6c-.4-.7-1.2-.9-1.9-.6-.6.3-.8.9-.7 1.5l-4.2 2.2c-.3-.2-.6-.3-.9-.3l-2.8-5.3 4.7-2.5c.4.5 1.1.7 1.7.4.7-.4.9-1.2.6-1.9-.4-.7-1.2-.9-1.9-.6-.2.1-.4.3-.6.6l-4.5-1.2c0-.3-.1-.6-.2-.9-.5-.9-1.6-1.2-2.5-.8-.8.4-1.1 1.3-.9 2.1l-3 1.6-1.8 5.2c-.2 0-.4.1-.5.2-.5.3-.8.8-.7 1.3l-22.4 12-6.8-.3c0-.1 0-.1-.1-.2-.4-.7-1.2-.9-1.9-.6-.7.4-.9 1.2-.6 1.9l-3.3 5.1c-.3 0-.6 0-.8.1-.7.4-.9 1.2-.6 1.9.3.5.8.8 1.3.7l2.4 4.7c-.5.6-.7 1.4-.3 2.2.5.9 1.6 1.2 2.5.8.4-.2.7-.5.8-.9l5.4.2c0 .1.1.2.1.2.4.7 1.2.9 1.9.6.7-.4.9-1.2.6-1.9 0-.1-.1-.1-.1-.2L27 52l22.7-12.1c.4.3 1 .4 1.5.1.1-.1.3-.2.4-.3l3.8 1.2c0 .3.1.6.2.9.5.9 1.6 1.2 2.5.8.8-.4 1.1-1.3.9-2.1l2.5-1.3 2.3-6.6c.3 0 .6 0 .9-.1.7-.4 1-1.2.6-1.9zm-4.7 7.8-2.2 1.2c-.6-.4-1.4-.5-2-.2-.2.1-.4.3-.6.5L52 38.7c0-.2-.1-.3-.2-.5-.4-.7-1.2-.9-1.9-.6-.5.3-.7.8-.7 1.3l-23 12.3-3.9 6.2c-.2 0-.5 0-.7.2-.2.1-.4.3-.5.5l-5.4-.3c0-.1-.1-.3-.2-.4-.4-.7-1.2-1.1-1.9-1l-2.4-4.7c.3-.4.4-1 .1-1.5 0 0 0-.1-.1-.1l3.2-5c.3.1.7 0 1-.1.2-.1.4-.3.6-.6l7.1.3 22.7-12.1c.4.3 1 .4 1.5.1.7-.4.9-1.2.6-1.9l-.3-.3 1.7-4.8 2.7-1.4c.6.4 1.3.5 2 .2.2-.1.4-.3.6-.5l3.8 1-5 2.7 3.4 6.3c-.3.4-.4 1-.1 1.5.4.7 1.2.9 1.9.6.5-.3.8-.8.7-1.3l3.4-1.8-2.1 5.4z"/></svg><svg viewBox="0 0 83 92" style="enable-background:new 0 0 83 92" xml:space="preserve" width="83" height="92" id="hexagon-reliable-desktop" x="166" xmlns="http://www.w3.org/2000/svg"><defs><path id="qa" d="M37.3 2.9 6.6 20.6c-2.9 1.7-4.6 4.7-4.6 8v35.5c0 3.3 1.8 6.4 4.6 8l30.8 17.8c2.9 1.7 6.4 1.7 9.2 0l30.8-17.8c2.9-1.7 4.6-4.7 4.6-8V28.6c0-3.3-1.8-6.4-4.6-8L46.6 2.9c-1.4-.8-3-1.2-4.6-1.2-1.6-.1-3.2.3-4.7 1.2"/></defs><clipPath id="qb"><use xlink:href="#qa" style="overflow:visible"/></clipPath><path style="clip-path:url(#qb);fill:url(#SVGID_3_)" d="M2 1.6h80v89.9H2z"/><path d="M72.5 35c-.7 0-1.3.5-1.5 1.1l-16.6-2.3c-.3-.9-1.1-1.5-2.1-1.5-.4 0-.7.1-1 .2l-8.1-15.8c.2-.3.4-.6.4-1 0-.9-.7-1.6-1.6-1.6-.9 0-1.6.7-1.6 1.6 0 .4.2.8.4 1.1l-7.6 15.8c-.2-.1-.3-.1-.5-.1-.8 0-1.4.6-1.6 1.3l-16.5 2.5c-.3-.8-1.1-1.4-2-1.4-1.2 0-2.2 1-2.2 2.2 0 1.2 1 2.2 2.2 2.2.4 0 .8-.1 1.1-.3l12.6 11.9v.2c0 .6.3 1.1.8 1.4l-2.8 17.7c-.7.2-1.1.8-1.1 1.5 0 .9.7 1.6 1.6 1.6s1.6-.7 1.6-1.6v-.1l15.3-8.2c.4.5 1 .7 1.6.7.5 0 .9-.2 1.3-.4l15.2 7.7v.3c0 .9.7 1.6 1.6 1.6.9 0 1.6-.7 1.6-1.6 0-.8-.6-1.5-1.3-1.6l-3.3-17.6c.5-.3.8-.8.8-1.4 0-.2 0-.3-.1-.5L71.6 38c.2.2.5.2.8.2.9 0 1.6-.7 1.6-1.6.1-.9-.6-1.6-1.5-1.6zM29 50.1c-.3-.4-.7-.6-1.2-.6-.3 0-.6.1-.9.3L14.4 38c0-.1 0-.1.1-.2l16.8-2.6c.3.3.7.6 1.1.6l9.9 12L29 50.1zM43.4 47l-9.6-11.7c.3-.3.4-.7.4-1.1 0-.2 0-.3-.1-.5L42 17.4l8.3 16.2c-.1.3-.2.6-.2.9 0 .4.1.7.3 1l-7 11.5zM25.5 70.3l2.7-17.7c.6-.2 1-.6 1.1-1.2l13.2-2.2v10.7c-.9.3-1.5 1.1-1.5 2v.2l-15.5 8.2zm19.7-7.8c.1-.2.1-.4.1-.6 0-.9-.6-1.7-1.4-2V49.2l11.9 2.2c.1.5.5 1 1 1.2l3.3 17.5-14.9-7.6zM58 49.6c-.2-.1-.4-.1-.6-.1-.5 0-1 .2-1.3.6l-11.7-2.2 7.1-11.5c.3.1.6.2.9.2.9 0 1.7-.6 2-1.4l16 2.2L58 49.6z" style="fill:#fff"/></svg><svg viewBox="0 0 74 82" style="enable-background:new 0 0 74 82" xml:space="preserve" width="74" height="82" id="hexagon-reliable-mobile" x="331" xmlns="http://www.w3.org/2000/svg"><defs><path id="ra" d="M32.6 2.3 5.7 17.8c-2.5 1.4-4.1 4.1-4.1 7v31.1c0 2.9 1.5 5.6 4 7l26.9 15.5c2.5 1.4 5.6 1.4 8.1 0l26.9-15.5c2.5-1.4 4-4.1 4-7V24.8c0-2.9-1.5-5.6-4-7L40.6 2.3c-1.2-.7-2.7-1.1-4-1.1-1.4 0-2.8.4-4 1.1"/></defs><clipPath id="rb"><use xlink:href="#ra" style="overflow:visible"/></clipPath><path style="clip-path:url(#rb);fill:url(#SVGID_3_)" d="M1.6 1.2h70v78.7h-70z"/><path d="M64.1 30.3c-.6 0-1.2.4-1.4 1l-15.1-2c-.2-.8-1-1.4-1.9-1.4-.3 0-.6.1-.9.2l-7.3-14.3c.2-.2.3-.6.3-.9 0-.8-.7-1.5-1.5-1.5s-1.5.7-1.5 1.5c0 .4.1.7.4 1l-6.9 14.3c-.2-.1-.3-.1-.5-.1-.7 0-1.3.5-1.4 1.2l-15 2.3c-.3-.7-1-1.3-1.8-1.3-1.1 0-2 .9-2 2s.9 2 2 2c.4 0 .7-.1 1-.3L22 44.8v.2c0 .5.3 1 .7 1.2l-2.5 16c-.6.2-1 .7-1 1.4 0 .8.7 1.5 1.5 1.5s1.5-.7 1.5-1.5v-.1l13.9-7.4c.4.4.9.7 1.5.7.4 0 .8-.2 1.2-.4l13.7 7v.2c0 .8.7 1.5 1.5 1.5s1.5-.7 1.5-1.5c0-.7-.5-1.3-1.2-1.4l-3-15.9c.4-.3.8-.7.8-1.3 0-.2 0-.3-.1-.5L63.4 33c.2.1.5.2.8.2.8 0 1.5-.7 1.5-1.5-.1-.8-.8-1.4-1.6-1.4zM24.7 43.9c-.3-.3-.7-.5-1.1-.5-.3 0-.6.1-.8.2L11.6 32.9c0-.1 0-.1.1-.2L27 30.4c.2.3.6.5 1 .5l8.9 10.9-12.2 2.1zm13.1-2.8-8.7-10.6c.2-.3.4-.6.4-1 0-.2 0-.3-.1-.5l7.1-14.8L44.1 29c-.1.2-.2.5-.2.8 0 .3.1.7.2.9l-6.3 10.4zM21.6 62.3c0-.1-.1-.1 0 0L24 46.2c.5-.2.9-.6 1-1.1l11.9-2v9.7c-.8.2-1.4 1-1.4 1.9v.1l-13.9 7.5zm17.8-7.1c0-.2.1-.4.1-.5 0-.9-.5-1.6-1.3-1.8v-9.7l10.8 2c.1.5.5.9.9 1.1l3 15.9-13.5-7zM51 43.5c-.2-.1-.4-.1-.6-.1-.5 0-.9.2-1.2.6l-10.6-2L45 31.6c.2.1.5.2.8.2.8 0 1.6-.5 1.8-1.3l14.5 2-11.1 11z" style="fill:#fff"/></svg><svg viewBox="0 0 83 92" style="enable-background:new 0 0 83 92" xml:space="preserve" width="83" height="92" id="hexagon-ultrafast-desktop" y="92" xmlns="http://www.w3.org/2000/svg"><defs><path id="sa" d="M36.6 2.5 5.9 20.2c-2.9 1.7-4.6 4.7-4.6 8v35.5c0 3.3 1.8 6.4 4.6 8l30.8 17.8c2.9 1.7 6.4 1.7 9.2 0l30.8-17.8c2.9-1.7 4.6-4.7 4.6-8V28.2c0-3.3-1.8-6.4-4.6-8L45.9 2.5c-1.4-.8-3-1.2-4.6-1.2-1.7-.1-3.3.3-4.7 1.2"/></defs><clipPath id="sb"><use xlink:href="#sa" style="overflow:visible"/></clipPath><path style="clip-path:url(#sb);fill:url(#SVGID_3_)" d="M1.2 1.2h80v89.9h-80z"/><path d="M56.9 39.8c-1 0-1.9.8-2 1.8H43.4v-.1l9-24.4c.1 0 .3.1.5.1.9 0 1.6-.7 1.6-1.6s-.8-1.6-1.7-1.6c-.9 0-1.6.7-1.6 1.6 0 .3.1.7.3 1l-25.1 32c-.2-.1-.5-.1-.7-.1-.9 0-1.6.7-1.6 1.6 0 .9.7 1.6 1.6 1.6.9 0 1.6-.7 1.6-1.6V50l11.4-.3L29.4 74c-.1 0-.2-.1-.5-.1-.9 0-1.6.7-1.6 1.6S28.1 77 29 77c.9 0 1.6-.7 1.6-1.6 0-.5-.2-.8-.5-1.1l25.2-31.2c.3.5.9.7 1.5.7 1.1 0 2-.9 2-2 .2-1.1-.8-2-1.9-2zM32.7 69.3l7.4-19.4h.3c.9 0 1.6-.7 1.6-1.6 0-.9-.7-1.6-1.6-1.6-.8 0-1.5.7-1.6 1.5l-10.7.1 21-26.8L42 40.6c-.9 0-1.6.7-1.6 1.6s.7 1.6 1.6 1.6c.7 0 1.4-.5 1.5-1.1H54L32.7 69.3z" style="fill:#fff"/></svg><svg viewBox="0 0 74 82" style="enable-background:new 0 0 74 82" xml:space="preserve" width="74" height="82" id="hexagon-ultrafast-mobile" x="331" y="82" xmlns="http://www.w3.org/2000/svg"><defs><path id="ta" d="m33.2 2.9-27 15.5c-2.5 1.4-4 4.1-4 7v31.1c0 2.9 1.5 5.6 4 7l27 15.5c2.5 1.4 5.6 1.4 8.1 0l26.9-15.5c2.5-1.4 4-4.1 4-7V25.4c0-2.9-1.5-5.6-4-7l-27-15.5c-1.2-.7-2.7-1.1-4-1.1-1.4 0-2.8.4-4 1.1"/></defs><clipPath id="tb"><use xlink:href="#ta" style="overflow:visible"/></clipPath><path style="clip-path:url(#tb);fill:url(#SVGID_3_)" d="M2.2 1.8h70v78.7h-70z"/><path d="M51.1 35.7c-.9 0-1.7.7-1.8 1.6H39.1v-.1l8-21.7c.1 0 .3.1.4.1.8 0 1.4-.6 1.4-1.4 0-.8-.6-1.4-1.4-1.4-.8 0-1.4.6-1.4 1.4 0 .3.1.6.3.9L24.1 43.5c-.2-.1-.4-.1-.6-.1-.8 0-1.4.6-1.4 1.4 0 .8.6 1.4 1.4 1.4s1.4-.6 1.4-1.4v-.1l10.1-.3-8.3 21.7c-.1 0-.2-.1-.4-.1-.8 0-1.4.6-1.4 1.4 0 .8.6 1.4 1.4 1.4.8 0 1.4-.6 1.4-1.4 0-.4-.2-.7-.4-1l22.4-27.7c.3.4.8.6 1.3.6 1 0 1.8-.8 1.8-1.8.2-1-.7-1.8-1.7-1.8zM29.6 61.9l6.6-17.2h.3c.8 0 1.4-.6 1.4-1.4 0-.8-.6-1.4-1.4-1.4-.7 0-1.3.6-1.4 1.3l-9.5.1 18.7-23.8-6.3 17c-.8 0-1.4.6-1.4 1.4 0 .8.6 1.4 1.4 1.4.6 0 1.2-.4 1.3-1h9.3l-19 23.6z" style="fill:#fff"/></svg></svg>