<?xml version="1.0" encoding="utf-8"?><svg width="156" height="78" viewBox="0 0 156 78" xmlns="http://www.w3.org/2000/svg" xmlns:xlink="http://www.w3.org/1999/xlink"><svg id="1" viewBox="0 0 78 78" width="78" height="78" xmlns="http://www.w3.org/2000/svg"><style>.ast0{fill:#eee}.ast1{fill:#25a970}</style><path class="ast0" d="M12 77.5C5.7 77.5.5 72.3.5 66V12C.5 5.7 5.7.5 12 .5h54C72.3.5 77.5 5.7 77.5 12v54c0 6.3-5.2 11.5-11.5 11.5H12z"/><path class="ast1" d="M66 1c6.1 0 11 4.9 11 11v54c0 6.1-4.9 11-11 11H12C5.9 77 1 72.1 1 66V12C1 5.9 5.9 1 12 1h54m0-1H12C5.4 0 0 5.4 0 12v54c0 6.6 5.4 12 12 12h54c6.6 0 12-5.4 12-12V12c0-6.6-5.4-12-12-12z"/><g><path class="ast1" d="M34.7 29.5c0-.3.1-.5.2-.8.1-.2.3-.4.4-.6.1-.1.2-.2.2-.1.6.7 1.3 1 2.3 1 .8 0 1.6-.3 2.1-.9.6-.6.9-1.3.9-2.2H42c.8 0 1.2.4 1.2 1.2v23.7c0 .8-.4 1.2-1.2 1.2h-.4c-.8 0-1.2-.4-1.2-1.2V30.3c-.7 1-1.7 1.5-2.9 1.5-.9 0-1.6-.2-2.1-.6-.4-.5-.7-1-.7-1.7z"/></g></svg><svg id="1-fill" viewBox="0 0 78 78" width="78" height="78" x="78" xmlns="http://www.w3.org/2000/svg"><style>.bst0{fill:#25a970}.bst1{fill:#fff}</style><path class="bst0" d="M12 77.5C5.7 77.5.5 72.3.5 66V12C.5 5.7 5.7.5 12 .5h54C72.3.5 77.5 5.7 77.5 12v54c0 6.3-5.2 11.5-11.5 11.5H12z"/><path d="M66 1c6.1 0 11 4.9 11 11v54c0 6.1-4.9 11-11 11H12C5.9 77 1 72.1 1 66V12C1 5.9 5.9 1 12 1h54m0-1H12C5.4 0 0 5.4 0 12v54c0 6.6 5.4 12 12 12h54c6.6 0 12-5.4 12-12V12c0-6.6-5.4-12-12-12z"/><g><path class="bst1" d="M34.7 29.5c0-.3.1-.5.2-.8.1-.2.3-.4.4-.6.1-.1.2-.2.2-.1.6.7 1.3 1 2.3 1 .8 0 1.6-.3 2.1-.9.6-.6.9-1.3.9-2.2H42c.8 0 1.2.4 1.2 1.2v23.7c0 .8-.4 1.2-1.2 1.2h-.4c-.8 0-1.2-.4-1.2-1.2V30.3c-.7 1-1.7 1.5-2.9 1.5-.9 0-1.6-.2-2.1-.6-.4-.5-.7-1-.7-1.7z"/></g></svg></svg>