<?xml version="1.0" encoding="utf-8"?><svg width="160" height="80" viewBox="0 0 160 80" xmlns="http://www.w3.org/2000/svg" xmlns:xlink="http://www.w3.org/1999/xlink"><svg id="pinpad-1" viewBox="0 0 79.3 79.3" width="79.3" height="79.3" x="80" xmlns="http://www.w3.org/2000/svg"><style>.ast0{fill:#fafafa;stroke:#ddd;stroke-width:2;stroke-linejoin:round}.ast1{fill:#394348}</style><circle class="ast0" cx="39.6" cy="39.6" r="37.7"/><path class="ast1" d="M40.9 49.1V32.7c-.5.7-1.4 1.2-2.4 1.2-1.4 0-2.3-.7-2.3-1.8 0-.7.6-1.2.7-1.2.4.5 1 .8 1.8.8 1.4 0 2.4-1.1 2.5-2.5h.9c.6 0 1 .4 1 1v19c0 .7-.3 1-1 1h-.3c-.6-.1-.9-.4-.9-1.1z"/></svg><svg id="pinpad-1-fill" viewBox="0 0 80 80" width="80" height="80" xmlns="http://www.w3.org/2000/svg"><style>.bst0{fill:#25a970}.bst1{fill:#fff}</style><circle class="bst0" cx="40" cy="40" r="40"/><path class="bst1" d="M41.3 49.5V33c-.5.7-1.4 1.2-2.4 1.2-1.4 0-2.3-.7-2.3-1.8 0-.7.6-1.2.7-1.2.4.5 1 .8 1.8.8 1.4 0 2.4-1.1 2.5-2.5h.9c.6 0 1 .4 1 1v19c0 .7-.3 1-1 1h-.3c-.6 0-.9-.3-.9-1z"/></svg></svg>