<?xml version="1.0" encoding="utf-8"?><svg width="390" height="390" viewBox="0 0 390 390" xmlns="http://www.w3.org/2000/svg" xmlns:xlink="http://www.w3.org/1999/xlink"><svg id="0" viewBox="0 0 78 78" width="78" height="78" x="78" xmlns="http://www.w3.org/2000/svg"><style>.ast0,.ast1{enable-background:new}.ast0{fill:#fafafa;opacity:.25}.ast1{opacity:.5}.ast1,.ast2{fill:#fff}</style><circle class="ast0" cx="39" cy="39" r="38"/><path class="ast1" d="M39 78C17.5 78 0 60.5 0 39S17.5 0 39 0s39 17.5 39 39-17.5 39-39 39zm0-76C18.6 2 2 18.6 2 39s16.6 37.1 37 37.1S76.1 59.5 76.1 39C76.1 18.6 59.4 2 39 2z"/><path class="ast2" d="M30.7 40.1V38c0-6 3.2-9.7 8.3-9.7s8.3 3.7 8.3 9.6V40c0 6-3.2 9.7-8.3 9.7s-8.3-3.6-8.3-9.6zm14.4-.1v-2c0-4.9-2.3-7.9-6.1-7.9s-6 2.9-6 7.8v2c0 4.9 2.3 7.9 6.1 7.9s6-2.8 6-7.8z"/></svg><svg id="0-fill" viewBox="0 0 78 78" width="78" height="78" x="234" y="156" xmlns="http://www.w3.org/2000/svg"><style>.bst0{fill:#7e3b94}.bst1{fill:#fff}</style><circle class="bst0" cx="39" cy="39" r="39"/><path class="bst1" d="M30.7 40.1V38c0-6 3.2-9.7 8.3-9.7 5.1 0 8.3 3.7 8.3 9.6V40c0 6-3.2 9.7-8.3 9.7s-8.3-3.6-8.3-9.6zm14.4-.1v-2c0-4.9-2.3-7.9-6.1-7.9s-6 2.9-6 7.8v2c0 4.9 2.3 7.9 6.1 7.9s6-2.8 6-7.8zM19.1-36.3h11.3c.7 0 1 .3 1 .9v.2c0 .6-.4.9-1 .9h-12c-.9 0-1.4-.5-1.4-1.3v-.6c0-4.5 3.2-6.3 6.4-8 2.8-1.4 5.5-2.6 5.5-5.2 0-2.5-1.8-4-4.8-4-3.4 0-4.8 2-5.5 4.3 0 .1-1.5.1-1.5-1.2 0-1.8 2.4-5.1 7.1-5.1 4.2 0 6.8 2.3 6.8 6 0 3.6-3 5.2-6.2 6.7-3 1.5-5.7 2.9-5.7 6v.4zM45-33.9c-5 0-7.4-3-7.4-4.5 0-1.2 1.2-1.4 1.2-1.2.9 2.5 3.2 3.9 6.1 3.9 3.3 0 5.4-1.6 5.4-4.2 0-2.8-2-4.3-5.6-4.3h-1.8c-.8 0-1.1-.4-1.1-.9v-.1c0-.6.4-.9 1-.9H45c3 0 4.6-1.4 4.6-3.7s-1.8-3.7-4.8-3.7c-2.6 0-4.5 1.3-5.4 3.3-.1.1-1.2-.3-1.2-1.2 0-1.4 2.6-3.9 6.7-3.9 4.4 0 7 2 7 5.5 0 2.3-1.2 3.8-3.5 4.5 2.6.9 4.1 2.8 4.1 5.4.2 3.6-2.7 6-7.5 6zM69.2-35.2v-5h-9.1c-1 0-1.5-.5-1.5-1.2v-.6c0-.6.3-1.1.9-1.8l8.2-10.1c.7-.9 1-1.2 2-1.2 1.3 0 1.7.5 1.7 1.4v11.6h2.8c.6 0 1 .3 1 .9v.2c0 .6-.4.9-1 .9h-2.8v5c0 .7-.3 1-.9 1h-.3c-.6-.1-1-.6-1-1.1zm-8.7-7h8.8v-10.9l-8.8 10.9zM86.6-46.1c1.3-.6 2.8-1.1 4.6-1.1 4.4 0 7.3 2.6 7.3 6.5 0 4.1-3 6.7-7.7 6.7-4.2 0-7.1-2.4-7.1-4.1 0-.9 1.2-1.3 1.3-1.2 1 2 3 3.3 5.9 3.3 3.3 0 5.5-1.8 5.5-4.7 0-2.8-2-4.6-5.1-4.6-2.4 0-4 .6-5.3 1.5-1-.1-1.4-.7-1.4-1.5V-54c0-.7.5-1.2 1.2-1.2h10.7c.6 0 1 .3 1 .9v.2c0 .6-.4.9-1 .9h-9.8v7.1zM-1.1-17.5C.3-18.8 2.6-20 5-20c4.3 0 7.1 2.5 7.1 6.3v.2c0 4-3.1 6.9-7.3 6.9-5.3 0-8.1-3.8-8.1-9.4v-2.3c0-6 3.2-9.7 8.2-9.7 4.2 0 6.2 2.1 6.2 3.4 0 .8-1.1 1.3-1.2 1.2-1.1-1.6-2.7-2.7-5.1-2.7-3.8 0-6.1 2.8-6.1 7.7v.9zm0 2.2c.2 4.2 2.2 6.8 5.8 6.8 3.1 0 5.3-2 5.3-4.9v-.2c0-2.9-1.8-4.6-5.2-4.6-2.3.1-4.6 1.3-5.9 2.9zM16.5-26.7c0-.6.4-1 1-1h12.9c1 0 1.2.4 1.2 1v.2c0 .3-.2.8-.6 1.5L21.7-7.6c-.3.6-.7.7-1.1.7-.7 0-1.3-.7-1.2-.9L29-25.6H17.5c-.6 0-1-.4-1-1v-.1zM38.5-12.4c0-2.4 1.5-4.4 4.2-5.2-2.5-.8-3.6-2.5-3.6-4.7 0-3.4 2.8-5.7 7.2-5.7s7.1 2.2 7.1 5.6c0 2.2-1.2 4-3.6 4.8 2.8.9 4.2 2.8 4.2 5.2 0 3.4-3.1 5.8-7.7 5.8-4.8 0-7.8-2.4-7.8-5.8zm13.3-.1c0-2.5-2-4.2-5.6-4.2-3.6 0-5.6 1.6-5.6 4.2 0 2.4 2 4.1 5.6 4.1 3.7-.1 5.6-1.6 5.6-4.1zm-.6-9.8c0-2.3-1.8-3.9-5-3.9-3.3 0-5 1.5-5 3.9 0 2.2 1.8 3.7 5 3.7 3.3 0 5-1.4 5-3.7zM71.8-16.2v-.7c-1.4 1.3-3.7 2.5-6.1 2.5-4.3 0-7.1-2.5-7.1-6.3v-.2c0-4 3.1-7.2 7.3-7.2 5.1 0 8.1 3.5 8.1 9.4v2.3c0 6.4-2.9 9.7-8.4 9.7-4.2 0-6.2-2.1-6.2-3.4 0-.8 1.1-1.3 1.2-1.2 1.1 1.6 2.7 2.7 5.1 2.7 4 .1 6.1-2.3 6.1-7.6zm-.1-2.9c-.2-4.4-2.1-7.1-5.8-7.1-3.1 0-5.3 2.3-5.3 5.2v.2c0 2.9 1.8 4.6 5.2 4.6 2.3 0 4.7-1.3 5.9-2.9z"/></svg><svg id="1" viewBox="0 0 78 78" width="78" height="78" y="78" xmlns="http://www.w3.org/2000/svg"><style>.cst0,.cst1{enable-background:new}.cst0{fill:#fafafa;opacity:.25}.cst1{opacity:.5}.cst1,.cst2{fill:#fff}</style><circle class="cst0" cx="39" cy="39" r="38"/><path class="cst1" d="M39 78C17.5 78 0 60.5 0 39S17.5 0 39 0s39 17.5 39 39-17.5 39-39 39zm0-76C18.6 2 2 18.6 2 39s16.6 37.1 37 37.1S76.1 59.5 76.1 39C76.1 18.6 59.4 2 39 2z"/><path class="cst2" d="M40.3 48.3v-16c-.5.7-1.4 1.2-2.3 1.2-1.4 0-2.2-.7-2.2-1.8 0-.7.6-1.2.7-1.2.4.5 1 .8 1.8.8 1.4 0 2.3-1.1 2.4-2.4h.9c.6 0 1 .4 1 1v18.5c0 .7-.3 1-1 1h-.3c-.7-.2-1-.5-1-1.1z"/></svg><svg id="1-fill" viewBox="0 0 78 78" width="78" height="78" x="78" y="78" xmlns="http://www.w3.org/2000/svg"><style>.dst0{fill:#7e3b94}.dst1{fill:#fff}</style><circle class="dst0" cx="39" cy="39" r="39"/><path class="dst1" d="M40.3 48.5V32c-.5.7-1.4 1.2-2.4 1.2-1.4 0-2.3-.7-2.3-1.8 0-.7.6-1.2.7-1.2.4.5 1 .8 1.8.8 1.4 0 2.4-1.1 2.5-2.5h.9c.6 0 1 .4 1 1v19c0 .7-.3 1-1 1h-.3c-.6 0-.9-.3-.9-1z"/></svg><svg id="2" viewBox="0 0 78 78" width="78" height="78" x="156" xmlns="http://www.w3.org/2000/svg"><style>.est0,.est1{enable-background:new}.est0{fill:#fafafa;opacity:.25}.est1{opacity:.5}.est1,.est2{fill:#fff}</style><circle class="est0" cx="39" cy="39" r="38"/><path class="est1" d="M39 78C17.5 78 0 60.5 0 39S17.5 0 39 0s39 17.5 39 39-17.5 39-39 39zm0-76C18.6 2 2 18.6 2 39s16.6 37.1 37 37.1S76.1 59.5 76.1 39C76.1 18.6 59.4 2 39 2z"/><path class="est2" d="M33.9 47.6h11.3c.7 0 1 .3 1 .9v.2c0 .6-.4.9-1 .9h-12c-.9 0-1.4-.5-1.4-1.3v-.6c0-4.5 3.2-6.3 6.4-8 2.8-1.4 5.5-2.6 5.5-5.2 0-2.5-1.8-4-4.8-4-3.4 0-4.8 2-5.5 4.3 0 .1-1.5.1-1.5-1.2 0-1.8 2.4-5.1 7.1-5.1 4.2 0 6.8 2.3 6.8 6 0 3.6-3 5.2-6.2 6.7-3 1.5-5.7 2.9-5.7 6v.4z"/></svg><svg id="2-fill" viewBox="0 0 78 78" width="78" height="78" x="156" y="78" xmlns="http://www.w3.org/2000/svg"><style>.fst0{fill:#7e3b94}.fst1{fill:#fff}</style><circle class="fst0" cx="39" cy="39" r="39"/><path class="fst1" d="M33.9 47.6h11.3c.7 0 1 .3 1 .9v.2c0 .6-.4.9-1 .9h-12c-.9 0-1.4-.5-1.4-1.3v-.6c0-4.5 3.2-6.3 6.4-8 2.8-1.4 5.5-2.6 5.5-5.2 0-2.5-1.8-4-4.8-4-3.4 0-4.8 2-5.5 4.3 0 .1-1.5.1-1.5-1.2 0-1.8 2.4-5.1 7.1-5.1 4.2 0 6.8 2.3 6.8 6 0 3.6-3 5.2-6.2 6.7-3 1.5-5.7 2.9-5.7 6v.4z"/></svg><svg id="3" viewBox="0 0 78 78" width="78" height="78" y="156" xmlns="http://www.w3.org/2000/svg"><style>.gst0,.gst1{enable-background:new}.gst0{fill:#fafafa;opacity:.25}.gst1{opacity:.5}.gst1,.gst2{fill:#fff}</style><circle class="gst0" cx="39" cy="39" r="38"/><path class="gst1" d="M39 78C17.5 78 0 60.5 0 39S17.5 0 39 0s39 17.5 39 39-17.5 39-39 39zm0-76C18.6 2 2 18.6 2 39s16.6 37.1 37 37.1S76.1 59.5 76.1 39C76.1 18.6 59.4 2 39 2z"/><path class="gst2" d="M38.9 49.7c-5 0-7.4-3-7.4-4.5 0-1.2 1.2-1.4 1.2-1.2.9 2.5 3.2 3.9 6.1 3.9 3.3 0 5.4-1.6 5.4-4.2 0-2.8-2-4.3-5.6-4.3h-1.8c-.8 0-1.1-.4-1.1-.9v-.1c0-.6.4-.9 1-.9h2.2c3 0 4.6-1.4 4.6-3.7s-1.8-3.7-4.8-3.7c-2.6 0-4.5 1.3-5.4 3.3-.1.1-1.2-.3-1.2-1.2 0-1.4 2.6-3.9 6.7-3.9 4.4 0 7 2 7 5.5 0 2.3-1.2 3.8-3.5 4.5 2.6.9 4.1 2.8 4.1 5.4.1 3.7-2.8 6-7.5 6z"/></svg><svg id="3-fill" viewBox="0 0 78 78" width="78" height="78" x="78" y="156" xmlns="http://www.w3.org/2000/svg"><style>.hst0{fill:#7e3b94}.hst1{fill:#fff}</style><circle class="hst0" cx="39" cy="39" r="39"/><path class="hst1" d="M38.9 49.7c-5 0-7.4-3-7.4-4.5 0-1.2 1.2-1.4 1.2-1.2.9 2.5 3.2 3.9 6.1 3.9 3.3 0 5.4-1.6 5.4-4.2 0-2.8-2-4.3-5.6-4.3h-1.8c-.8 0-1.1-.4-1.1-.9v-.1c0-.6.4-.9 1-.9h2.2c3 0 4.6-1.4 4.6-3.7s-1.8-3.7-4.8-3.7c-2.6 0-4.5 1.3-5.4 3.3-.1.1-1.2-.3-1.2-1.2 0-1.4 2.6-3.9 6.7-3.9 4.4 0 7 2 7 5.5 0 2.3-1.2 3.8-3.5 4.5 2.6.9 4.1 2.8 4.1 5.4.1 3.7-2.8 6-7.5 6z"/></svg><svg id="4" viewBox="0 0 78 78" width="78" height="78" x="156" y="156" xmlns="http://www.w3.org/2000/svg"><style>.ist0,.ist1{enable-background:new}.ist0{fill:#fafafa;opacity:.25}.ist1{opacity:.5}.ist1,.ist2{fill:#fff}</style><circle class="ist0" cx="39" cy="39" r="38"/><path class="ist1" d="M39 78C17.5 78 0 60.5 0 39S17.5 0 39 0s39 17.5 39 39-17.5 39-39 39zm0-76C18.6 2 2 18.6 2 39s16.6 37.1 37 37.1S76.1 59.5 76.1 39C76.1 18.6 59.4 2 39 2z"/><path class="ist2" d="M41.4 48.5v-5h-9.1c-1 0-1.5-.5-1.5-1.2v-.6c0-.6.3-1.1.9-1.8l8.2-10.1c.7-.9 1-1.2 2-1.2 1.3 0 1.7.5 1.7 1.4v11.6h2.8c.6 0 1 .3 1 .9v.2c0 .6-.4.9-1 .9h-2.8v5c0 .7-.3 1-.9 1h-.3c-.6-.1-1-.6-1-1.1zm-8.7-7h8.8V30.6l-8.8 10.9z"/></svg><svg id="4-fill" viewBox="0 0 78 78" width="78" height="78" x="234" xmlns="http://www.w3.org/2000/svg"><style>.jst0{fill:#7e3b94}.jst1{fill:#fff}</style><circle class="jst0" cx="39" cy="39" r="39"/><path class="jst1" d="M41.4 48.5v-5h-9.1c-1 0-1.5-.5-1.5-1.2v-.6c0-.6.3-1.1.9-1.8l8.2-10.1c.7-.9 1-1.2 2-1.2 1.3 0 1.7.5 1.7 1.4v11.6h2.8c.6 0 1 .3 1 .9v.2c0 .6-.4.9-1 .9h-2.8v5c0 .7-.3 1-.9 1h-.3c-.6-.1-1-.6-1-1.1zm-8.7-7h8.8V30.6l-8.8 10.9z"/></svg><svg id="5" viewBox="0 0 78 78" width="78" height="78" x="234" y="78" xmlns="http://www.w3.org/2000/svg"><style>.kst0,.kst1{enable-background:new}.kst0{fill:#fafafa;opacity:.25}.kst1{opacity:.5}.kst1,.kst2{fill:#fff}</style><circle class="kst0" cx="39" cy="39" r="38"/><path class="kst1" d="M39 78C17.5 78 0 60.5 0 39S17.5 0 39 0s39 17.5 39 39-17.5 39-39 39zm0-76C18.6 2 2 18.6 2 39s16.6 37.1 37 37.1S76.1 59.5 76.1 39C76.1 18.6 59.4 2 39 2z"/><path class="kst2" d="M34.6 37.4c1.3-.6 2.8-1.1 4.6-1.1 4.4 0 7.3 2.6 7.3 6.5 0 4.1-3 6.7-7.7 6.7-4.2 0-7.1-2.4-7.1-4.1 0-.9 1.2-1.3 1.3-1.2 1 2 3 3.3 5.9 3.3 3.3 0 5.5-1.8 5.5-4.7 0-2.8-2-4.6-5.1-4.6-2.4 0-4 .6-5.3 1.5-1-.1-1.4-.7-1.4-1.5v-8.7c0-.7.5-1.2 1.2-1.2h10.7c.6 0 1 .3 1 .9v.2c0 .6-.4.9-1 .9h-9.8v7.1h-.1z"/></svg><svg id="5-fill" viewBox="0 0 78 78" width="78" height="78" xmlns="http://www.w3.org/2000/svg"><style>.lst0{fill:#7e3b94}.lst1{fill:#fff}</style><circle class="lst0" cx="39" cy="39" r="39"/><path class="lst1" d="M34.6 37.4c1.3-.6 2.8-1.1 4.6-1.1 4.4 0 7.3 2.6 7.3 6.5 0 4.1-3 6.7-7.7 6.7-4.2 0-7.1-2.4-7.1-4.1 0-.9 1.2-1.3 1.3-1.2 1 2 3 3.3 5.9 3.3 3.3 0 5.5-1.8 5.5-4.7 0-2.8-2-4.6-5.1-4.6-2.4 0-4 .6-5.3 1.5-1-.1-1.4-.7-1.4-1.5v-8.7c0-.7.5-1.2 1.2-1.2h10.7c.6 0 1 .3 1 .9v.2c0 .6-.4.9-1 .9h-9.8v7.1h-.1z"/></svg><svg id="6" viewBox="0 0 78 78" width="78" height="78" y="234" xmlns="http://www.w3.org/2000/svg"><style>.mst0,.mst1{enable-background:new}.mst0{fill:#fafafa;opacity:.25}.mst1{opacity:.5}.mst1,.mst2{fill:#fff}</style><circle class="mst0" cx="39" cy="39" r="38"/><path class="mst1" d="M39 78C17.5 78 0 60.5 0 39S17.5 0 39 0s39 17.5 39 39-17.5 39-39 39zm0-76C18.6 2 2 18.6 2 39s16.6 37.1 37 37.1S76.1 59.5 76.1 39C76.1 18.6 59.4 2 39 2z"/><path class="mst2" d="M33.5 38.9c1.4-1.3 3.7-2.5 6.1-2.5 4.3 0 7.1 2.5 7.1 6.3v.2c0 4-3.1 6.9-7.3 6.9-5.3 0-8.1-3.8-8.1-9.4V38c0-6 3.2-9.7 8.2-9.7 4.2 0 6.2 2.1 6.2 3.4 0 .8-1.1 1.3-1.2 1.2-1.1-1.6-2.7-2.7-5.1-2.7-3.8 0-6.1 2.8-6.1 7.7v1h.2zm0 2.2c.2 4.2 2.2 6.8 5.8 6.8 3.1 0 5.3-2 5.3-4.9v-.2c0-2.9-1.8-4.6-5.2-4.6-2.3 0-4.6 1.3-5.9 2.9z"/></svg><svg id="6-fill" viewBox="0 0 78 78" width="78" height="78" x="78" y="234" xmlns="http://www.w3.org/2000/svg"><style>.nst0{fill:#7e3b94}.nst1{fill:#fff}</style><circle class="nst0" cx="39" cy="39" r="39"/><path class="nst1" d="M33.5 38.9c1.4-1.3 3.7-2.5 6.1-2.5 4.3 0 7.1 2.5 7.1 6.3v.2c0 4-3.1 6.9-7.3 6.9-5.3 0-8.1-3.8-8.1-9.4V38c0-6 3.2-9.7 8.2-9.7 4.2 0 6.2 2.1 6.2 3.4 0 .8-1.1 1.3-1.2 1.2-1.1-1.6-2.7-2.7-5.1-2.7-3.8 0-6.1 2.8-6.1 7.7v1h.2zm0 2.2c.2 4.2 2.2 6.8 5.8 6.8 3.1 0 5.3-2 5.3-4.9v-.2c0-2.9-1.8-4.6-5.2-4.6-2.3 0-4.6 1.3-5.9 2.9z"/></svg><svg id="7" viewBox="0 0 78 78" width="78" height="78" x="156" y="234" xmlns="http://www.w3.org/2000/svg"><style>.ost0,.ost1{enable-background:new}.ost0{fill:#fafafa;opacity:.25}.ost1{opacity:.5}.ost1,.ost2{fill:#fff}</style><circle class="ost0" cx="39" cy="39" r="38"/><path class="ost1" d="M39 78C17.5 78 0 60.5 0 39S17.5 0 39 0s39 17.5 39 39-17.5 39-39 39zm0-76C18.6 2 2 18.6 2 39s16.6 37.1 37 37.1S76.1 59.5 76.1 39C76.1 18.6 59.4 2 39 2z"/><path class="ost2" d="M31.4 29.6c0-.6.4-1 1-1h12.9c1 0 1.2.4 1.2 1v.2c0 .3-.2.8-.6 1.5l-9.3 17.4c-.3.6-.7.8-1.2.8-.7 0-1.3-.7-1.2-.9L44 30.7H32.4c-.6 0-1-.4-1-1v-.1z"/></svg><svg id="7-fill" viewBox="0 0 78 78" width="78" height="78" x="234" y="234" xmlns="http://www.w3.org/2000/svg"><style>.pst0{fill:#7e3b94}.pst1{fill:#fff}</style><circle class="pst0" cx="39" cy="39" r="39"/><path class="pst1" d="M31.4 29.6c0-.6.4-1 1-1h12.9c1 0 1.2.4 1.2 1v.2c0 .3-.2.8-.6 1.5l-9.3 17.4c-.3.6-.7.8-1.2.8-.7 0-1.3-.7-1.2-.9L44 30.7H32.4c-.6 0-1-.4-1-1v-.1z"/></svg><svg id="8" viewBox="0 0 78 78" width="78" height="78" x="312" xmlns="http://www.w3.org/2000/svg"><style>.qst0,.qst1{enable-background:new}.qst0{fill:#fafafa;opacity:.25}.qst1{opacity:.5}.qst1,.qst2{fill:#fff}</style><circle class="qst0" cx="39" cy="39" r="38"/><path class="qst1" d="M39 78C17.5 78 0 60.5 0 39S17.5 0 39 0s39 17.5 39 39-17.5 39-39 39zm0-76C18.6 2 2 18.6 2 39s16.6 37.1 37 37.1S76.1 59.5 76.1 39C76.1 18.6 59.4 2 39 2z"/><path class="qst2" d="M31.2 43.8c0-2.4 1.6-4.4 4.3-5.1-2.5-.8-3.6-2.6-3.5-4.8.1-3.4 2.9-5.7 7.3-5.6 4.4.1 7.1 2.3 7 5.7 0 2.2-1.3 4-3.7 4.7 2.8.9 4.2 2.9 4.1 5.3-.1 3.4-3.2 5.8-7.8 5.7-4.9-.1-7.7-2.4-7.7-5.9zm13.3.1c0-2.5-1.9-4.2-5.5-4.3s-5.6 1.5-5.7 4.1c0 2.4 1.9 4.1 5.5 4.2 3.8.1 5.7-1.5 5.7-4zm-.4-9.8c0-2.3-1.7-3.9-4.9-4-3.3 0-5 1.4-5.1 3.8 0 2.2 1.7 3.7 4.9 3.8 3.2.1 5-1.2 5.1-3.6z"/></svg><svg id="8-fill" viewBox="0 0 78 78" width="78" height="78" x="312" y="78" xmlns="http://www.w3.org/2000/svg"><style>.rst0{fill:#7e3b94}.rst1{fill:#fff}</style><circle class="rst0" cx="39" cy="39" r="39"/><path class="rst1" d="M31.3 43.9c0-2.4 1.5-4.4 4.2-5.2-2.5-.8-3.6-2.5-3.6-4.7 0-3.4 2.8-5.7 7.2-5.7s7.1 2.2 7.1 5.6c0 2.2-1.2 4-3.6 4.8 2.8.9 4.2 2.8 4.2 5.2 0 3.4-3.1 5.8-7.7 5.8-4.9 0-7.8-2.3-7.8-5.8zm13.3-.1c0-2.5-2-4.2-5.6-4.2s-5.6 1.6-5.6 4.2c0 2.4 2 4.1 5.6 4.1 3.7 0 5.6-1.6 5.6-4.1zM44 34c0-2.3-1.8-3.9-5-3.9-3.3 0-5 1.5-5 3.9 0 2.2 1.8 3.7 5 3.7 3.2.1 5-1.3 5-3.7z"/></svg><svg id="9" viewBox="0 0 78 78" width="78" height="78" x="312" y="156" xmlns="http://www.w3.org/2000/svg"><style>.sst0,.sst1{enable-background:new}.sst0{fill:#fafafa;opacity:.25}.sst1{opacity:.5}.sst1,.sst2{fill:#fff}</style><circle class="sst0" cx="39" cy="39" r="38"/><path class="sst1" d="M39 78C17.5 78 0 60.5 0 39S17.5 0 39 0s39 17.5 39 39-17.5 39-39 39zm0-76C18.6 2 2 18.6 2 39s16.6 37.1 37 37.1S76.1 59.5 76.1 39C76.1 18.6 59.4 2 39 2z"/><path class="sst2" d="M44.5 40.2v-.7c-1.4 1.3-3.7 2.5-6.1 2.5-4.3 0-7.1-2.5-7.1-6.3v-.2c0-4 3.1-7.2 7.3-7.2 5.1 0 8.1 3.5 8.1 9.4V40c0 6.4-2.9 9.7-8.4 9.7-4.2 0-6.2-2.1-6.2-3.4 0-.8 1.1-1.3 1.2-1.2 1.1 1.6 2.7 2.7 5.1 2.7 4 .1 6.1-2.4 6.1-7.6zm0-3c-.2-4.4-2.1-7.1-5.8-7.1-3.1 0-5.3 2.3-5.3 5.2v.2c0 2.9 1.8 4.6 5.2 4.6 2.3 0 4.6-1.3 5.9-2.9z"/></svg><svg id="9-fill" viewBox="0 0 78 78" width="78" height="78" x="312" y="234" xmlns="http://www.w3.org/2000/svg"><style>.tst0{fill:#7e3b94}.tst1{fill:#fff}</style><circle class="tst0" cx="39" cy="39" r="39"/><path class="tst1" d="M44.5 40.2v-.7c-1.4 1.3-3.7 2.5-6.1 2.5-4.3 0-7.1-2.5-7.1-6.3v-.2c0-4 3.1-7.2 7.3-7.2 5.1 0 8.1 3.5 8.1 9.4V40c0 6.4-2.9 9.7-8.4 9.7-4.2 0-6.2-2.1-6.2-3.4 0-.8 1.1-1.3 1.2-1.2 1.1 1.6 2.7 2.7 5.1 2.7 4 .1 6.1-2.4 6.1-7.6zm0-3c-.2-4.4-2.1-7.1-5.8-7.1-3.1 0-5.3 2.3-5.3 5.2v.2c0 2.9 1.8 4.6 5.2 4.6 2.3 0 4.6-1.3 5.9-2.9z"/></svg><svg id="backspace" viewBox="0 0 78 78" width="78" height="78" y="312" xmlns="http://www.w3.org/2000/svg"><style>.ust0{fill:#fafafa}.ust1{fill:#7e3b94}.ust2{fill:#394348}</style><path class="ust0" d="M53.7 22.2h-27c-1.3.2-1.7.8-2.8 1.9L10.2 37c-.6.6-.9 1.2-1 2 0 .7.4 1.4 1 2l13.7 13c1.2 1.1 1.5 1.7 2.9 1.9h27c1.7 0 3.1-1.4 3.1-3V25.3c-.1-1.7-1.5-3.1-3.2-3.1z"/><path class="ust1" d="M26.9 57h-.3c-1.7-.2-2.3-.9-3.2-1.7l-.5-.5-13.6-13c-.8-.8-1.2-1.7-1.3-2.7v-.2c.1-1 .5-2 1.3-2.8L23 23.2l.5-.5c.8-.8 1.5-1.5 3-1.7h27.1c2.5 0 4.4 1.9 4.4 4.3v27.5c0 2.3-1.9 4.2-4.3 4.2H26.9zM10.5 39c0 .5.4.9.6 1.1L24.7 53l.5.5c.7.7.9.9 1.6 1h26.9c1 0 1.8-.8 1.8-1.8V25.3c0-1-.8-1.8-1.8-1.8h-27c-.6.1-.8.3-1.5 1l-.5.5L11 37.9c-.2.2-.5.6-.5 1.1z"/><path class="ust2" d="M47.3 44.6L41.7 39l5.6-5.6c.4-.4.4-1.1.1-1.5-.4-.4-1-.4-1.5.1l-5.8 5.8-5.7-5.7c-.4-.4-1.1-.4-1.5-.1-.4.4-.4 1 .1 1.5l5.6 5.6-5.6 5.6c-.4.4-.4 1.1-.1 1.5.4.4 1 .4 1.5-.1l5.8-5.8 5.7 5.7c.4.4 1.1.4 1.5.1.4-.4.4-1-.1-1.5z"/></svg><svg id="backspace-fill" viewBox="0 0 78 78" width="78" height="78" x="78" y="312" xmlns="http://www.w3.org/2000/svg"><style>.vst0{fill:#7e3b94}.vst1{fill:#fff}</style><path class="vst0" d="M53.6 21H26.5c-1.5.2-2.2.9-3 1.7-.2.2-.4.3-.6.5l-13.7 13c-.7.8-1.1 1.7-1.2 2.7v.2c0 1 .5 2 1.3 2.8L23 54.8l.5.5c.8.8 1.5 1.5 3.2 1.7h27c2.4 0 4.3-1.9 4.3-4.2V25.3c-.1-2.4-2.1-4.3-4.4-4.3z"/><path class="vst1" d="M47.2 44.6L41.6 39l5.6-5.6c.4-.4.4-1.1.1-1.5-.4-.4-1-.4-1.5.1L40 37.8l-5.7-5.7c-.4-.4-1.1-.4-1.5-.1-.4.4-.4 1 .1 1.5l5.6 5.6-5.5 5.6c-.4.4-.4 1.1-.1 1.5.4.4 1 .4 1.5-.1l5.8-5.8 5.7 5.7c.4.4 1.1.4 1.5.1.3-.4.3-1-.2-1.5z"/></svg></svg>