<?xml version="1.0" encoding="utf-8"?><svg width="156" height="78" viewBox="0 0 156 78" xmlns="http://www.w3.org/2000/svg" xmlns:xlink="http://www.w3.org/1999/xlink"><svg id="1" viewBox="0 0 78 78" width="78" height="78" xmlns="http://www.w3.org/2000/svg"><style>.ast0{fill:#fafafa}.ast1{fill:#ddd}.ast2{fill:#394348}</style><circle class="ast0" cx="39" cy="39" r="38"/><path class="ast1" d="M39 78C17.5 78 0 60.5 0 39S17.5 0 39 0s39 17.5 39 39-17.5 39-39 39zm0-76C18.6 2 2 18.6 2 39s16.6 37.1 37 37.1S76.1 59.5 76.1 39C76.1 18.6 59.4 2 39 2z"/><g><path class="ast2" d="M40.3 48.3v-16c-.5.7-1.4 1.2-2.3 1.2-1.4 0-2.2-.7-2.2-1.8 0-.7.6-1.2.7-1.2.4.5 1 .8 1.8.8 1.4 0 2.3-1.1 2.4-2.4h.9c.6 0 1 .4 1 1v18.5c0 .7-.3 1-1 1h-.3c-.7-.2-1-.5-1-1.1z"/></g></svg><svg id="1-fill" viewBox="0 0 78 78" width="78" height="78" x="78" xmlns="http://www.w3.org/2000/svg"><style>.bst0{fill:#25a970}.bst1{fill:#fff}</style><circle class="bst0" cx="39" cy="39" r="39"/><path class="bst1" d="M40.3 48.5V32c-.5.7-1.4 1.2-2.4 1.2-1.4 0-2.3-.7-2.3-1.8 0-.7.6-1.2.7-1.2.4.5 1 .8 1.8.8 1.4 0 2.4-1.1 2.5-2.5h.9c.6 0 1 .4 1 1v19c0 .7-.3 1-1 1h-.3c-.6 0-.9-.3-.9-1z"/></svg></svg>