<?xml version="1.0" encoding="utf-8"?><svg width="1024" height="1024" viewBox="0 0 1024 1024" xmlns="http://www.w3.org/2000/svg" xmlns:xlink="http://www.w3.org/1999/xlink"><svg viewBox="0 0 512 512" style="enable-background:new 0 0 512 512" xml:space="preserve" width="512" height="512" id="fast-illustration-blue" xmlns="http://www.w3.org/2000/svg"><style>.ast0{fill:#d7d9da}.ast1{fill:#1e4e9d}</style><g id="aLayer_2"><path class="ast0" d="M116.8 246.9H89c-1.9 0-3.5 1.6-3.5 3.5s1.6 3.5 3.5 3.5h27.8c1.9 0 3.5-1.6 3.5-3.5s-1.6-3.5-3.5-3.5zM102.9 302.6H5.5c-1.9 0-3.5 1.6-3.5 3.5s1.6 3.5 3.5 3.5h97.4c1.9 0 3.5-1.6 3.5-3.5 0-2-1.6-3.5-3.5-3.5zM506.5 253.9h-13.9c-1.9 0-3.5 1.6-3.5 3.5s1.6 3.5 3.5 3.5h13.9c1.9 0 3.5-1.6 3.5-3.5 0-2-1.6-3.5-3.5-3.5zM102.9 323.4H36.8c-1.9 0-3.5 1.6-3.5 3.5s1.6 3.5 3.5 3.5h66.1c1.9 0 3.5-1.6 3.5-3.5s-1.6-3.5-3.5-3.5zM478.7 257.3c0-1.9-1.6-3.5-3.5-3.5h-48.7c-1.9 0-3.5 1.6-3.5 3.5s1.6 3.5 3.5 3.5h48.7c1.9 0 3.5-1.5 3.5-3.5zM499.6 271.3h-55.7c-1.9 0-3.5 1.6-3.5 3.5s1.6 3.5 3.5 3.5h55.7c1.9 0 3.5-1.6 3.5-3.5-.1-2-1.6-3.5-3.5-3.5zM92.3 183.7l5.8 1.1 1.1 5.8c0 .5.2.9.5 1.2.3.3.7.5 1.2.5 1 0 1.7-.8 1.7-1.7l1.3-5.7 5.7-1.3c1 0 1.7-.8 1.7-1.7 0-1-.8-1.7-1.7-1.7l-5.6-1.3-1.3-5.6c0-1-.8-1.7-1.7-1.7-1 0-1.7.8-1.7 1.7l-1.5 5.5-5.5 1.5c-1 0-1.7.8-1.7 1.7 0 .5.2.9.5 1.2.2.3.7.5 1.2.5zM494.4 359.8l3.1-4.9c.7-.7.7-1.8 0-2.5s-1.8-.7-2.5 0l-4.9 2.8-4.9-2.8c-.7-.7-1.8-.7-2.5 0-.3.3-.5.8-.5 1.2 0 .4.2.9.5 1.2l3.4 4.9-3.4 4.9c-.3.3-.5.8-.5 1.2 0 .4.2.9.5 1.2.7.7 1.8.7 2.5 0l4.9-3.1 4.9 3.1c.7.7 1.8.7 2.5 0s.7-1.8 0-2.5l-3.1-4.7zM390.1 93.4l-8.9-2-2-8.9c0-1.5-1.2-2.7-2.7-2.7s-2.7 1.2-2.7 2.7l-2.3 8.6-8.6 2.3c-1.5 0-2.7 1.2-2.7 2.7 0 .8.3 1.4.8 1.9s1.2.8 1.9.8l9.2 1.7 1.7 9.2c0 .8.3 1.4.8 1.9s1.2.8 1.9.8c1.5 0 2.7-1.2 2.7-2.7l2-8.9 8.9-2c1.5 0 2.7-1.2 2.7-2.7 0-1.5-1.2-2.7-2.7-2.7zM151.2 412.1l-8.9-2-2-8.9c0-1.5-1.2-2.7-2.7-2.7s-2.7 1.2-2.7 2.7l-2.3 8.6-8.6 2.2c-1.5 0-2.7 1.2-2.7 2.7 0 .8.3 1.4.8 1.9s1.2.8 1.9.8l9.2 1.7 1.7 9.2c0 .8.3 1.4.8 1.9s1.2.8 1.9.8c1.5 0 2.7-1.2 2.7-2.7l2-8.9 8.9-2c1.5 0 2.7-1.2 2.7-2.7 0-1.4-1.2-2.6-2.7-2.6zM191 94.6c-7.4 0-14.5 2.7-20 7.6-1.1 1-1.2 2.7-.2 3.8 1 1.1 2.7 1.2 3.8.2 4.5-4 10.4-6.2 16.4-6.2 6.1 0 11.9 2.2 16.4 6.2.5.5 1.2.7 1.8.7.7 0 1.5-.3 2-.9 1-1.1.9-2.8-.2-3.8-5.5-4.9-12.6-7.6-20-7.6zM191 109.1c-4.5 0-8.9 1.7-12.3 4.7-1.1 1-1.2 2.7-.2 3.8 1 1.1 2.7 1.2 3.8.2 2.4-2.1 5.5-3.3 8.7-3.3s6.3 1.2 8.7 3.3c.5.5 1.2.7 1.8.7.7 0 1.5-.3 2-.9 1-1.1.9-2.8-.2-3.8-3.4-3.1-7.7-4.7-12.3-4.7z"/><circle class="ast0" cx="191" cy="126.2" r="4.1"/></g><g id="aLayer_1"><path class="ast1" d="M270.5 272.5c-13.1 0-25.7 4.8-35.5 13.5-1.9 1.6-3 3.9-3.1 6.4-.1 2.5.7 4.9 2.3 6.7 3.4 3.8 9.3 4.2 13.1.8 6.4-5.7 14.6-8.8 23.1-8.8 8.5 0 16.7 3.1 23.1 8.8 1.7 1.5 3.9 2.3 6.2 2.3 2.7 0 5.2-1.1 7-3.1 3.4-3.8 3-9.7-.8-13.1-9.7-8.7-22.3-13.5-35.4-13.5z"/><path class="ast1" d="M360.4 220c-1.5 0-3.1 0-4.7.1-3.7-41-40.5-73.3-85.2-73.3s-81.5 32.3-85.2 73.3c-1.6-.1-3.1-.1-4.7-.1-47.2 0-85.5 35.9-85.5 80.1 0 44.2 38.4 80.1 85.5 80.1h179.8c47.2 0 85.5-35.9 85.5-80.1.1-44.1-38.3-80.1-85.5-80.1zm0 146.3H180.6c-39.5 0-71.6-29.7-71.6-66.2s32.1-66.2 71.6-66.2c3.1 0 6.5.2 10.4.8l8 1.1-.1-8.1v-.8c0-36.5 32.1-66.2 71.6-66.2s71.6 29.7 71.6 66.1v.8l-.1 8.1 8-1.1c4-.5 7.3-.8 10.4-.8 39.5 0 71.6 29.7 71.6 66.2s-32.1 66.3-71.6 66.3z"/><path class="ast1" d="M270.5 233.9c-20.6 0-40.5 7.5-56 21.2-3.1 2.8-3.4 7.6-.6 10.7 2.8 3.1 7.6 3.4 10.7.6 12.7-11.2 29-17.4 46-17.4s33.3 6.2 46 17.4c1.4 1.3 3.2 1.9 5 1.9 2.1 0 4.2-.9 5.7-2.6 2.8-3.1 2.5-7.9-.6-10.7-15.6-13.6-35.5-21.1-56.2-21.1zM270.5 308.9c-7.3 0-13.2 5.9-13.2 13.2 0 7.3 5.9 13.2 13.2 13.2 7.3 0 13.2-5.9 13.2-13.2.1-7.3-5.9-13.2-13.2-13.2z"/></g></svg><svg viewBox="0 0 512 512" style="enable-background:new 0 0 512 512" xml:space="preserve" width="512" height="512" id="faster-illustration-green" x="512" xmlns="http://www.w3.org/2000/svg"><style>.bst0{opacity:.2;fill:#394348}.bst1{fill:#25a970}</style><g id="bLayer_2"><path class="bst0" d="M386.1 256.9H469c1.9 0 3.5-1.5 3.5-3.5s-1.5-3.5-3.5-3.5h-82.9c-1.9 0-3.5 1.5-3.5 3.5s1.6 3.5 3.5 3.5zM427.6 270.7h-51.8c-1.9 0-3.5 1.5-3.5 3.5s1.5 3.5 3.5 3.5h51.8c1.9 0 3.5-1.5 3.5-3.5s-1.6-3.5-3.5-3.5zM507 270.7h-55.3c-1.9 0-3.5 1.5-3.5 3.5s1.5 3.5 3.5 3.5H507c1.9 0 3.5-1.5 3.5-3.5s-1.5-3.5-3.5-3.5zM57.8 315.6H6c-1.9 0-3.5 1.5-3.5 3.5s1.5 3.5 3.5 3.5h51.8c1.9 0 3.5-1.5 3.5-3.5s-1.6-3.5-3.5-3.5zM164.9 315.6H82c-1.9 0-3.5 1.5-3.5 3.5s1.5 3.5 3.5 3.5h82.9c1.9 0 3.5-1.5 3.5-3.5s-1.6-3.5-3.5-3.5zM47.4 301.8h65.7c1.9 0 3.5-1.5 3.5-3.5 0-1.9-1.5-3.5-3.5-3.5H47.4c-1.9 0-3.5 1.5-3.5 3.5.1 2 1.6 3.5 3.5 3.5zM224.7 134.7h-.9c-1.8-15.3-15.7-27.2-32.4-27.2s-30.6 11.9-32.4 27.2h-.9c-18 0-32.6 13.7-32.6 30.6s14.6 30.6 32.6 30.6h66.7c18 0 32.6-13.7 32.6-30.6s-14.7-30.6-32.7-30.6zm0 54.3H158c-14.2 0-25.7-10.6-25.7-23.7s11.5-23.7 25.7-23.7c1.1 0 2.3.1 3.8.3l3.9.2v-4c0-13.1 11.5-23.7 25.7-23.7s25.7 10.6 25.7 23.6l-.1 4.4 4-.5c1.4-.2 2.6-.3 3.8-.3 14.2 0 25.7 10.6 25.7 23.7S238.8 189 224.7 189zM410.3 360.6h-48.4c-1.9 0-3.5 1.5-3.5 3.5s1.5 3.5 3.5 3.5h48.4c1.9 0 3.5-1.5 3.5-3.5s-1.6-3.5-3.5-3.5zM405.2 86.4l-4.9 7.2c-.5.5-.8 1.2-.8 1.8s.3 1.3.8 1.8c1 1 2.6 1 3.6 0l7.2-4.6 7.2 4.5c1 1 2.6 1 3.6 0s1-2.6 0-3.6l-4.6-7.2 4.6-7.2c1-1 1-2.6 0-3.6s-2.6-1-3.6 0l-7.2 4.2-7.2-4.1c-1-1-2.6-1-3.6 0-.5.5-.8 1.2-.8 1.8 0 .7.3 1.3.8 1.8l4.9 7.2zM57.3 194.9l8.4 1.9 1.9 8.3c0 1.4 1.2 2.6 2.6 2.6s2.6-1.1 2.6-2.6l1.8-8.3 8.3-1.9c1.4 0 2.6-1.1 2.6-2.6 0-1.4-1.2-2.6-2.6-2.6l-8.1-2.1-2.2-8c0-1.4-1.2-2.6-2.6-2.6-.7 0-1.3.3-1.8.7-.5.5-.7 1.1-.7 1.8l-1.6 8.6-8.6 1.6c-.7 0-1.3.3-1.8.7s-.7 1.1-.7 1.8c-.1 1.6 1.1 2.7 2.5 2.7zM397.3 321.4l1.3 5.7c0 1 .8 1.8 1.8 1.8s1.8-.8 1.8-1.8l1.3-5.7 5.7-1.3c1 0 1.8-.8 1.8-1.8s-.8-1.8-1.8-1.8l-5.5-1.5-1.5-5.5c0-1-.8-1.8-1.8-1.8-.5 0-.9.2-1.2.5-.3.3-.5.8-.5 1.2l-1.1 5.9-5.9 1.1c-.5 0-.9.2-1.2.5-.3.3-.5.8-.5 1.2 0 1 .8 1.8 1.8 1.8l5.5 1.5z"/></g><g id="bLayer_1"><path class="bst1" d="M389.1 154.8c-.6-2.5-2.6-4.4-5.1-5.1-104.4-25.7-180.9 57.3-195.1 74-52.9-1.7-83.9 39-85.2 40.8-1.1 1.5-1.6 3.5-1.3 5.3.3 1.9 1.4 3.5 3 4.6l54.5 35.4c-4.8 18.8.9 39.4 15.2 53.8 14.3 14.3 34.9 20 53.8 15.2l35.4 54.5c1 1.6 2.7 2.7 4.6 3 .4.1.8.1 1.2.1 1.5 0 2.9-.5 4.1-1.4 1.8-1.3 42.5-32.2 40.8-85.2 16.9-14.1 99.8-90.7 74.1-195zm-85.2 186.5c-1.8 1.4-2.8 3.6-2.7 5.9 2.4 36.2-19 61.7-29.5 71.8l-33.9-52.2c-1.3-2-3.5-3.1-5.8-3.1-.8 0-1.6.1-2.4.4-15.2 5.6-32.6 1.5-44.5-10.4-11.9-11.9-16-29.4-10.4-44.5 1.1-3 0-6.4-2.7-8.2l-52.2-33.9c10.1-10.5 35.5-32 71.9-29.5 2.3.2 4.5-.9 5.9-2.7.7-1 74.6-95.5 179-72.8 22.8 104.3-71.7 178.4-72.7 179.2zM134.8 374.4c-6.3 6.3-20.5 39.1-15 44.6 1 1 2.6 1.4 4.7 1.4 11.1 0 34.9-11.4 39.9-16.3 8.2-8.2 8.2-21.5 0-29.7-8.1-8.1-21.4-8.1-29.6 0zm24.8 24.8c-5.7 5.7-27.6 13.9-34.3 14.5.7-6.8 8.9-28.9 14.4-34.4 2.7-2.7 6.3-4.1 9.9-4.1s7.2 1.4 9.9 4.1c5.5 5.5 5.5 14.4.1 19.9z"/><path class="bst1" d="M316.4 188.9c-9 0-17.4 3.5-23.8 9.8-6.4 6.3-9.8 14.8-9.8 23.8s3.5 17.4 9.8 23.8c6.3 6.3 14.8 9.8 23.8 9.8s17.4-3.5 23.8-9.8c13.1-13.1 13.1-34.4 0-47.5-6.4-6.4-14.9-9.9-23.8-9.9zm18.9 52.5c-5 5-11.8 7.8-18.9 7.8-7.1 0-13.8-2.8-18.9-7.8-5-5-7.8-11.8-7.8-18.9 0-7.1 2.8-13.8 7.8-18.9s11.8-7.8 18.9-7.8c7.1 0 13.8 2.8 18.9 7.8 10.4 10.4 10.4 27.4 0 37.8z"/></g></svg><svg viewBox="0 0 512 512" style="enable-background:new 0 0 512 512" xml:space="preserve" width="512" height="512" id="persistent-basket-notification" y="512" xmlns="http://www.w3.org/2000/svg"><path d="M363.9 206.4h-159v-96.1c0-8.4-6.8-15.2-15.1-15.2-8.4 0-15.2 6.8-15.2 15.2v96.1H17.5c-8.4 0-17.4 7.4-15.2 15.2l50.6 179.5c2.5 8.9 6.8 15.2 15.2 15.2h245.2c8.4 0 12.6-6.3 15.2-15.2l50.6-179.5c2.2-7.8-6.8-15.2-15.2-15.2m-91.7 17.7L262 277.2h-62.1v-53.1h72.3zm-22.4 116.3h-50v-43H258l-8.2 43zm28.9-43h59.1l-12.8 43h-54.6l8.3-43zm-234.9 0H103l8.3 43H56l-12.2-43zm79.8 0h56.1v43h-47.8l-8.3-43zm56 63.2V401h-36.2l-7.8-40.4h44zm20.3 0H246l-7.7 40.4H200v-40.4zm-20.3-136.5v53.1h-59.9l-10.2-53.1h70.1zm-141.6 0h50.9l10.2 53.1H38l-13.2-46.5c-1.8-7.4 5.9-6.6 13.2-6.6m30.7 160.5-6.9-24h53.3l7.8 40.4H81.8c-7.3.1-10.5-8.5-13.1-16.4m244.1-3.2c-2.7 7.9-5.9 19.6-13.2 19.6h-40.9l7.8-40.4H319l-6.2 20.8zm31-104.2h-61.2l10.2-53.1h50.7c7.3 0 15.7 2.4 13.1 9.9l-12.8 43.2z" style="fill:#394348"/><path style="fill:#fff" d="M315.3 137.4h135.5v160.9H315.3z"/><path d="M383.5 95.1c-69.9 0-126.5 56.6-126.5 126.5 0 69.8 56.6 126.5 126.5 126.5S510 291.5 510 221.6 453.4 95.1 383.5 95.1m57.9 87.6-65.1 104.5c-2.3 3.6-6.2 5.9-10.4 6.1h-.6c-4.1 0-7.9-1.9-10.4-5.2l-33.3-44c-4.3-5.7-3.2-13.9 2.5-18.2 5.7-4.3 13.9-3.2 18.2 2.5l21.9 28.9 55.1-88.5c3.8-6.1 11.8-7.9 17.9-4.2 6.1 4 8 12 4.2 18.1" style="fill:#ea515a"/></svg></svg>